<?xml version="1.0" encoding="utf-8" ?>
<svg xmlns="http://www.w3.org/2000/svg" xmlns:xlink="http://www.w3.org/1999/xlink" width="206" height="257">
	<path fill="#25A6B5" transform="matrix(0.201172 0 0 0.200781 0 -1.52588e-05)" d="M37.9283 1280L-0 1280L0 -0L1024 0L1024 1280L986.007 1280L552.819 1280L468.638 1280L254.149 1280L37.9283 1280Z"/>
	<path fill="#2D1310" transform="matrix(0.201172 0 0 0.200781 0 -1.52588e-05)" d="M711.746 681.141C721.943 684.931 731.18 684.293 741.575 681.518C733.734 698.112 725.893 715.015 716.503 730.798C701.686 755.703 683.629 778.249 665.03 800.383C652.755 814.992 640.667 829.298 627.089 842.737L628.066 805.835L659.514 774.983C675.642 759.132 693.974 742.076 702.632 720.696C707.651 708.298 709.498 694.273 711.746 681.141Z"/>
	<path fill="#2D1310" transform="matrix(0.201172 0 0 0.200781 0 -1.52588e-05)" d="M276.536 678.031C287.529 680.521 295.415 679.94 306.406 677.735C308.54 692.882 310.257 708.593 316.64 722.665C325.579 742.373 345.958 758.83 361.351 773.594L398.064 808.917C396.002 819.779 396.856 832.231 397.272 843.274C385.059 833.179 374.322 821.733 363.452 810.252C338.584 783.986 315.734 755.702 298.011 724.069C289.728 709.284 282.922 693.713 276.536 678.031Z"/>
	<path fill="#FAC088" transform="matrix(0.201172 0 0 0.200781 0 -1.52588e-05)" d="M733.65 581.661L743.665 530.96C757.303 529.093 768.305 527.496 781.611 532.622C794.154 539.702 802.412 550.074 806.379 563.919C813.438 588.558 804.772 616.026 792.644 637.542C782.265 655.955 764.068 674.523 743.33 680.255L741.728 680.627L741.575 681.518C731.18 684.293 721.943 684.931 711.746 681.141L717.385 652.486L721.815 621.321C722.227 618.627 722.086 614.686 723.188 612.337C725.125 611.398 727.104 605.914 728.058 603.941L733.65 581.661Z"/>
	<path fill="#D58751" transform="matrix(0.201172 0 0 0.200781 0 -1.52588e-05)" d="M717.385 652.486C718.533 653.783 719.111 654.689 719.639 656.345C723.178 664.461 727.6 675.522 736.433 679.217L739.556 680.096L741.728 680.627L741.575 681.518C731.18 684.293 721.943 684.931 711.746 681.141L717.385 652.486Z"/>
	<defs>
		<linearGradient id="gradient_0" gradientUnits="userSpaceOnUse" x1="773.93207" y1="558.38617" x2="721.39465" y2="649.60278">
			<stop offset="0" stop-color="#BA7143"/>
			<stop offset="1" stop-color="#D58F5E"/>
		</linearGradient>
	</defs>
	<path fill="url(#gradient_0)" transform="matrix(0.201172 0 0 0.200781 0 -1.52588e-05)" d="M733.65 581.661L734.469 581.497C736.304 581.04 738.373 577.978 739.65 576.49C748.494 566.186 760.505 550.647 776.015 558.484C783.885 562.46 788.141 571.593 790.599 579.611L792.031 585.705C785.659 575.98 781.726 569.391 770.028 565.846C761.469 568.298 754.747 573.573 749.126 580.481C754.95 581.585 760.833 582.622 764.527 587.812C768.45 593.326 767.604 601.843 766.378 608.125C763.441 623.165 753.385 640.349 740.311 648.65C735.588 651.648 730.473 653.563 725.032 654.782L719.639 656.345C719.111 654.689 718.533 653.783 717.385 652.486L721.815 621.321C722.227 618.627 722.086 614.686 723.188 612.337C725.125 611.398 727.104 605.914 728.058 603.941L733.65 581.661Z"/>
	<path fill="#ECA66C" transform="matrix(0.201172 0 0 0.200781 0 -1.52588e-05)" d="M728.058 603.941L728.4 603.621C732.599 599.583 735.195 591.302 741.956 591.252C744.86 591.23 747.04 592.183 749.028 594.317C751.656 597.138 752.254 601.5 751.952 605.218C751.125 615.405 745.929 624.645 740.584 633.138C736.691 639.323 732.333 645.722 727.156 650.91C725.744 652.325 724.297 652.746 725.032 654.782L719.639 656.345C719.111 654.689 718.533 653.783 717.385 652.486L721.815 621.321C722.227 618.627 722.086 614.686 723.188 612.337C725.125 611.398 727.104 605.914 728.058 603.941Z"/>
	<path fill="#091B27" transform="matrix(0.201172 0 0 0.200781 0 -1.52588e-05)" d="M37.9283 1280L48.1451 1203.13C51.8324 1175.71 52.5658 1145.84 63.5075 1120.13C74.4019 1094.53 94.6543 1072.91 119.001 1059.69C129.078 1054.21 139.966 1050.09 150.577 1045.77C150.669 1115.26 177.236 1180.28 218.121 1235.71L239.84 1262.59C244.781 1268.33 250.078 1273.58 254.149 1280L37.9283 1280Z"/>
	<path fill="#0D2B3D" transform="matrix(0.201172 0 0 0.200781 0 -1.52588e-05)" d="M299.396 979.547C302.973 976.893 307.969 961.512 310.491 956.382C313.967 949.314 317.997 942.337 322.365 935.783C342.238 905.969 369.08 879.586 397.3 857.588L397.352 882.45L397.541 911.419C397.572 916.123 397.197 921.247 397.723 925.904C396.058 935.751 392.448 944.929 390.708 954.707C388.278 968.364 388.888 982.678 388.91 996.508C388.925 1005.64 388.317 1015.47 390.189 1024.44L392.228 1053.28C393.104 1057.66 395.223 1061.55 396.97 1065.62L404.431 1084.38L411.883 1106.88C412.921 1110.16 413.723 1114.56 415.459 1117.51L445.605 1210.67L453.432 1233.75C455.407 1239.32 457.803 1245.02 458.841 1250.84C461.475 1258.07 464.681 1265.62 466.132 1273.18L468.638 1280L254.149 1280C250.078 1273.58 244.781 1268.33 239.84 1262.59L218.121 1235.71C177.236 1180.28 150.669 1115.26 150.577 1045.77L299.396 979.547Z"/>
	<path fill="#124E68" transform="matrix(0.201172 0 0 0.200781 0 -1.52588e-05)" d="M299.396 979.547C302.973 976.893 307.969 961.512 310.491 956.382C313.967 949.314 317.997 942.337 322.365 935.783C342.238 905.969 369.08 879.586 397.3 857.588L397.352 882.45L397.541 911.419C397.572 916.123 397.197 921.247 397.723 925.904C396.058 935.751 392.448 944.929 390.708 954.707C388.278 968.364 388.888 982.678 388.91 996.508C388.925 1005.64 388.317 1015.47 390.189 1024.44L392.228 1053.28C393.104 1057.66 395.223 1061.55 396.97 1065.62L404.431 1084.38L411.883 1106.88C412.921 1110.16 413.723 1114.56 415.459 1117.51L445.605 1210.67L453.432 1233.75C455.407 1239.32 457.803 1245.02 458.841 1250.84C461.475 1258.07 464.681 1265.62 466.132 1273.18C462.649 1271.89 460.063 1268.18 457.549 1265.5L443.146 1250.09L417.524 1223.16L317.448 1117.81C299.12 1122.63 284.69 1132.57 271.344 1145.76C271.145 1142.82 272.621 1138.93 273.093 1135.9C271.507 1130.99 272.624 1123.13 272.878 1117.96C274.589 1083.22 281.202 1048.41 289.894 1014.8L297.079 989.778C297.97 986.84 300.198 982.341 299.396 979.547Z"/>
	<path fill="#0D2B3D" transform="matrix(0.201172 0 0 0.200781 0 -1.52588e-05)" d="M392.228 1053.28L391.914 1054.38L391.286 1054.5L388.164 1050.64C365.88 1019.2 355.071 982.047 361.844 943.735C365.438 923.405 374.63 907.424 388.034 892.062C390.889 888.79 393.777 884.943 397.352 882.45L397.541 911.419C397.572 916.123 397.197 921.247 397.723 925.904C396.058 935.751 392.448 944.929 390.708 954.707C388.278 968.364 388.888 982.678 388.91 996.508C388.925 1005.64 388.317 1015.47 390.189 1024.44L392.228 1053.28Z"/>
	<path fill="#091B27" transform="matrix(0.201172 0 0 0.200781 0 -1.52588e-05)" d="M273.093 1135.9C283.436 1107.92 310.47 1087.97 336.64 1075.88L353.449 1069C355.49 1068.23 357.933 1066.87 360.07 1066.63L435.051 1206.25L450.551 1235.76C452.833 1240.21 454.913 1246.81 458.382 1250.35L458.841 1250.84C461.475 1258.07 464.681 1265.62 466.132 1273.18C462.649 1271.89 460.063 1268.18 457.549 1265.5L443.146 1250.09L417.524 1223.16L317.448 1117.81C299.12 1122.63 284.69 1132.57 271.344 1145.76C271.145 1142.82 272.621 1138.93 273.093 1135.9Z"/>
	<path fill="#FAC088" transform="matrix(0.201172 0 0 0.200781 0 -1.52588e-05)" d="M628.066 805.835L627.089 842.737L626.636 843.59L626.264 857.266L625.947 870.891L626.035 882.227L625.116 916.008C625.1 920.711 624.688 925.852 625.188 930.514C625.475 933.183 627.367 936.295 628.41 938.773C629.951 942.432 631.108 946.134 632.011 950C635.38 964.437 635.165 979.651 635.162 994.395C635.161 1001.69 635.53 1009.13 634.219 1016.32L633.97 1018.5C634.148 1031.11 632.513 1043.33 630.463 1055.74L619.169 1086.53C615.568 1097.46 612.474 1109.94 607.303 1120.25L564.12 1247.7C561.187 1254.56 557.164 1263.18 556.095 1270.53L552.819 1280L468.638 1280L466.132 1273.18C464.681 1265.62 461.475 1258.07 458.841 1250.84C457.803 1245.02 455.407 1239.32 453.432 1233.75L445.605 1210.67L415.459 1117.51C413.723 1114.56 412.921 1110.16 411.883 1106.88L404.431 1084.38L396.97 1065.62C395.223 1061.55 393.104 1057.66 392.228 1053.28L390.189 1024.44C388.317 1015.47 388.925 1005.64 388.91 996.508C388.888 982.678 388.278 968.364 390.708 954.707C392.448 944.929 396.058 935.751 397.723 925.904C397.197 921.247 397.572 916.123 397.541 911.419L397.352 882.45L397.3 857.588C397.579 853.01 397.898 847.816 397.272 843.274C396.856 832.231 396.002 819.779 398.064 808.917L433.847 842.282L454.679 861.62C455.556 862.362 457.734 864.675 458.688 865.019C459.999 865.491 463.703 865.007 465.212 865.003L488.562 864.941L488.876 864.908L490.704 865.185L495.194 865.669C515.23 866.179 534.96 865.08 554.949 864.065C558.352 863.892 564.487 864.476 567.494 863.431C570.938 862.234 580.63 851.017 583.839 847.926L628.066 805.835Z"/>
	<path fill="#25A6B5" transform="matrix(0.201172 0 0 0.200781 0 -1.52588e-05)" d="M427.776 1082.57C445.521 1102.7 467.279 1125.57 492.679 1135.71C506.057 1141.05 519.813 1140.47 532.943 1134.75C547.493 1128.4 560.037 1118.28 571.598 1107.58C598.926 1082.3 620.347 1053.27 633.97 1018.5C634.148 1031.11 632.513 1043.33 630.463 1055.74L619.169 1086.53C615.568 1097.46 612.474 1109.94 607.303 1120.25C603.876 1121.11 593.049 1133.33 589.423 1136.78C576.204 1149.35 561.222 1160.58 545.131 1169.21C538.691 1172.67 532.044 1175.26 525.208 1177.8C521.071 1179.33 517.05 1181.18 512.574 1181.41C506.901 1181.7 501.073 1178.47 495.923 1176.45C473.768 1167.74 455.269 1155.19 437.873 1139.03L428.78 1130.05C426.506 1127.6 419.394 1118.38 416.203 1117.65L415.459 1117.51C413.723 1114.56 412.921 1110.16 411.883 1106.88L404.431 1084.38L396.97 1065.62C395.223 1061.55 393.104 1057.66 392.228 1053.28L390.189 1024.44C401.786 1045.06 411.303 1065.14 427.776 1082.57Z"/>
	<path fill="#77CDC3" transform="matrix(0.201172 0 0 0.200781 0 -1.52588e-05)" d="M415.459 1117.51L416.203 1117.65C419.394 1118.38 426.506 1127.6 428.78 1130.05L437.873 1139.03C455.269 1155.19 473.768 1167.74 495.923 1176.45C501.073 1178.47 506.901 1181.7 512.574 1181.41C517.05 1181.18 521.071 1179.33 525.208 1177.8C532.044 1175.26 538.691 1172.67 545.131 1169.21C561.222 1160.58 576.204 1149.35 589.423 1136.78C593.049 1133.33 603.876 1121.11 607.303 1120.25L564.12 1247.7C561.187 1254.56 557.164 1263.18 556.095 1270.53L552.819 1280L468.638 1280L466.132 1273.18C464.681 1265.62 461.475 1258.07 458.841 1250.84C457.803 1245.02 455.407 1239.32 453.432 1233.75L445.605 1210.67L415.459 1117.51Z"/>
	<path fill="#D58751" transform="matrix(0.201172 0 0 0.200781 0 -1.52588e-05)" d="M628.066 805.835L627.089 842.737L626.636 843.59L626.264 857.266L625.947 870.891L427.776 1082.57C411.303 1065.14 401.786 1045.06 390.189 1024.44C388.317 1015.47 388.925 1005.64 388.91 996.508C388.888 982.678 388.278 968.364 390.708 954.707C392.448 944.929 396.058 935.751 397.723 925.904C397.197 921.247 397.572 916.123 397.541 911.419L397.352 882.45L397.3 857.588C397.579 853.01 397.898 847.816 397.272 843.274C396.856 832.231 396.002 819.779 398.064 808.917L433.847 842.282L454.679 861.62C455.556 862.362 457.734 864.675 458.688 865.019C459.999 865.491 463.703 865.007 465.212 865.003L488.562 864.941L488.876 864.908L490.704 865.185L495.194 865.669C515.23 866.179 534.96 865.08 554.949 864.065C558.352 863.892 564.487 864.476 567.494 863.431C570.938 862.234 580.63 851.017 583.839 847.926L628.066 805.835Z"/>
	<path fill="#AB5F38" transform="matrix(0.201172 0 0 0.200781 0 -1.52588e-05)" d="M628.066 805.835L627.089 842.737L626.636 843.59L551.983 909.786L540.732 919.753C539.163 921.202 537.066 923.706 535.264 924.651C532.72 925.984 517.676 925.005 513.699 925.006L430.933 924.994L410.287 924.903C406.855 924.855 400.662 924.114 397.723 925.904C397.197 921.247 397.572 916.123 397.541 911.419L397.352 882.45L397.3 857.588C397.579 853.01 397.898 847.816 397.272 843.274C396.856 832.231 396.002 819.779 398.064 808.917L433.847 842.282L454.679 861.62C455.556 862.362 457.734 864.675 458.688 865.019C459.999 865.491 463.703 865.007 465.212 865.003L488.562 864.941L488.876 864.908L490.704 865.185L495.194 865.669C515.23 866.179 534.96 865.08 554.949 864.065C558.352 863.892 564.487 864.476 567.494 863.431C570.938 862.234 580.63 851.017 583.839 847.926L628.066 805.835Z"/>
	<path fill="#0D2B3D" transform="matrix(0.201172 0 0 0.200781 0 -1.52588e-05)" d="M626.264 857.266C654.656 879.514 678.7 903.289 698.06 933.978C702.207 940.552 706.519 947.526 709.898 954.527L719.36 975.069C720.284 977.063 721.508 980.74 723.298 982.039L850.401 1036.02L882.61 1049.43C894.664 1054.31 907.545 1059.12 918.166 1066.74C938.408 1081.26 953.958 1100.68 963.371 1123.75C968.236 1135.67 970.038 1148.77 971.575 1161.48L975.277 1192.5L986.007 1280L552.819 1280L556.095 1270.53C557.164 1263.18 561.187 1254.56 564.12 1247.7L607.303 1120.25C612.474 1109.94 615.568 1097.46 619.169 1086.53L630.463 1055.74C632.513 1043.33 634.148 1031.11 633.97 1018.5L634.219 1016.32C635.53 1009.13 635.161 1001.69 635.162 994.395C635.165 979.651 635.38 964.437 632.011 950C631.108 946.134 629.951 942.432 628.41 938.773C627.367 936.295 625.475 933.183 625.188 930.514C624.688 925.852 625.1 920.711 625.116 916.008L626.035 882.227L625.947 870.891L626.264 857.266Z"/>
	<path fill="#124E68" transform="matrix(0.201172 0 0 0.200781 0 -1.52588e-05)" d="M626.264 857.266C654.656 879.514 678.7 903.289 698.06 933.978C702.207 940.552 706.519 947.526 709.898 954.527L719.36 975.069C720.284 977.063 721.508 980.74 723.298 982.039C723.134 982.609 722.793 983.157 722.805 983.75C722.851 986.098 724.845 990.139 725.687 992.514L735.493 1019.8C742.169 1040.42 746.111 1061.77 749.584 1083.12C751.922 1097.5 754.483 1112.23 754.659 1126.82C754.699 1130.14 755.129 1134.6 754.088 1137.76L754.872 1141.76L754.09 1142.19L708.223 1117.38L557.949 1270.01L556.095 1270.53C557.164 1263.18 561.187 1254.56 564.12 1247.7L607.303 1120.25C612.474 1109.94 615.568 1097.46 619.169 1086.53L630.463 1055.74C632.513 1043.33 634.148 1031.11 633.97 1018.5L634.219 1016.32C635.53 1009.13 635.161 1001.69 635.162 994.395C635.165 979.651 635.38 964.437 632.011 950C631.108 946.134 629.951 942.432 628.41 938.773C627.367 936.295 625.475 933.183 625.188 930.514C624.688 925.852 625.1 920.711 625.116 916.008L626.035 882.227L625.947 870.891L626.264 857.266Z"/>
	<path fill="#0D2B3D" transform="matrix(0.201172 0 0 0.200781 0 -1.52588e-05)" d="M626.035 882.227C626.296 880.531 626.52 878.843 626.983 877.188C631.348 878.307 648.301 901.763 651.186 906.633C665.52 930.836 670.248 961.902 663.1 989.14C658.243 1007.65 649.101 1024.08 640.07 1040.77C637.767 1045.03 634.577 1052.99 630.463 1055.74C632.513 1043.33 634.148 1031.11 633.97 1018.5L634.219 1016.32C635.53 1009.13 635.161 1001.69 635.162 994.395C635.165 979.651 635.38 964.437 632.011 950C631.108 946.134 629.951 942.432 628.41 938.773C627.367 936.295 625.475 933.183 625.188 930.514C624.688 925.852 625.1 920.711 625.116 916.008L626.035 882.227Z"/>
	<path fill="#091B27" transform="matrix(0.201172 0 0 0.200781 0 -1.52588e-05)" d="M564.12 1247.7C565.25 1246.75 566.122 1245.82 566.87 1244.54C569.584 1239.89 571.68 1234.85 574.214 1230.09L597.223 1186.43L660.613 1065.98C696.84 1078.54 734.441 1104.31 754.088 1137.76L754.872 1141.76L754.09 1142.19L708.223 1117.38L557.949 1270.01L556.095 1270.53C557.164 1263.18 561.187 1254.56 564.12 1247.7Z"/>
	<defs>
		<linearGradient id="gradient_1" gradientUnits="userSpaceOnUse" x1="434.62839" y1="518.77606" x2="559.2619" y2="111.7094">
			<stop offset="0" stop-color="#311511"/>
			<stop offset="1" stop-color="#612E2A"/>
		</linearGradient>
	</defs>
	<path fill="url(#gradient_1)" transform="matrix(0.201172 0 0 0.200781 0 -1.52588e-05)" d="M225.069 418.979C221.638 418.268 218.409 416.302 215.308 414.688C197.669 405.502 183.231 391.675 172.339 375.087C165.629 364.868 160.007 353.928 155.823 342.432C151.915 331.691 149.259 320.165 145.976 309.182C160.609 321.027 174.718 329.328 194.256 327.466C213.912 325.592 231.455 314.63 243.713 299.426C249.789 291.89 254.273 283.351 258.979 274.935L283.397 232.129C325.629 165.989 392.008 114.029 471.668 105.123C529.887 98.6137 587.794 111.605 634.079 148.563C645.1 157.362 655.39 169.64 662.482 181.828C663.509 183.594 670.61 198.709 671.001 198.954C671.678 199.378 683.36 197.766 684.86 197.66C692.094 197.148 699.462 197.935 706.47 199.804C768.483 216.343 800.043 288.674 806.203 347.227C811.52 397.758 805.436 447.512 792.348 496.49L781.611 532.622C768.305 527.496 757.303 529.093 743.665 530.96L733.65 581.661L728.058 603.941C727.104 605.914 725.125 611.398 723.188 612.337C727.393 530.125 728.206 448.81 717.89 367.005C705.697 354.285 692.842 342.602 678.011 332.979C665.831 325.076 653.065 319.073 639.634 313.637L585.592 298.466L566.663 319.942C542.652 345.035 516.058 367.61 488.102 388.182L463.059 405.789C456.402 410.179 449.332 414.268 443.056 419.186C413.276 411.347 384.601 413.973 356.427 426.563C355.744 426.425 354.484 425.982 353.836 426.042C350.964 426.304 347.475 428.822 344.737 429.88L320.629 438.431C311.778 441.211 302.674 443.012 293.627 444.993L293.208 425.619C291.844 425.714 290.378 425.663 289.131 426.237C287.713 426.89 286.211 426.264 284.751 426.562C282.643 426.993 280.586 427.208 278.505 427.754C276.545 428.268 274.181 427.235 272.251 428.105C271.146 428.603 268.307 428.369 267.16 427.918L266.712 427.748L264.752 427.525C262.156 426.409 260.096 426.931 257.319 426.625C251.367 425.968 242.765 425.234 237.285 423.021C236.621 422.753 236.134 422.58 235.42 422.422C234.357 422.186 234.849 422.343 233.751 421.937L230.349 420.696C228.611 419.896 226.927 419.433 225.069 418.979Z"/>
	<path fill="#864C42" transform="matrix(0.201172 0 0 0.200781 0 -1.52588e-05)" d="M717.207 230.693C728.075 234.966 738.803 241.192 747.488 249.051C784.393 282.451 797.696 339.932 799.972 387.844L793.5 363.74C787.34 343.353 778.99 324.192 767.086 306.477C762.895 300.241 757.904 294.432 753.149 288.627L754.433 296.728C757.878 321.666 752.592 346.129 747.675 370.443C746.888 367.905 746.984 364.912 746.806 362.268L745.643 346.438C740.763 304.829 716.973 265.805 684.551 239.945C690.275 240.941 695.75 243.058 701.169 245.099C712.91 249.522 723.657 254.73 734.359 261.265C730.439 250.353 723.988 240.025 717.207 230.693Z"/>
	<path fill="#2D1310" transform="matrix(0.201172 0 0 0.200781 0 -1.52588e-05)" d="M528.979 292.239C531.508 286.971 535.058 282.232 538.323 277.397C550.072 259.996 566.402 239.336 586.846 232.289C592.592 230.309 597.686 231.194 602.998 233.872C618.24 241.555 627.205 256.189 632.273 271.989C635.484 282 637.482 292.657 638.785 303.075C639.199 306.382 640.039 310.342 639.634 313.637L585.592 298.466L528.979 292.239Z"/>
	<path fill="#864C42" transform="matrix(0.201172 0 0 0.200781 0 -1.52588e-05)" d="M493.65 128.397C505.116 127.897 516.891 129.184 528.254 130.66C561.569 134.987 595.855 145.374 622.965 165.815C629.77 170.947 637.146 177.269 642.356 184.002C636.724 181.083 631.609 177.094 625.898 174.194C613.125 167.707 597.541 162.712 583.19 161.939C573.783 161.433 564.566 162.735 555.3 164.19C556.709 165.305 560.209 165.724 562.012 166.279C565.585 167.379 569.248 168.802 572.65 170.349C580.383 173.864 587.77 178.571 594.706 183.447C564.844 183.127 536.611 190.455 510.356 204.789L497.403 213.685C507.935 198.828 522.67 185.712 536.935 174.533C527.147 168.851 517.137 164.133 506.444 160.405C472.305 148.5 434.203 148.32 399.934 159.891C389.05 163.566 378.725 168.594 368.399 173.563C375.053 167.402 382.265 162.976 389.987 158.299C422.003 138.905 456.422 130.173 493.65 128.397Z"/>
	<defs>
		<linearGradient id="gradient_2" gradientUnits="userSpaceOnUse" x1="382.44205" y1="323.29758" x2="485.7413" y2="412.08508">
			<stop offset="0" stop-color="#C46A38"/>
			<stop offset="1" stop-color="#E79558"/>
		</linearGradient>
	</defs>
	<path fill="url(#gradient_2)" transform="matrix(0.201172 0 0 0.200781 0 -1.52588e-05)" d="M528.979 292.239L585.592 298.466L566.663 319.942C542.652 345.035 516.058 367.61 488.102 388.182L463.059 405.789C456.402 410.179 449.332 414.268 443.056 419.186C413.276 411.347 384.601 413.973 356.427 426.563C355.744 426.425 354.484 425.982 353.836 426.042C350.964 426.304 347.475 428.822 344.737 429.88L320.629 438.431C311.778 441.211 302.674 443.012 293.627 444.993L293.208 425.619C294.754 424.467 299.467 424.018 301.55 423.407L322.481 416.656C347.546 407.39 370.664 394.094 391.379 377.232C385.792 389.55 379.947 402.275 370.222 411.953C367.061 415.1 363.179 417.738 359.582 420.376C374.543 415.024 389.531 409.994 404.027 403.419C443.647 385.449 479.564 357.117 507.24 323.662C511.326 318.723 515.221 313.559 518.63 308.129C522.041 302.695 524.858 297.219 528.979 292.239Z"/>
	<path fill="#FAC088" transform="matrix(0.201172 0 0 0.200781 0 -1.52588e-05)" d="M585.592 298.466L639.634 313.637C653.065 319.073 665.831 325.076 678.011 332.979C692.842 342.602 705.697 354.285 717.89 367.005C728.206 448.81 727.393 530.125 723.188 612.337C722.086 614.686 722.227 618.627 721.815 621.321L717.385 652.486L711.746 681.141C709.498 694.273 707.651 708.298 702.632 720.696C693.974 742.076 675.642 759.132 659.514 774.983L628.066 805.835L583.839 847.926C580.63 851.017 570.938 862.234 567.494 863.431C564.487 864.476 558.352 863.892 554.949 864.065C534.96 865.08 515.23 866.179 495.194 865.669L490.704 865.185L488.876 864.908L488.562 864.941L465.212 865.003C463.703 865.007 459.999 865.491 458.688 865.019C457.734 864.675 455.556 862.362 454.679 861.62L433.847 842.282L398.064 808.917L361.351 773.594C345.958 758.83 325.579 742.373 316.64 722.665C310.257 708.593 308.54 692.882 306.406 677.735C295.415 679.94 287.529 680.521 276.536 678.031C271.812 675.011 266.344 673.205 261.559 670.128C247.278 660.947 236.802 645.686 229.047 630.895C217.85 609.54 212.065 582.265 219.54 558.788C223.549 546.195 233.872 537.1 245.371 531.253C240.352 522.359 238.223 511.996 235.922 502.137C229.493 474.592 225.599 447.288 225.069 418.979C226.927 419.433 228.611 419.896 230.349 420.696L233.751 421.937C234.849 422.343 234.357 422.186 235.42 422.422C236.134 422.58 236.621 422.753 237.285 423.021C242.765 425.234 251.367 425.968 257.319 426.625C260.096 426.931 262.156 426.409 264.752 427.525L266.712 427.748L267.16 427.918C268.307 428.369 271.146 428.603 272.251 428.105C274.181 427.235 276.545 428.268 278.505 427.754C280.586 427.208 282.643 426.993 284.751 426.562C286.211 426.264 287.713 426.89 289.131 426.237C290.378 425.663 291.844 425.714 293.208 425.619L293.627 444.993C302.674 443.012 311.778 441.211 320.629 438.431L344.737 429.88C347.475 428.822 350.964 426.304 353.836 426.042C354.484 425.982 355.744 426.425 356.427 426.563C384.601 413.973 413.276 411.347 443.056 419.186C449.332 414.268 456.402 410.179 463.059 405.789L488.102 388.182C516.058 367.61 542.652 345.035 566.663 319.942L585.592 298.466Z"/>
	<path fill="#D58751" transform="matrix(0.201172 0 0 0.200781 0 -1.52588e-05)" d="M479.18 752.511C483.879 753.917 488.703 755.73 493.481 756.761C509.199 760.151 525.724 759.811 540.466 752.926C539.289 755.868 537.901 758.443 536.232 761.135L533.686 763.746C527.707 769.671 520.77 771.412 512.553 771.297C497.591 771.088 489.089 762.593 479.18 752.511Z"/>
	<path fill="#091B27" transform="matrix(0.201172 0 0 0.200781 0 -1.52588e-05)" d="M572.397 516.439C571.776 507.58 579.416 496.343 584.951 489.939C594.136 479.313 608.791 473.06 622.641 472.095C636.479 471.13 650.92 475.352 661.359 484.688C673.653 495.681 679.244 509.03 680.919 525.267L673.754 515.199C669.129 504.887 657.605 494.674 647.807 489.406C635.723 482.909 620.31 482.347 607.336 486.463C591.795 491.393 579.872 502.186 572.397 516.439Z"/>
	<path fill="#AB5F38" transform="matrix(0.201172 0 0 0.200781 0 -1.52588e-05)" d="M473.918 643.238C479.784 642.508 485.966 642.858 491.875 642.839L524.636 642.869L541.459 642.891C544.264 642.897 547.376 642.641 550.132 643.125C549.494 645.049 547.625 647.036 546.407 648.65C542.312 654.079 537.743 659.445 531.981 663.176C524.406 668.081 514.63 670.779 505.67 668.806C491.759 665.743 481.32 654.848 473.918 643.238Z"/>
	<path fill="#AB5F38" transform="matrix(0.201172 0 0 0.200781 0 -1.52588e-05)" d="M430.112 699.688L431.985 699.172L432.751 699.688C430.751 701.906 429.057 704.167 427.394 706.647C441.348 716.198 460.8 720.309 477.361 722.969C501.485 726.843 525.664 725.733 549.822 722.695C562.651 721.082 575.561 719.171 587.474 713.816C591.739 711.9 595.556 709.044 599.336 706.325L591.368 698.89L592.693 699.255C599.268 701.23 604.843 704.1 608.244 710.312L607.964 710.803C606.598 711.016 605.706 710.16 604.523 709.502C599.96 710.376 595.208 715.124 591.071 717.363C587.047 719.541 582.801 721.393 578.547 723.077C562.765 729.323 545.53 732.257 528.653 733.465C502.086 735.367 475.407 733.263 450.273 723.866C444.393 721.668 438.457 719.338 433.135 715.968C430.315 714.181 427.053 710.77 424.031 709.648C423.183 709.333 421.25 710.726 420.415 711.168L419.516 710.312C419.62 709.564 419.71 708.842 419.959 708.125C421.419 703.91 426.476 701.655 430.112 699.688Z"/>
	<path fill="#ECA66C" transform="matrix(0.201172 0 0 0.200781 0 -1.52588e-05)" d="M473.918 643.238L473.723 642.692C473.153 640.056 475.255 634.108 475.999 631.397L491.305 581.526L502.486 544.587C503.919 539.931 505.281 532.483 508.196 528.613L505.376 642.384L550.236 642.516L550.132 643.125C547.376 642.641 544.264 642.897 541.459 642.891L524.636 642.869L491.875 642.839C485.966 642.858 479.784 642.508 473.918 643.238Z"/>
	<path fill="#FED59C" transform="matrix(0.201172 0 0 0.200781 0 -1.52588e-05)" d="M508.196 528.613C508.993 522.318 509.639 515.216 511.247 509.129L544.047 615.596L548.683 630.515C549.788 633.882 551.68 637.996 551.42 641.543L550.236 642.516L505.376 642.384L508.196 528.613Z"/>
	<path fill="#4E201A" transform="matrix(0.201172 0 0 0.200781 0 -1.52588e-05)" d="M611.981 415.366C625.178 414.181 639.409 414.341 652.226 417.949C675.453 424.487 691.243 442.56 702.667 462.827C700.253 462.89 697.052 461.369 694.72 460.65C680.035 456.122 665.426 452.541 650.284 449.894C646.725 449.586 643.239 448.934 639.657 448.8C616.895 447.949 591.866 451.803 570.325 459.095C565.118 454.239 559.527 448.601 558.439 441.227C557.934 437.806 558.582 434.895 560.779 432.188C572.569 417.652 594.797 417.035 611.981 415.366Z"/>
	<path fill="#FEFEFE" transform="matrix(0.201172 0 0 0.200781 0 -1.52588e-05)" d="M349.406 533.363C349.244 528.725 349.178 523.669 350.426 519.173C353.676 507.462 362.525 496.912 373.048 490.97C385.171 484.123 399.897 482.572 413.234 486.51C428.792 491.105 441.042 502.858 448.705 516.834L449.859 519.113C451.459 531.208 449.227 541.765 441.752 551.607C434.451 561.22 421.751 568.995 409.654 570.551C394.403 572.512 379.259 568.938 367.012 559.397C360.762 554.526 355.481 548.123 352.195 540.899C351.082 538.451 350.526 535.771 349.406 533.363Z"/>
	<path fill="#091B27" transform="matrix(0.201172 0 0 0.200781 0 -1.52588e-05)" d="M374.014 504.046C376.566 499.496 380.819 495.527 385.066 492.557C391.6 487.988 400.087 486.232 407.912 487.485C413.43 488.368 418.107 491.033 422.738 494.034L421.264 497.142L417.565 495.529C409.918 491.865 399.074 493.478 391.292 496.218C388.002 497.376 384.896 498.862 381.876 500.603C379.381 502.042 376.971 503.98 374.014 504.046Z"/>
	<path fill="#763908" transform="matrix(0.201172 0 0 0.200781 0 -1.52588e-05)" d="M374.014 504.046C376.971 503.98 379.381 502.042 381.876 500.603C384.896 498.862 388.002 497.376 391.292 496.218C399.074 493.478 409.918 491.865 417.565 495.529L421.264 497.142L422.738 494.034C430.706 500.911 436.481 510.097 437.494 520.774C438.457 530.93 435.597 541.932 428.901 549.765C422.271 557.519 413.465 562.252 403.288 563.105C395.245 563.779 385.902 559.483 380.049 554.212C372.606 547.509 368.17 538.499 367.648 528.455C367.183 519.484 368.86 511.451 374.014 504.046Z"/>
	<path fill="#FEFEFE" transform="matrix(0.201172 0 0 0.200781 0 -1.52588e-05)" d="M417.565 495.529L421.264 497.142C424.291 499.502 427.555 501.824 428.136 505.938C428.492 508.461 427.512 511.463 425.882 513.374C424.377 515.137 422.631 516.287 420.662 517.478C418.448 517.443 415.596 517.613 413.579 516.616C409.391 514.545 407.52 510.526 406.255 506.283C406.239 504.534 406.382 503.198 407.287 501.659C409.793 497.394 413.1 496.64 417.565 495.529Z"/>
	<path fill="#091B27" transform="matrix(0.201172 0 0 0.200781 0 -1.52588e-05)" d="M420.662 517.478C421.681 520.547 422.171 523.956 421.713 527.168C421.075 531.638 418.943 534.933 415.238 537.525C410.793 540.634 405.953 541.325 400.716 540.136C396.321 539.138 392.339 535.816 390.107 531.961C388.064 528.433 387.355 522.71 388.57 518.742C390.019 514.009 392.269 510.316 396.777 507.971C399.925 506.333 402.859 505.137 406.255 506.283C407.52 510.526 409.391 514.545 413.579 516.616C415.596 517.613 418.448 517.443 420.662 517.478Z"/>
	<path fill="#FEFEFE" transform="matrix(0.201172 0 0 0.200781 0 -1.52588e-05)" d="M572.397 516.439C579.872 502.186 591.795 491.393 607.336 486.463C620.31 482.347 635.723 482.909 647.807 489.406C657.605 494.674 669.129 504.887 673.754 515.199C674.034 522.665 673.724 529.849 671.212 536.953C666.514 550.238 656.811 560.792 644.025 566.771C631.479 572.638 615.892 572.999 602.96 568.151C590.893 563.627 580.089 553.841 574.768 542.075C571.061 533.878 569.166 525.058 572.397 516.439Z"/>
	<path fill="#091B27" transform="matrix(0.201172 0 0 0.200781 0 -1.52588e-05)" d="M589.771 507.426C592.183 502.16 594.967 498.117 599.209 494.103C605.559 488.094 614.564 485.969 623.071 486.203C632.984 486.477 640.618 492.382 647.136 499.298L646.446 499.975L637.091 495.753C626.537 492.544 611.248 493.924 601.464 499.251C597.447 501.438 594.365 505.182 590.63 507.85L589.771 507.426Z"/>
	<path fill="#763908" transform="matrix(0.201172 0 0 0.200781 0 -1.52588e-05)" d="M589.771 507.426L590.63 507.85C594.365 505.182 597.447 501.438 601.464 499.251C611.248 493.924 626.537 492.544 637.091 495.753L646.446 499.975L647.136 499.298C653.951 509.148 658.217 521.046 656.009 533.14C654.209 542.997 649.308 551.459 640.857 557.106C632.935 562.401 624.375 564.651 614.939 562.775C605.446 560.887 596.897 554.347 591.653 546.35C585.649 537.195 584.79 525.658 587.079 515.169C587.674 512.445 588.664 509.975 589.771 507.426Z"/>
	<path fill="#FEFEFE" transform="matrix(0.201172 0 0 0.200781 0 -1.52588e-05)" d="M637.091 495.753L646.446 499.975C648.513 503.504 649.575 506.094 648.356 510.276C647.36 513.69 644.451 516.104 641.381 517.657L640.171 518.176C637.465 518.232 634.85 517.822 632.486 516.407C628.838 514.224 627.952 510.586 626.923 506.775C626.947 505.664 627.061 504.463 627.518 503.438C629.483 499.02 632.911 497.436 637.091 495.753Z"/>
	<path fill="#091B27" transform="matrix(0.201172 0 0 0.200781 0 -1.52588e-05)" d="M640.171 518.176C641.356 521.096 640.327 526.583 639.244 529.515L638.932 530.312C638.635 531.11 638.384 531.896 637.961 532.642C635.669 536.693 631.294 539.283 626.94 540.501C621.73 541.959 616.763 541.34 612.089 538.583C608.752 536.615 605.366 532.654 604.46 528.844L604.313 528.163C603.475 524.516 603.431 520.312 604.772 516.779L605.108 515.938C606.063 513.399 607.18 511.886 609.149 510.061C613.904 505.653 619.274 504.867 625.465 505.067L626.923 506.775C627.952 510.586 628.838 514.224 632.486 516.407C634.85 517.822 637.465 518.232 640.171 518.176Z"/>
	<path fill="#ECA66C" transform="matrix(0.201172 0 0 0.200781 0 -1.52588e-05)" d="M356.427 426.563C384.601 413.973 413.276 411.347 443.056 419.186C449.736 422.289 460.813 426.966 463.368 434.561C464.74 438.642 463.435 443.178 461.499 446.844C459.685 450.278 456.746 453.368 454.157 456.239C461.354 468.699 467.821 481.3 471.421 495.312C472.924 501.161 473.979 507.016 472.374 512.979C471.198 517.353 468.219 519.856 464.413 521.946C462.205 523.159 452.827 519.771 449.859 519.113L448.705 516.834C441.042 502.858 428.792 491.105 413.234 486.51C399.897 482.572 385.171 484.123 373.048 490.97C362.525 496.912 353.676 507.462 350.426 519.173C349.178 523.669 349.244 528.725 349.406 533.363C346.263 528.609 346.733 522.08 346.558 516.58C343.281 513.09 342.017 505.191 341.586 500.545C339.883 482.206 345.752 470.04 357.085 456.126C348.538 457.976 341.92 461.375 333.928 464.571C330.763 465.836 325.431 466.97 323.031 469.513C322.169 470.427 322.512 473.944 322.479 475.31C321.274 470.915 322.021 465.169 322.116 460.625C323.288 459.466 323.964 458.997 325.518 458.449L325.637 457.743C326.262 454.981 328.669 452.434 330.369 450.245C338.063 440.334 346.143 433.638 356.427 426.563Z"/>
	<path fill="#091B27" transform="matrix(0.201172 0 0 0.200781 0 -1.52588e-05)" d="M346.558 516.58C347.188 512.702 347.954 508.785 349.302 505.087C354.159 491.76 363.963 482.85 376.632 476.998C388.131 471.686 403.324 470.804 415.18 475.383C429.336 480.85 440.673 490.858 446.759 504.864C448.321 508.458 450.174 513.067 448.705 516.834C441.042 502.858 428.792 491.105 413.234 486.51C399.897 482.572 385.171 484.123 373.048 490.97C362.525 496.912 353.676 507.462 350.426 519.173C349.178 523.669 349.244 528.725 349.406 533.363C346.263 528.609 346.733 522.08 346.558 516.58Z"/>
	<path fill="#4E201A" transform="matrix(0.201172 0 0 0.200781 0 -1.52588e-05)" d="M356.427 426.563C384.601 413.973 413.276 411.347 443.056 419.186C449.736 422.289 460.813 426.966 463.368 434.561C464.74 438.642 463.435 443.178 461.499 446.844C459.685 450.278 456.746 453.368 454.157 456.239L451.673 458.685C446.721 458.571 441.488 455.561 436.653 454.292C431.242 452.873 425.714 451.965 420.205 451.015C412.134 449.623 404.11 448.697 395.904 448.766C382.797 448.876 369.736 451.3 356.78 453.074C346.595 454.468 335.289 455.167 325.518 458.449L325.637 457.743C326.262 454.981 328.669 452.434 330.369 450.245C338.063 440.334 346.143 433.638 356.427 426.563Z"/>
	<path fill="#D58751" transform="matrix(0.201172 0 0 0.200781 0 -1.52588e-05)" d="M225.069 418.979C226.927 419.433 228.611 419.896 230.349 420.696L233.751 421.937C234.849 422.343 234.357 422.186 235.42 422.422C236.134 422.58 236.621 422.753 237.285 423.021C242.765 425.234 251.367 425.968 257.319 426.625C260.096 426.931 262.156 426.409 264.752 427.525L266.712 427.748L267.16 427.918C268.307 428.369 271.146 428.603 272.251 428.105C274.181 427.235 276.545 428.268 278.505 427.754C280.586 427.208 282.643 426.993 284.751 426.562C286.211 426.264 287.713 426.89 289.131 426.237C290.378 425.663 291.844 425.714 293.208 425.619L293.627 444.993C302.674 443.012 311.778 441.211 320.629 438.431L344.737 429.88C347.475 428.822 350.964 426.304 353.836 426.042C354.484 425.982 355.744 426.425 356.427 426.563C346.143 433.638 338.063 440.334 330.369 450.245C328.669 452.434 326.262 454.981 325.637 457.743L325.518 458.449C323.964 458.997 323.288 459.466 322.116 460.625C322.021 465.169 321.274 470.915 322.479 475.31C326.255 538.476 334.272 602.589 348.669 664.253C352.809 681.985 357.075 700.473 364.409 717.161C368.307 726.032 374.121 734.16 379.572 742.141L406.271 779.041L431.856 811.678C443.044 825.773 454.587 839.841 468.051 851.849C472.278 855.619 476.821 858.378 481.771 861.07C483.939 862.249 487.013 863.36 488.876 864.908L488.562 864.941L465.212 865.003C463.703 865.007 459.999 865.491 458.688 865.019C457.734 864.675 455.556 862.362 454.679 861.62L433.847 842.282L398.064 808.917L361.351 773.594C345.958 758.83 325.579 742.373 316.64 722.665C310.257 708.593 308.54 692.882 306.406 677.735C295.415 679.94 287.529 680.521 276.536 678.031C271.812 675.011 266.344 673.205 261.559 670.128C247.278 660.947 236.802 645.686 229.047 630.895C217.85 609.54 212.065 582.265 219.54 558.788C223.549 546.195 233.872 537.1 245.371 531.253C240.352 522.359 238.223 511.996 235.922 502.137C229.493 474.592 225.599 447.288 225.069 418.979Z"/>
	<path fill="#864C42" transform="matrix(0.201172 0 0 0.200781 0 -1.52588e-05)" d="M299.597 641.23L300.594 647.167L300.029 647.152C290.389 646.24 280.227 637.93 273.965 631.112C265.792 622.214 260.7 611.462 261.336 599.259C261.942 587.604 269.511 577.989 277.828 570.503C273.283 567.541 265.088 565.125 259.697 565.918L258.813 566.066L256.957 566.387C246.61 568.622 240.444 578.785 235.34 587.123L237.402 578.23C239.458 570.794 243.197 561.204 250.368 557.274C258.245 552.958 267.775 555.632 275.067 559.971C277.178 561.226 279.767 563.583 282.118 564.174L282.828 564.333L287.368 583.015C290.283 593.216 293.375 603.204 298.18 612.718L296.995 613.46L299.597 641.23Z"/>
	<path fill="#AB5F38" transform="matrix(0.201172 0 0 0.200781 0 -1.52588e-05)" d="M299.597 641.23C297.408 639.805 294.955 638.838 292.767 637.39C286.937 633.529 282.299 628.86 278.288 623.121C273.905 616.849 270.864 608.808 272.333 601.099C273.91 592.819 280.817 587.49 287.368 583.015C290.283 593.216 293.375 603.204 298.18 612.718L296.995 613.46L299.597 641.23Z"/>
	<path fill="#2D1310" transform="matrix(0.201172 0 0 0.200781 0 -1.52588e-05)" d="M267.16 427.918C268.307 428.369 271.146 428.603 272.251 428.105C274.181 427.235 276.545 428.268 278.505 427.754C280.586 427.208 282.643 426.993 284.751 426.562C286.211 426.264 287.713 426.89 289.131 426.237C290.378 425.663 291.844 425.714 293.208 425.619L293.627 444.993L299.387 611.546L298.18 612.718C293.375 603.204 290.283 593.216 287.368 583.015L282.828 564.333L277.098 528.907L267.16 427.918Z"/>
	<path fill="#4E201A" transform="matrix(0.201172 0 0 0.200781 0 -1.52588e-05)" d="M225.069 418.979C226.927 419.433 228.611 419.896 230.349 420.696L233.751 421.937C234.849 422.343 234.357 422.186 235.42 422.422C236.134 422.58 236.621 422.753 237.285 423.021C242.765 425.234 251.367 425.968 257.319 426.625C260.096 426.931 262.156 426.409 264.752 427.525L266.712 427.748L267.16 427.918L277.098 528.907C265.954 527.651 256.166 527.838 245.371 531.253C240.352 522.359 238.223 511.996 235.922 502.137C229.493 474.592 225.599 447.288 225.069 418.979Z"/>
</svg>
