<?xml version="1.0" encoding="utf-8" ?>
<svg xmlns="http://www.w3.org/2000/svg" xmlns:xlink="http://www.w3.org/1999/xlink" width="206" height="257">
	<path fill="#2CA0A3" transform="matrix(0.201172 0 0 0.200781 0 -1.52588e-05)" d="M-0 -0L1024 0L1024 1280L-0 1280L0 -0Z"/>
	<path fill="#1E1B1C" transform="matrix(0.201172 0 0 0.200781 0 -1.52588e-05)" d="M763.617 548.682C768.069 551.124 770.947 562.791 773.245 567.488C774.855 571.241 776.469 574.716 778.845 578.064L780.584 584.256C773.009 577.214 767.331 569.975 761.749 561.343L763.617 548.682Z"/>
	<path fill="#443130" transform="matrix(0.201172 0 0 0.200781 0 -1.52588e-05)" d="M744.251 411.163C749.775 412.612 755.913 411.965 761.59 412.029C767.103 412.09 772.802 412.778 778.188 413.943C784.007 415.202 790.208 416.85 795.744 419.062C799.933 420.736 804.399 424.289 808.795 424.762L809.482 424.877C817.975 449.448 818.528 470.536 810.847 495.326C808.054 490.424 804.061 481.714 799.418 478.685C797.652 475.438 797.157 470.699 796.185 467.123C795.336 464 793.873 460.693 792.551 457.726C786.367 443.849 776.007 431.472 763.275 423.125C756.965 418.988 750.381 415.664 744.251 411.163Z"/>
	<path fill="#672534" transform="matrix(0.201172 0 0 0.200781 0 -1.52588e-05)" d="M729.935 608.666C739.787 599.116 747.43 588.701 755.254 577.462C759.689 622.378 752.802 668.895 725.041 705.594C724.067 700.146 726.221 694.102 726.542 688.566C726.898 682.425 726.632 676.326 726.279 670.193C725.853 665.321 726.182 660.128 726.202 655.227C726.233 647.669 726.127 639.945 726.839 632.419C727.155 629.082 727.333 625.578 728.057 622.304C729.096 617.61 730.815 613.564 729.935 608.666Z"/>
	<path fill="#1E1B1C" transform="matrix(0.201172 0 0 0.200781 0 -1.52588e-05)" d="M678.629 681.134C682.105 685.03 683.735 690.261 684.589 695.312L684.756 696.207C685.615 701.045 685.437 706.307 685.369 711.212C685.247 720.036 684.686 729.037 682.99 737.712C681.66 744.514 678.26 752.059 679.165 759.037L672.175 765.757L668.786 731.676C656.778 753.839 642.715 775.724 618.784 786.462L618.374 786.184L618.127 780.351L618.034 748.909C621.068 747.63 625.404 743.175 627.956 740.94C647.903 723.48 664.763 703.719 678.629 681.134Z"/>
	<path fill="#481E1F" transform="matrix(0.201172 0 0 0.200781 0 -1.52588e-05)" d="M709.109 623.057L729.935 608.666C730.815 613.564 729.096 617.61 728.057 622.304C727.333 625.578 727.155 629.082 726.839 632.419C726.127 639.945 726.233 647.669 726.202 655.227C726.182 660.128 725.853 665.321 726.279 670.193C726.632 676.326 726.898 682.425 726.542 688.566C726.221 694.102 724.067 700.146 725.041 705.594C724.401 707.525 723.052 709.262 721.739 710.803C719.62 713.29 717.37 715.814 714.003 716.089C711.642 711.989 714.694 701.59 715.177 696.811L713.699 698.166C706.556 721.034 695.907 741.731 679.165 759.037C678.26 752.059 681.66 744.514 682.99 737.712C684.686 729.037 685.247 720.036 685.369 711.212C685.437 706.307 685.615 701.045 684.756 696.207L684.589 695.312C683.735 690.261 682.105 685.03 678.629 681.134C685.775 663.99 690.646 647.001 694.839 628.929C699.698 627.409 704.905 626.019 709.109 623.057Z"/>
	<path fill="#672534" transform="matrix(0.201172 0 0 0.200781 0 -1.52588e-05)" d="M713.699 698.166C709.261 700.308 708.185 705.142 705.198 708.745C702.974 711.428 699.818 713.798 697.183 716.095C698.464 705.438 702.187 695.352 703.703 684.785C706.389 666.063 705.486 646.786 705.206 627.924L705.519 628.207C706.848 629.61 707.858 631.868 708.789 633.561C711.606 638.682 714.042 644.148 715.49 649.824L716.452 649.318C721.735 654.865 721.878 664.023 726.279 670.193C726.632 676.326 726.898 682.425 726.542 688.566C726.221 694.102 724.067 700.146 725.041 705.594C724.401 707.525 723.052 709.262 721.739 710.803C719.62 713.29 717.37 715.814 714.003 716.089C711.642 711.989 714.694 701.59 715.177 696.811L713.699 698.166Z"/>
	<path fill="#1E1B1C" transform="matrix(0.201172 0 0 0.200781 0 -1.52588e-05)" d="M715.49 649.824L716.452 649.318C721.735 654.865 721.878 664.023 726.279 670.193C726.632 676.326 726.898 682.425 726.542 688.566C726.221 694.102 724.067 700.146 725.041 705.594C724.401 707.525 723.052 709.262 721.739 710.803C719.62 713.29 717.37 715.814 714.003 716.089C711.642 711.989 714.694 701.59 715.177 696.811C718.63 682.457 717.91 664.266 715.49 649.824Z"/>
	<path fill="#1E1B1C" transform="matrix(0.201172 0 0 0.200781 0 -1.52588e-05)" d="M781.663 364.318C797.872 361.122 812.558 354.991 827.53 348.275C836.932 344.058 845.642 340.438 854.037 334.295C861.618 328.749 868.322 319.988 876.783 316.15C857.339 351.245 821.062 371.438 787.217 390.226C795.688 400.925 804.846 411.845 809.482 424.877L808.795 424.762C804.399 424.289 799.933 420.736 795.744 419.062C790.208 416.85 784.007 415.202 778.188 413.943C772.802 412.778 767.103 412.09 761.59 412.029C755.913 411.965 749.775 412.612 744.251 411.163L710.745 410.903L710.907 376.791C716.534 377.741 722.503 377.732 728.205 377.832C740.129 378.04 753.471 377.997 764.678 373.514C770.675 371.114 775.59 366.839 781.663 364.318Z"/>
	<path fill="#1E1B1C" transform="matrix(0.201172 0 0 0.200781 0 -1.52588e-05)" d="M169.221 591.486C173.52 586.916 181.675 583.958 187.06 580.359C198.936 572.422 209.724 562.783 219.262 552.187C228.451 541.98 235.625 529.87 239.299 516.588C240.467 512.363 241.234 507.995 241.934 503.673C242.193 502.074 242.549 498.066 243.508 496.811C245.94 493.626 252.552 490.783 256 488.519L270.234 478.216C283.632 467.894 294.162 455.321 306.012 443.477L307.278 443.774L302.545 461.875C301.051 468.536 300.466 475.001 297.505 481.238C300.043 484.9 299.248 490.883 299.679 495.312C300.025 498.872 300.822 502.329 301.745 505.776L308.975 531.42C310.166 535.67 311.076 541.052 313.78 544.571C314.505 544.117 314.226 544.339 314.656 543.959C316.147 549.202 315.834 556.055 316.352 561.538L320.884 608.794L323.891 627.093C324.406 636.261 326.356 644.977 328.398 653.899C329.574 659.034 330.512 664.362 332.781 669.149C336.747 677.516 343.205 684.664 349.326 691.522L369.418 713.874C378.642 724.171 387.441 735.171 397.748 744.404C399.435 745.915 400.879 747.432 403.095 748.112L403.423 779.952L403.364 784.688L402.598 785.384L395.167 783.479C388.93 781.274 383.384 777.63 377.963 773.896C366.736 766.164 357.79 755.46 353.524 742.404C352.048 737.887 351.352 732.965 350.498 728.296C348.075 730.464 345.64 736.889 344.889 740.1C341.54 754.419 351.765 768.361 358.85 779.877C346.187 773.787 334.915 766.091 323.795 757.56C320.86 756.19 318.169 753.841 315.768 751.7C300.764 738.316 288.613 719.512 284.545 699.688C283.406 694.14 283.17 688.375 282.841 682.732C265.347 699.136 244.711 709.11 220.366 708.626L219.289 707.822L220.056 706.201C221.183 703.413 223.746 700.811 225.589 698.439C228.427 694.786 230.994 690.969 233.158 686.875C245.964 662.659 246.289 631.97 234.754 607.292C232.945 603.423 230.7 600.026 228.242 596.544C227.114 594.946 224.999 592.482 224.552 590.571C224.221 589.154 225.18 588.149 225.856 586.975C226.533 584.815 227.863 582.419 227.087 580.276C208.382 585.237 188.632 590.589 169.221 591.486Z"/>
	<path fill="#443130" transform="matrix(0.201172 0 0 0.200781 0 -1.52588e-05)" d="M282.841 682.732L291.381 667.344L300.073 668.616L300.881 668.797C309.178 670.736 317.204 675.562 323.223 681.518L323.093 682.475C320.054 705.617 325.663 731.118 336.57 751.581C339.157 756.435 342.584 760.957 345.455 765.662L335.584 761.507C332.023 759.796 328.525 757.152 324.487 757.53L323.795 757.56C320.86 756.19 318.169 753.841 315.768 751.7C300.764 738.316 288.613 719.512 284.545 699.688C283.406 694.14 283.17 688.375 282.841 682.732Z"/>
	<path fill="#443130" transform="matrix(0.201172 0 0 0.200781 0 -1.52588e-05)" d="M225.856 586.975L226.464 586.933C234.348 586.279 242.037 579.176 248.663 575.134C265.191 590.711 278.021 612.089 278.766 635.312C279.325 652.757 272.85 669.567 260.81 682.193C253.688 689.662 244.969 694.944 235.934 699.776C230.649 702.603 226.045 705.238 220.056 706.201C221.183 703.413 223.746 700.811 225.589 698.439C228.427 694.786 230.994 690.969 233.158 686.875C245.964 662.659 246.289 631.97 234.754 607.292C232.945 603.423 230.7 600.026 228.242 596.544C227.114 594.946 224.999 592.482 224.552 590.571C224.221 589.154 225.18 588.149 225.856 586.975Z"/>
	<path fill="#EB9261" transform="matrix(0.201172 0 0 0.200781 0 -1.52588e-05)" d="M297.505 481.238C300.043 484.9 299.248 490.883 299.679 495.312C300.025 498.872 300.822 502.329 301.745 505.776L308.975 531.42C310.166 535.67 311.076 541.052 313.78 544.571C314.505 544.117 314.226 544.339 314.656 543.959C316.147 549.202 315.834 556.055 316.352 561.538L320.884 608.794L323.891 627.093C300.681 621.284 281.685 603.106 269.373 583.125C257.772 564.298 252.362 545.219 257.734 523.345C262.588 503.577 281.167 491.176 297.505 481.238Z"/>
	<path fill="#C66848" transform="matrix(0.201172 0 0 0.200781 0 -1.52588e-05)" d="M301.745 505.776L308.975 531.42C310.166 535.67 311.076 541.052 313.78 544.571C314.505 544.117 314.226 544.339 314.656 543.959C316.147 549.202 315.834 556.055 316.352 561.538L320.884 608.794C316.243 605.566 312.256 601.2 308.255 597.228C301.476 590.499 294.71 583.705 289.089 575.947C280.974 564.748 274.375 550.735 276.705 536.547L276.862 535.625C278.739 524.268 285.036 516.525 294.627 510.368C296.667 509.058 299.793 508.015 301.392 506.257L301.745 505.776Z"/>
	<path fill="#672534" transform="matrix(0.201172 0 0 0.200781 0 -1.52588e-05)" d="M403.095 748.112C407.568 749.591 412.428 754.155 415.414 757.751C425.157 766.476 435.511 774.569 446.278 781.995C461.309 792.362 475.257 800.683 494.12 801.998C507.007 803.921 522.552 804.711 535.233 801.777C550.942 798.142 564.632 788.771 577.469 779.425L595.654 766.091C603.21 760.192 609.512 753.53 618.034 748.909L618.127 780.351L618.374 786.184L618.784 786.462C619.946 789.023 624.812 790.899 627.238 792.416C632.054 795.428 636.892 798.549 641.412 801.988C654.06 811.612 665.588 822.381 675.666 834.688C685.397 846.571 693.781 860.457 699.794 874.583C701.916 879.569 703.131 884.817 704.553 890.029C705.535 893.628 706.467 897.679 708.928 900.581L730.354 909.778L787.977 938.363C822.33 955.503 860.553 971.868 888.043 999.412C900.195 1011.59 909.499 1027.14 915.698 1043.09C923.891 1064.17 926.351 1087.19 930.044 1109.36L942.957 1186.57L851.035 1201.73L823.133 1206.59L748.532 1218.33L596.481 1242.35L541.414 1251.45C531.258 1253.11 520.923 1255.59 510.605 1255.65C499.135 1255.71 487.718 1252.38 476.489 1250.41L428.855 1242.65L205.25 1207.24L77.8933 1187.41C78.3333 1179.96 80.1395 1172.46 81.5288 1165.14L86.3753 1138.1C91.7445 1108.68 95.3442 1077.78 104.676 1049.35C112.417 1025.76 128.026 1002.84 147.215 987.11C171.03 967.587 199.639 955.652 226.873 941.91L315.03 897.632L315.117 897.248C317.219 892.463 317.898 887.209 319.354 882.188C320.833 877.087 323.125 872.166 325.317 867.34C335.465 844.998 351.707 824.809 369.164 807.714L395.167 783.479L402.598 785.384L403.364 784.688L403.423 779.952L403.095 748.112Z"/>
	<path fill="#481E1F" transform="matrix(0.201172 0 0 0.200781 0 -1.52588e-05)" d="M629.849 1005.96C643.465 1020.74 656.493 1035.92 668.121 1052.34L683.583 1076.05C683.234 1077.91 683.44 1079.21 682.042 1080.55C674.641 1077.57 666.793 1070.52 660.22 1065.79L611.321 1030.01L629.849 1005.96Z"/>
	<path fill="#481E1F" transform="matrix(0.201172 0 0 0.200781 0 -1.52588e-05)" d="M823.133 1206.59L822.943 1206.05C821.431 1202.29 822.272 1196.79 822.819 1192.87C824.997 1177.25 830.046 1161.78 834.309 1146.62L849.864 1091.18L851.035 1201.73L823.133 1206.59Z"/>
	<path fill="#477F9D" transform="matrix(0.201172 0 0 0.200781 0 -1.52588e-05)" d="M618.374 786.184L618.784 786.462C619.946 789.023 624.812 790.899 627.238 792.416C632.054 795.428 636.892 798.549 641.412 801.988C654.06 811.612 665.588 822.381 675.666 834.688C685.397 846.571 693.781 860.457 699.794 874.583C701.916 879.569 703.131 884.817 704.553 890.029C705.535 893.628 706.467 897.679 708.928 900.581C707.168 902.577 707.599 905.19 707.771 907.812C708.483 918.689 710.525 929.326 710.758 940.312C711.568 978.566 704.669 1016.15 692.422 1052.32C689.773 1060.15 687.113 1068.6 683.583 1076.05L668.121 1052.34C656.493 1035.92 643.465 1020.74 629.849 1005.96L616.207 994.747L639.906 947.531C646.687 932.763 652.485 917.006 656.613 901.289C661.507 882.656 665.178 863.794 658.116 845.14C652.974 831.559 642.484 819.951 632.313 809.876C628.001 805.604 623.638 800.981 618.043 798.45C617.757 794.459 618.227 790.195 618.374 786.184Z"/>
	<path fill="#275376" transform="matrix(0.201172 0 0 0.200781 0 -1.52588e-05)" d="M618.043 798.45C623.638 800.981 628.001 805.604 632.313 809.876C642.484 819.951 652.974 831.559 658.116 845.14C665.178 863.794 661.507 882.656 656.613 901.289C652.485 917.006 646.687 932.763 639.906 947.531L616.207 994.747L629.849 1005.96L611.321 1030.01L610.831 1030.02L553.82 1099.8L529.838 1129.52C523.946 1136.88 518.5 1145.75 510.856 1151.36C510.883 1148.4 511.393 1145.44 511.787 1142.51L510.916 1103.12L509.45 1101.9C510.464 1101.67 511.218 1101.46 511.807 1100.52C514.088 1096.87 515.178 1091.33 516.361 1087.19L521.489 1071.43C525.976 1058.67 531.562 1046.11 537.937 1034.19L566.908 985.145L606.389 915.932L619.902 893.161C623.055 888.132 626.815 883.173 629.315 877.792C632.281 871.406 633.105 861.741 631.339 854.869C630.799 852.767 621.244 848.183 618.939 846.838L618.043 798.45Z"/>
	<path fill="#163756" transform="matrix(0.201172 0 0 0.200781 0 -1.52588e-05)" d="M596.599 985.312C601.279 984.596 611.778 992.326 615.701 994.892C611.427 1004.61 606.43 1012.15 599.209 1019.97C597.003 1019.32 594.519 1019.19 592.24 1019.5C567.959 1022.8 548.813 1043.64 534.774 1062.2L525.822 1075C530.064 1061.96 538.355 1049.7 546.226 1038.61C556.789 1023.72 568.097 1009.92 581.606 997.589C586.307 993.298 591.212 988.715 596.599 985.312Z"/>
	<path fill="#606E95" transform="matrix(0.201172 0 0 0.200781 0 -1.52588e-05)" d="M511.787 1142.51L599.072 1020.45L610.831 1030.02L553.82 1099.8L529.838 1129.52C523.946 1136.88 518.5 1145.75 510.856 1151.36C510.883 1148.4 511.393 1145.44 511.787 1142.51Z"/>
	<path fill="#481E1F" transform="matrix(0.201172 0 0 0.200781 0 -1.52588e-05)" d="M315.03 897.632L315.092 898.234C315.661 904.52 313.948 910.701 313.126 916.895C312.305 923.094 311.983 929.271 311.966 935.52C311.882 966.345 319.627 994.863 326.477 1024.63C328.577 1033.76 329.555 1044.29 333.738 1052.71C336.86 1058.14 341.618 1062.84 345.808 1067.48L370.222 1029.26C374.911 1021.7 378.482 1013.07 384.593 1006.49C388.199 1002.61 392.535 1000.52 397.213 998.233L421.46 982.454C428.444 987.671 434.084 994.165 440.017 1000.5C463.516 1025.58 482.698 1052.69 498.382 1083.33L504.503 1095.82C505.112 1097.18 506.575 1101.11 507.823 1101.67C508.322 1101.89 508.907 1101.82 509.45 1101.9L510.916 1103.12L511.787 1142.51C511.393 1145.44 510.883 1148.4 510.856 1151.36L510.142 1151.89L506.929 1163.23L388.578 1048.94L340.891 1087.45L330.874 1050.49L229.722 1134.63L204.112 1155.98C200.628 1158.88 196.016 1161.85 193.204 1165.37L201.156 1192.27C202.537 1197.02 204.675 1202.39 205.25 1207.24L77.8933 1187.41C78.3333 1179.96 80.1395 1172.46 81.5288 1165.14L86.3753 1138.1C91.7445 1108.68 95.3442 1077.78 104.676 1049.35C112.417 1025.76 128.026 1002.84 147.215 987.11C171.03 967.587 199.639 955.652 226.873 941.91L315.03 897.632Z"/>
	<path fill="#163756" transform="matrix(0.201172 0 0 0.200781 0 -1.52588e-05)" d="M397.213 998.233L421.46 982.454C428.444 987.671 434.084 994.165 440.017 1000.5C463.516 1025.58 482.698 1052.69 498.382 1083.33L504.503 1095.82C505.112 1097.18 506.575 1101.11 507.823 1101.67C508.322 1101.89 508.907 1101.82 509.45 1101.9L510.916 1103.12L511.787 1142.51C511.393 1145.44 510.883 1148.4 510.856 1151.36L510.142 1151.89C506.544 1149.41 504.032 1145.25 501.504 1141.78L489.043 1124.23L468.377 1095.52L397.213 998.233Z"/>
	<path fill="#C66848" transform="matrix(0.201172 0 0 0.200781 0 -1.52588e-05)" d="M403.095 748.112C407.568 749.591 412.428 754.155 415.414 757.751C425.157 766.476 435.511 774.569 446.278 781.995C461.309 792.362 475.257 800.683 494.12 801.998C507.007 803.921 522.552 804.711 535.233 801.777C550.942 798.142 564.632 788.771 577.469 779.425L595.654 766.091C603.21 760.192 609.512 753.53 618.034 748.909L618.127 780.351L618.374 786.184C618.227 790.195 617.757 794.459 618.043 798.45L618.939 846.838C621.244 848.183 630.799 852.767 631.339 854.869C633.105 861.741 632.281 871.406 629.315 877.792C626.815 883.173 623.055 888.132 619.902 893.161L606.389 915.932L566.908 985.145L537.937 1034.19C531.562 1046.11 525.976 1058.67 521.489 1071.43L516.361 1087.19C515.178 1091.33 514.088 1096.87 511.807 1100.52C511.218 1101.46 510.464 1101.67 509.45 1101.9C508.907 1101.82 508.322 1101.89 507.823 1101.67C506.575 1101.11 505.112 1097.18 504.503 1095.82L498.382 1083.33C482.698 1052.69 463.516 1025.58 440.017 1000.5C434.084 994.165 428.444 987.671 421.46 982.454L397.213 998.233C392.535 1000.52 388.199 1002.61 384.593 1006.49C378.482 1013.07 374.911 1021.7 370.222 1029.26L345.808 1067.48C341.618 1062.84 336.86 1058.14 333.738 1052.71C329.555 1044.29 328.577 1033.76 326.477 1024.63C319.627 994.863 311.882 966.345 311.966 935.52C311.983 929.271 312.305 923.094 313.126 916.895C313.948 910.701 315.661 904.52 315.092 898.234L315.03 897.632L315.117 897.248C317.219 892.463 317.898 887.209 319.354 882.188C320.833 877.087 323.125 872.166 325.317 867.34C335.465 844.998 351.707 824.809 369.164 807.714L395.167 783.479L402.598 785.384L403.364 784.688L403.423 779.952L403.095 748.112Z"/>
	<path fill="#FDA56B" transform="matrix(0.201172 0 0 0.200781 0 -1.52588e-05)" d="M403.095 748.112C407.568 749.591 412.428 754.155 415.414 757.751C414.406 761.635 413.71 765.431 413.459 769.441C413.067 775.674 413.856 781.98 413.731 788.231C413.556 797.04 411.341 842.595 405.17 847.069L404.739 847.304L404.093 845.127L403.884 793.464L403.423 779.952L403.095 748.112Z"/>
	<path fill="#163756" transform="matrix(0.201172 0 0 0.200781 0 -1.52588e-05)" d="M403.423 779.952L403.884 793.464L404.093 845.127L403.927 848.438C399.892 851.805 394.875 853.792 390.403 856.509C392.179 867.869 393.835 879.45 398.064 890.207C405.006 907.865 418.919 923.296 428.051 939.989C411.705 951.431 399.524 969.41 387.218 984.856L348.962 1033.1L333.738 1052.71C329.555 1044.29 328.577 1033.76 326.477 1024.63C319.627 994.863 311.882 966.345 311.966 935.52C311.983 929.271 312.305 923.094 313.126 916.895C313.948 910.701 315.661 904.52 315.092 898.234L315.03 897.632L315.117 897.248C317.219 892.463 317.898 887.209 319.354 882.188C320.833 877.087 323.125 872.166 325.317 867.34C335.465 844.998 351.707 824.809 369.164 807.714L395.167 783.479L402.598 785.384L403.364 784.688L403.423 779.952Z"/>
	<path fill="#275376" transform="matrix(0.201172 0 0 0.200781 0 -1.52588e-05)" d="M403.423 779.952L403.884 793.464C397.171 797.711 391.391 804.075 385.731 809.648C363.879 831.165 344.392 854.718 337.486 885.449C334.492 898.778 334.112 912.586 334.442 926.186C335.129 954.489 340.133 983.273 344.353 1011.25L346.43 1025.95C346.74 1027.77 347.115 1030.69 348.142 1032.23C348.354 1032.55 348.697 1032.85 348.962 1033.1L333.738 1052.71C329.555 1044.29 328.577 1033.76 326.477 1024.63C319.627 994.863 311.882 966.345 311.966 935.52C311.983 929.271 312.305 923.094 313.126 916.895C313.948 910.701 315.661 904.52 315.092 898.234L315.03 897.632L315.117 897.248C317.219 892.463 317.898 887.209 319.354 882.188C320.833 877.087 323.125 872.166 325.317 867.34C335.465 844.998 351.707 824.809 369.164 807.714L395.167 783.479L402.598 785.384L403.364 784.688L403.423 779.952Z"/>
	<path fill="#EB9261" transform="matrix(0.201172 0 0 0.200781 0 -1.52588e-05)" d="M428.713 940.438L617.477 769.951C617.476 773.247 617.332 776.592 618.009 779.834L618.127 780.351L618.374 786.184C618.227 790.195 617.757 794.459 618.043 798.45L618.939 846.838C621.244 848.183 630.799 852.767 631.339 854.869C633.105 861.741 632.281 871.406 629.315 877.792C626.815 883.173 623.055 888.132 619.902 893.161L606.389 915.932L566.908 985.145L537.937 1034.19C531.562 1046.11 525.976 1058.67 521.489 1071.43L516.361 1087.19C515.178 1091.33 514.088 1096.87 511.807 1100.52C511.218 1101.46 510.464 1101.67 509.45 1101.9C508.907 1101.82 508.322 1101.89 507.823 1101.67C506.575 1101.11 505.112 1097.18 504.503 1095.82L498.382 1083.33C482.698 1052.69 463.516 1025.58 440.017 1000.5C434.084 994.165 428.444 987.671 421.46 982.454L397.213 998.233C392.535 1000.52 388.199 1002.61 384.593 1006.49C378.482 1013.07 374.911 1021.7 370.222 1029.26L345.808 1067.48C341.618 1062.84 336.86 1058.14 333.738 1052.71L348.962 1033.1L387.218 984.856C399.524 969.41 411.705 951.431 428.051 939.989L428.713 940.438Z"/>
	<defs>
		<linearGradient id="gradient_0" gradientUnits="userSpaceOnUse" x1="475.60513" y1="1016.6993" x2="345.49869" y2="1075.5272">
			<stop offset="0" stop-color="#265A7F"/>
			<stop offset="1" stop-color="#61759E"/>
		</linearGradient>
	</defs>
	<path fill="url(#gradient_0)" transform="matrix(0.201172 0 0 0.200781 0 -1.52588e-05)" d="M428.051 939.989L428.713 940.438C456.716 984.886 485.827 1028.67 503.407 1078.52C505.911 1085.62 509.671 1094.27 509.45 1101.9C508.907 1101.82 508.322 1101.89 507.823 1101.67C506.575 1101.11 505.112 1097.18 504.503 1095.82L498.382 1083.33C482.698 1052.69 463.516 1025.58 440.017 1000.5C434.084 994.165 428.444 987.671 421.46 982.454L397.213 998.233C392.535 1000.52 388.199 1002.61 384.593 1006.49C378.482 1013.07 374.911 1021.7 370.222 1029.26L345.808 1067.48C341.618 1062.84 336.86 1058.14 333.738 1052.71L348.962 1033.1L387.218 984.856C399.524 969.41 411.705 951.431 428.051 939.989Z"/>
	<path fill="#672534" transform="matrix(0.201172 0 0 0.200781 0 -1.52588e-05)" d="M357.427 132.255L372.569 137.809C376.318 130.703 379.962 123.39 384.602 116.809C399.813 95.2341 422.597 80.7094 447.602 72.9433C461.352 68.6729 475.199 67.1004 489.541 66.5238C534.67 64.7093 578.249 76.2898 617.987 97.2845C639.313 108.551 659.414 123.432 676.783 140.149C696.861 159.473 714.272 181.753 735.492 199.866C763.473 223.749 797.215 235.903 833.458 224.623C841.681 222.064 850.006 217.515 858.349 215.687L860.523 214.831C861.153 219.581 852.874 229.441 849.948 233.256C834.402 253.525 816.869 270.566 794.508 283.197C786.039 287.981 776.699 291.464 768.704 297.023C775.888 300.748 784.193 302.191 792.068 303.77C811.692 307.703 832.144 309.731 852.16 308.405C863.383 307.662 874.113 305.639 885.103 303.392L876.783 316.15C868.322 319.988 861.618 328.749 854.037 334.295C845.642 340.438 836.932 344.058 827.53 348.275C812.558 354.991 797.872 361.122 781.663 364.318C775.59 366.839 770.675 371.114 764.678 373.514C753.471 377.997 740.129 378.04 728.205 377.832C722.503 377.732 716.534 377.741 710.907 376.791L710.745 410.903L744.251 411.163C750.381 415.664 756.965 418.988 763.275 423.125C776.007 431.472 786.367 443.849 792.551 457.726C793.873 460.693 795.336 464 796.185 467.123C797.157 470.699 797.652 475.438 799.418 478.685L799.518 488.866C800.01 520.217 777.591 547.025 778.845 578.064C776.469 574.716 774.855 571.241 773.245 567.488C770.947 562.791 768.069 551.124 763.617 548.682L761.749 561.343L755.254 577.462C747.43 588.701 739.787 599.116 729.935 608.666L709.109 623.057C704.905 626.019 699.698 627.409 694.839 628.929C690.646 647.001 685.775 663.99 678.629 681.134C664.763 703.719 647.903 723.48 627.956 740.94C625.404 743.175 621.068 747.63 618.034 748.909C609.512 753.53 603.21 760.192 595.654 766.091L577.469 779.425C564.632 788.771 550.942 798.142 535.233 801.777C522.552 804.711 507.007 803.921 494.12 801.998C475.257 800.683 461.309 792.362 446.278 781.995C435.511 774.569 425.157 766.476 415.414 757.751C412.428 754.155 407.568 749.591 403.095 748.112C400.879 747.432 399.435 745.915 397.748 744.404C387.441 735.171 378.642 724.171 369.418 713.874L349.326 691.522C343.205 684.664 336.747 677.516 332.781 669.149C330.512 664.362 329.574 659.034 328.398 653.899C326.356 644.977 324.406 636.261 323.891 627.093L320.884 608.794L316.352 561.538C315.834 556.055 316.147 549.202 314.656 543.959C314.226 544.339 314.505 544.117 313.78 544.571C311.076 541.052 310.166 535.67 308.975 531.42L301.745 505.776C300.822 502.329 300.025 498.872 299.679 495.312C299.248 490.883 300.043 484.9 297.505 481.238C300.466 475.001 301.051 468.536 302.545 461.875L307.278 443.774L306.012 443.477C294.162 455.321 283.632 467.894 270.234 478.216L256 488.519C252.552 490.783 245.94 493.626 243.508 496.811C242.549 498.066 242.193 502.074 241.934 503.673C241.234 507.995 240.467 512.363 239.299 516.588C235.625 529.87 228.451 541.98 219.262 552.187C209.724 562.783 198.936 572.422 187.06 580.359C181.675 583.958 173.52 586.916 169.221 591.486C162.183 593.183 155.121 593.637 147.919 593.91C182.576 555.147 206.143 508.407 204.435 455.14C203.619 429.676 199.618 404.62 200.087 379.062C200.548 353.943 205.633 328.083 211.987 303.842C225.828 251.036 254.485 201.324 293.449 163.146C302.926 153.859 313.407 144.364 324.985 137.746C334.429 132.349 346.73 129.297 357.427 132.255Z"/>
	<path fill="#481E1F" transform="matrix(0.201172 0 0 0.200781 0 -1.52588e-05)" d="M858.349 215.687L860.523 214.831C861.153 219.581 852.874 229.441 849.948 233.256C834.402 253.525 816.869 270.566 794.508 283.197C786.039 287.981 776.699 291.464 768.704 297.023C762.589 297.065 757.29 294.329 751.732 292.126C730.964 283.894 711.875 273.557 693.761 260.52C709.603 261.03 725.499 262.229 741.351 261.794C775.301 260.86 807.744 251.48 837.079 234.465C843.917 230.499 856.235 223.621 858.349 215.687Z"/>
	<path fill="#B68284" transform="matrix(0.201172 0 0 0.200781 0 -1.52588e-05)" d="M538.028 92.7913C550.051 94.0783 561.884 97.8681 573.265 101.866C641.604 125.871 692.644 179.495 740.954 231.029C735.051 229.4 728.252 224.79 722.759 221.943L678.049 198.916C686.914 211.343 692.573 223.19 697.945 237.433C692.478 234.411 687.989 229.127 682.605 225.72C662.206 212.812 638.057 204.88 614.121 202.081C617.123 205.796 620.414 209.259 623.044 213.263C636.906 234.366 641.754 259.909 648.436 283.882L619.992 261.755C602.201 248.698 583.326 237.261 563.78 227.043C560.377 225.265 550.989 219.874 547.409 220.686L546.499 220.938C546.002 224.508 549.404 230.319 550.683 233.698L557.572 253.507C560.461 263.096 562.712 272.862 564.481 282.713C559.541 273.631 556.118 263.85 550.799 254.949C540.632 237.938 527.593 222.523 514.219 207.97C499.811 192.29 485.225 177.84 468.928 164.13C479.895 165.22 490.307 167.726 500.991 170.313C532.224 177.875 563.144 189.888 592.266 203.411C590.781 200.025 586.374 195.904 583.884 192.937C574.607 181.884 564.901 170.976 553.76 161.739C545.044 154.511 535.582 148.616 527.117 141.004C541.643 142.663 556.442 144.474 570.725 147.632C594.438 152.876 617.252 160.833 639.804 169.743C626.584 155.083 613.431 140.836 598.058 128.339C579.882 113.562 559.269 102.474 538.028 92.7913Z"/>
	<path fill="#481E1F" transform="matrix(0.201172 0 0 0.200781 0 -1.52588e-05)" d="M169.221 591.486C162.183 593.183 155.121 593.637 147.919 593.91C182.576 555.147 206.143 508.407 204.435 455.14C203.619 429.676 199.618 404.62 200.087 379.062C200.548 353.943 205.633 328.083 211.987 303.842C225.828 251.036 254.485 201.324 293.449 163.146C302.926 153.859 313.407 144.364 324.985 137.746C334.429 132.349 346.73 129.297 357.427 132.255C351.307 140.86 344.139 148.798 337.696 157.173C331.38 165.381 325.696 174.182 320.348 183.046C299.585 217.462 283.953 254.888 272.21 293.261C263.207 322.682 256.399 352.368 252.924 382.972C251.002 399.905 249.635 416.554 250.987 433.584C254.542 421 258.085 408.372 262.661 396.11C275.632 361.353 292.941 329.301 313.266 298.337C321.169 286.297 329.496 273.073 340.236 263.368C332.865 288.866 328.474 315.894 329.843 342.5C329.995 345.461 329.739 349.525 330.601 352.31C335.138 332.593 339.533 312.513 347.449 293.824C351.755 283.658 357.5 274.352 363.507 265.132C381.244 237.907 403.85 212.961 431.57 195.664L462.767 176.94C483.402 241.938 525.49 303.617 581.834 342.905C590.862 349.201 601.032 354.52 610.758 359.688L613.41 360.946C596.67 338.433 585.975 313.891 576.035 287.858C573.328 280.77 570.298 273.925 567.981 266.679L592.271 295.643C611.045 315.9 634.214 330.646 659.913 340.656L691.01 351.081L712.192 358.814C724.072 362.665 736.37 365.271 748.837 366.227C760.137 367.094 770.544 363.951 781.663 364.318C775.59 366.839 770.675 371.114 764.678 373.514C753.471 377.997 740.129 378.04 728.205 377.832C722.503 377.732 716.534 377.741 710.907 376.791L710.745 410.903L744.251 411.163C750.381 415.664 756.965 418.988 763.275 423.125C776.007 431.472 786.367 443.849 792.551 457.726C793.873 460.693 795.336 464 796.185 467.123C797.157 470.699 797.652 475.438 799.418 478.685L799.518 488.866C800.01 520.217 777.591 547.025 778.845 578.064C776.469 574.716 774.855 571.241 773.245 567.488C770.947 562.791 768.069 551.124 763.617 548.682L761.749 561.343L755.254 577.462C747.43 588.701 739.787 599.116 729.935 608.666L709.109 623.057C704.905 626.019 699.698 627.409 694.839 628.929L701.568 586.732C702.999 578.279 705.365 569.535 705.145 560.929C705.116 559.781 704.792 559.145 704.23 558.177L696.15 569.039C696.08 563.934 698.306 557.707 699.182 552.626L704.481 515.734C707.971 481.837 708.178 447.687 709.809 413.675L709.557 411.25C709.017 409.562 706.647 408.774 705.104 408.186L677.04 398.751C671.141 396.749 664.965 393.868 658.912 392.636C656.001 392.044 653.494 391.507 650.735 392.721C646.807 390.902 642.258 390.59 637.988 390.283C620.669 389.039 603.501 392.471 586.667 396.081C582.008 392.449 576 390.792 570.64 388.462L549.509 378.745C512.923 361.026 473.843 337.366 447.692 305.772C442.137 299.061 437.542 291.705 433.04 284.268C430.717 285.146 428.56 287.115 426.622 288.671C415.939 297.248 407.759 309.31 400.925 321.026C392.495 335.477 386.354 350.828 379.526 366.041C376.958 371.764 371.886 379.756 371.301 385.938C371.259 386.39 371.72 387.516 371.849 388.007C357.448 395.093 336.94 424.192 331.854 439.207C331.512 440.216 331.428 440.998 331.581 442.068C326.039 452.831 322.319 463.897 319.183 475.574C317.539 481.693 316.536 489.217 313.67 494.858L313.942 522.355C313.953 527.767 313.356 533.7 314.365 538.998L314.656 543.959C314.226 544.339 314.505 544.117 313.78 544.571C311.076 541.052 310.166 535.67 308.975 531.42L301.745 505.776C300.822 502.329 300.025 498.872 299.679 495.312C299.248 490.883 300.043 484.9 297.505 481.238C300.466 475.001 301.051 468.536 302.545 461.875L307.278 443.774L306.012 443.477C294.162 455.321 283.632 467.894 270.234 478.216L256 488.519C252.552 490.783 245.94 493.626 243.508 496.811C242.549 498.066 242.193 502.074 241.934 503.673C241.234 507.995 240.467 512.363 239.299 516.588C235.625 529.87 228.451 541.98 219.262 552.187C209.724 562.783 198.936 572.422 187.06 580.359C181.675 583.958 173.52 586.916 169.221 591.486Z"/>
	<path fill="#1E1B1C" transform="matrix(0.201172 0 0 0.200781 0 -1.52588e-05)" d="M322.205 422.423C320.149 416.927 330.194 405.243 332.905 399.964C346.768 372.979 354.235 344.311 362.51 315.34C365.81 303.787 373.483 293.656 380.738 284.277C391.35 270.559 402.399 257.716 416.269 247.184C425.252 240.363 435.382 234.989 445.241 229.572L445.223 231.173C445.143 235.102 444.593 244.78 441.837 247.431C441.114 245.716 440.772 243.996 439.17 242.982C431.842 246.553 425.527 251.195 418.943 255.957C398.001 271.103 378.436 289.472 369.738 314.479L360.368 344.629C353.973 364.445 346.497 384.363 336.02 402.422C331.937 409.458 327.745 416.412 322.205 422.423Z"/>
	<path fill="#672534" transform="matrix(0.201172 0 0 0.200781 0 -1.52588e-05)" d="M731.934 479.044C731.955 476.339 731.787 473.434 732.238 470.768C734.951 454.738 732.858 437.543 733.168 421.301C735.048 422.154 736.939 422.932 738.64 424.113C761.578 432.105 782.019 451.519 792.543 473.252C794.419 477.126 796.516 486.816 799.518 488.866C800.01 520.217 777.591 547.025 778.845 578.064C776.469 574.716 774.855 571.241 773.245 567.488C770.947 562.791 768.069 551.124 763.617 548.682C762.406 520.48 750.867 499.158 731.934 479.044Z"/>
	<path fill="#443130" transform="matrix(0.201172 0 0 0.200781 0 -1.52588e-05)" d="M731.934 479.044C731.955 476.339 731.787 473.434 732.238 470.768C734.951 454.738 732.858 437.543 733.168 421.301C735.048 422.154 736.939 422.932 738.64 424.113C742.309 428.243 744.447 434.545 747.144 439.397C755.902 455.155 763.809 470.943 767.613 488.721C770.809 503.654 771.156 519.027 772.156 534.211C772.789 543.822 774.534 554.366 774.024 563.93C773.959 565.152 773.618 566.33 773.245 567.488C770.947 562.791 768.069 551.124 763.617 548.682C762.406 520.48 750.867 499.158 731.934 479.044Z"/>
	<path fill="#FDA56B" transform="matrix(0.201172 0 0 0.200781 0 -1.52588e-05)" d="M731.934 479.044C750.867 499.158 762.406 520.48 763.617 548.682L761.749 561.343L755.254 577.462C747.43 588.701 739.787 599.116 729.935 608.666L709.109 623.057C704.905 626.019 699.698 627.409 694.839 628.929L701.568 586.732C702.999 578.279 705.365 569.535 705.145 560.929C705.116 559.781 704.792 559.145 704.23 558.177C706.214 551.297 711.093 545.294 714.265 538.911C719.252 528.874 722.837 518.105 726.015 507.373C728.876 498.466 730.104 488.238 731.934 479.044Z"/>
	<path fill="#C66848" transform="matrix(0.201172 0 0 0.200781 0 -1.52588e-05)" d="M726.015 507.373C736.235 521.847 744.381 535.933 741.247 554.203C739.587 563.884 733.72 573.009 726.74 579.754C724.514 581.905 721.58 583.926 719.921 586.566C717.237 590.836 716.897 596.954 715.41 601.773C713.463 608.081 708.09 616.378 709.109 623.057C704.905 626.019 699.698 627.409 694.839 628.929L701.568 586.732C702.999 578.279 705.365 569.535 705.145 560.929C705.116 559.781 704.792 559.145 704.23 558.177C706.214 551.297 711.093 545.294 714.265 538.911C719.252 528.874 722.837 518.105 726.015 507.373Z"/>
	<path fill="#C66848" transform="matrix(0.201172 0 0 0.200781 0 -1.52588e-05)" d="M322.205 422.423C327.745 416.412 331.937 409.458 336.02 402.422C346.497 384.363 353.973 364.445 360.368 344.629L369.738 314.479C378.436 289.472 398.001 271.103 418.943 255.957C425.527 251.195 431.842 246.553 439.17 242.982C440.772 243.996 441.114 245.716 441.837 247.431C445.279 277.591 469.234 302.78 492.004 320.848C521.399 344.173 556.34 361.475 591.735 373.631C603.183 377.563 614.936 381.369 626.849 383.599C635.209 385.164 643.536 385.738 652 386.3C642.192 379.356 634.651 370.988 626.96 361.875C622.925 357.094 618.605 352.339 615.506 346.878C634.529 357.552 654.621 367.16 676.118 371.432C687.377 373.669 698.768 374.471 709.984 377.021C710.891 380.522 710.299 385.383 710.309 389.026C710.332 396.692 711.359 406.191 709.809 413.675L709.557 411.25C709.017 409.562 706.647 408.774 705.104 408.186L677.04 398.751C671.141 396.749 664.965 393.868 658.912 392.636C656.001 392.044 653.494 391.507 650.735 392.721C646.807 390.902 642.258 390.59 637.988 390.283C620.669 389.039 603.501 392.471 586.667 396.081C582.008 392.449 576 390.792 570.64 388.462L549.509 378.745C512.923 361.026 473.843 337.366 447.692 305.772C442.137 299.061 437.542 291.705 433.04 284.268C430.717 285.146 428.56 287.115 426.622 288.671C415.939 297.248 407.759 309.31 400.925 321.026C392.495 335.477 386.354 350.828 379.526 366.041C376.958 371.764 371.886 379.756 371.301 385.938C371.259 386.39 371.72 387.516 371.849 388.007C357.448 395.093 336.94 424.192 331.854 439.207C331.512 440.216 331.428 440.998 331.581 442.068C326.039 452.831 322.319 463.897 319.183 475.574C317.539 481.693 316.536 489.217 313.67 494.858L313.942 522.355C313.953 527.767 313.356 533.7 314.365 538.998L314.656 543.959C314.226 544.339 314.505 544.117 313.78 544.571C311.076 541.052 310.166 535.67 308.975 531.42L301.745 505.776C300.822 502.329 300.025 498.872 299.679 495.312C299.248 490.883 300.043 484.9 297.505 481.238C300.466 475.001 301.051 468.536 302.545 461.875L307.278 443.774C308.028 440.009 309.614 436.51 312.598 434.042C316.464 431.226 319.442 426.291 322.205 422.423Z"/>
	<path fill="#6C2918" transform="matrix(0.201172 0 0 0.200781 0 -1.52588e-05)" d="M307.278 443.774C308.028 440.009 309.614 436.51 312.598 434.042L313.17 473.497C313.248 480.545 312.641 487.889 313.67 494.858L313.942 522.355C313.953 527.767 313.356 533.7 314.365 538.998L314.656 543.959C314.226 544.339 314.505 544.117 313.78 544.571C311.076 541.052 310.166 535.67 308.975 531.42L301.745 505.776C300.822 502.329 300.025 498.872 299.679 495.312C299.248 490.883 300.043 484.9 297.505 481.238C300.466 475.001 301.051 468.536 302.545 461.875L307.278 443.774Z"/>
	<path fill="#FDA56B" transform="matrix(0.201172 0 0 0.200781 0 -1.52588e-05)" d="M371.849 388.007C371.72 387.516 371.259 386.39 371.301 385.938C371.886 379.756 376.958 371.764 379.526 366.041C386.354 350.828 392.495 335.477 400.925 321.026C407.759 309.31 415.939 297.248 426.622 288.671C428.56 287.115 430.717 285.146 433.04 284.268C437.542 291.705 442.137 299.061 447.692 305.772C473.843 337.366 512.923 361.026 549.509 378.745L570.64 388.462C576 390.792 582.008 392.449 586.667 396.081C603.501 392.471 620.669 389.039 637.988 390.283C642.258 390.59 646.807 390.902 650.735 392.721C653.494 391.507 656.001 392.044 658.912 392.636C664.965 393.868 671.141 396.749 677.04 398.751L705.104 408.186C706.647 408.774 709.017 409.562 709.557 411.25L709.809 413.675C708.178 447.687 707.971 481.837 704.481 515.734L699.182 552.626C698.306 557.707 696.08 563.934 696.15 569.039L704.23 558.177C704.792 559.145 705.116 559.781 705.145 560.929C705.365 569.535 702.999 578.279 701.568 586.732L694.839 628.929C690.646 647.001 685.775 663.99 678.629 681.134C664.763 703.719 647.903 723.48 627.956 740.94C625.404 743.175 621.068 747.63 618.034 748.909C609.512 753.53 603.21 760.192 595.654 766.091L577.469 779.425C564.632 788.771 550.942 798.142 535.233 801.777C522.552 804.711 507.007 803.921 494.12 801.998C475.257 800.683 461.309 792.362 446.278 781.995C435.511 774.569 425.157 766.476 415.414 757.751C412.428 754.155 407.568 749.591 403.095 748.112C400.879 747.432 399.435 745.915 397.748 744.404C387.441 735.171 378.642 724.171 369.418 713.874L349.326 691.522C343.205 684.664 336.747 677.516 332.781 669.149C330.512 664.362 329.574 659.034 328.398 653.899C326.356 644.977 324.406 636.261 323.891 627.093L320.884 608.794L316.352 561.538C315.834 556.055 316.147 549.202 314.656 543.959L314.365 538.998C313.356 533.7 313.953 527.767 313.942 522.355L313.67 494.858C316.536 489.217 317.539 481.693 319.183 475.574C322.319 463.897 326.039 452.831 331.581 442.068C331.428 440.998 331.512 440.216 331.854 439.207C336.94 424.192 357.448 395.093 371.849 388.007Z"/>
	<path fill="#EB9261" transform="matrix(0.201172 0 0 0.200781 0 -1.52588e-05)" d="M549.593 599.435C545.929 592.883 544.39 585.114 542.146 578.009C540.8 573.744 538.594 569.007 538.4 564.55C540.571 567.615 541.657 571.893 543.304 575.312C546.712 582.389 550.678 589.121 554.829 595.778C553.177 597.094 551.555 598.614 549.593 599.435Z"/>
	<path fill="#C66848" transform="matrix(0.201172 0 0 0.200781 0 -1.52588e-05)" d="M482.924 707.232C489.252 708.077 495.684 709.429 502.044 709.855C513.351 710.613 525.03 709.743 536.348 709.297L528.549 715.338C522.479 719.191 517.579 722.109 510.529 723.815C500.316 720.163 491.456 713.769 482.924 707.232Z"/>
	<path fill="#FECDA6" transform="matrix(0.201172 0 0 0.200781 0 -1.52588e-05)" d="M469.077 436.562L469.777 436.607C470.634 437.137 471.23 437.608 471.843 438.425C474.649 442.166 476.527 447.226 478.334 451.544C484.057 465.221 489.643 482.312 487.25 497.314L486.056 496.589L479.858 477.514L471.177 457.207C468.947 452.175 466.203 447.212 466.318 441.544C466.368 439.081 467.354 438.206 469.077 436.562Z"/>
	<path fill="#FECDA6" transform="matrix(0.201172 0 0 0.200781 0 -1.52588e-05)" d="M503.444 519.062L504.196 520.277C504.924 534.002 505.496 547.357 504.451 561.094C503.882 568.571 503.008 577.015 499.036 583.573C495.909 588.735 490.95 590.368 485.431 591.727L483.66 591.617C482.469 588.278 489.285 578.207 490.953 574.536C499.088 556.634 500.726 538.253 503.444 519.062Z"/>
	<path fill="#EB9261" transform="matrix(0.201172 0 0 0.200781 0 -1.52588e-05)" d="M465.239 595.147L498.451 534.2C496.282 551.282 491.857 566.879 483.434 582.007C480.445 587.376 475.739 592.989 473.756 598.746C470.725 597.843 468.053 596.575 465.239 595.147Z"/>
	<path fill="#EB9261" transform="matrix(0.201172 0 0 0.200781 0 -1.52588e-05)" d="M578.95 436.025C580.649 437.728 582.184 437.59 584.518 437.588C595.204 437.581 604.399 435.359 614.005 441.273C598.286 445.044 587.549 452.032 578.922 465.948C576.937 469.151 574.974 472.411 575.354 476.315L572.264 485.349C566.539 480.699 568.575 462.501 569.838 455.802C570.738 451.029 574.412 441.889 572.598 437.507L578.95 436.025Z"/>
	<path fill="#C66848" transform="matrix(0.201172 0 0 0.200781 0 -1.52588e-05)" d="M444.483 662.388L443.321 669.375C445.427 672.897 451.291 674.339 455.051 675.274C486.494 683.093 522.131 683.341 553.885 677.518C564.092 675.647 573.071 673.95 582.081 668.558L580.263 661.226C587.98 666.749 590.838 670.932 594.523 679.569L586.663 671.986L571.449 679.897C561.105 684.257 549.362 686.315 538.284 687.747C513.121 690.999 487.444 690.261 462.926 683.14C454.912 680.813 447.364 677.531 439.669 674.345C437.594 677.29 435.342 679.595 432.672 682.008C434.003 675.208 435.154 670.434 440.542 665.702L444.483 662.388Z"/>
	<path fill="#C66848" transform="matrix(0.201172 0 0 0.200781 0 -1.52588e-05)" d="M465.239 595.147C468.053 596.575 470.725 597.843 473.756 598.746C489.72 605.155 506.432 610.91 523.878 608.239C533.095 606.828 541.1 603.088 549.593 599.435C551.555 598.614 553.177 597.094 554.829 595.778L560.148 604.035C551.222 613.571 542.667 623.6 532.69 632.069C528.357 635.748 523.297 639.71 517.939 641.779C514.385 643.151 509.46 643.973 505.904 642.275C499.797 639.357 494.666 635.099 489.423 630.881C478.749 622.295 469.258 612.866 459.761 603.026L465.239 595.147Z"/>
	<path fill="#443130" transform="matrix(0.201172 0 0 0.200781 0 -1.52588e-05)" d="M586.667 396.081C603.501 392.471 620.669 389.039 637.988 390.283C642.258 390.59 646.807 390.902 650.735 392.721C666.535 402.317 677.161 416.331 687.386 431.366C689.098 433.884 692.09 437.215 693.047 440.028C685.483 435.534 677.924 430.706 669.503 427.981C659.345 424.694 649.207 425.106 638.696 425.539C626.515 426.04 614.327 426.96 602.469 429.975L578.95 436.025L572.598 437.507C563.604 430.315 556.955 423.042 552.091 412.452C561.867 403.44 574.158 399.595 586.667 396.081Z"/>
	<path fill="#443130" transform="matrix(0.201172 0 0 0.200781 0 -1.52588e-05)" d="M371.849 388.007C380.503 385.214 387.475 385.839 396.41 386.349C416.458 387.495 437.856 391.177 455.862 400.412C462.56 403.848 468.433 408.358 473.931 413.477C468.92 423.116 462.621 430.502 455.213 438.355C453.102 437.862 451.014 436.687 449.032 435.795C432.969 428.252 413.449 426.952 396.021 425.153C385.336 424.051 374.629 422.581 363.88 423.534C349.875 426.457 341.218 431.61 331.581 442.068C331.428 440.998 331.512 440.216 331.854 439.207C336.94 424.192 357.448 395.093 371.849 388.007Z"/>
	<path fill="#6C2918" transform="matrix(0.201172 0 0 0.200781 0 -1.52588e-05)" d="M614.005 441.273C630.244 442.364 644.607 447.161 655.519 459.85C663.485 469.114 667.571 481.046 666.557 493.236C666.018 499.711 663.747 510.473 658.459 514.865L657.416 515.58C654.731 517.826 652.928 521.389 650.215 523.803C640.801 532.177 628.122 534.742 615.824 533.866C603.017 532.954 590.454 526.426 582.166 516.624C574.489 507.545 571.337 497.167 572.264 485.349L575.354 476.315C574.974 472.411 576.937 469.151 578.922 465.948C587.549 452.032 598.286 445.044 614.005 441.273Z"/>
	<path fill="#944322" transform="matrix(0.201172 0 0 0.200781 0 -1.52588e-05)" d="M634.721 473.253C635.962 473.754 636.98 474.699 637.925 475.628C640.341 478.004 640.524 481.724 640.473 484.94C640.338 493.484 637.313 501.004 631.111 506.939C625.69 512.128 620.136 513.971 612.671 513.78C606.79 513.628 599.954 509.216 596.066 505.03C590.919 499.49 588.535 492.16 588.926 484.671C589.225 478.923 591.395 472.702 595.935 468.926C599.405 466.04 603.36 466.191 607.577 466.398C602.113 472.645 598.851 477.578 599.487 486.216C599.839 490.985 602.751 495.942 606.375 498.969C607.903 500.246 609.601 501.089 611.399 501.912L611.986 502.185C614.236 503.141 618.08 502.332 620.252 501.419C624.705 499.547 627.981 495.941 629.633 491.432C630.447 489.209 631.058 487.31 630.085 485.126C629.198 484.706 628.56 484.405 627.585 484.227C628.133 484.028 627.98 484.101 628.613 483.766C632.397 481.762 633.541 477.03 634.721 473.253Z"/>
	<path fill="#1E1B1C" transform="matrix(0.201172 0 0 0.200781 0 -1.52588e-05)" d="M607.577 466.398C611.593 464.704 616.37 463.436 620.601 465.079C624.194 464.685 627.058 464.268 630.048 466.687C631.961 468.234 633.627 471.065 634.721 473.253C633.541 477.03 632.397 481.762 628.613 483.766C627.98 484.101 628.133 484.028 627.585 484.227C628.56 484.405 629.198 484.706 630.085 485.126C631.058 487.31 630.447 489.209 629.633 491.432C627.981 495.941 624.705 499.547 620.252 501.419C618.08 502.332 614.236 503.141 611.986 502.185L611.399 501.912C609.601 501.089 607.903 500.246 606.375 498.969C602.751 495.942 599.839 490.985 599.487 486.216C598.851 477.578 602.113 472.645 607.577 466.398Z"/>
	<path fill="#FEFEFE" transform="matrix(0.201172 0 0 0.200781 0 -1.52588e-05)" d="M620.601 465.079C624.194 464.685 627.058 464.268 630.048 466.687C631.961 468.234 633.627 471.065 634.721 473.253C633.541 477.03 632.397 481.762 628.613 483.766C627.98 484.101 628.133 484.028 627.585 484.227C624.896 484.488 621.005 482.974 618.898 481.316C616.889 479.734 615.867 477.212 615.736 474.702C615.528 470.709 618.212 467.937 620.601 465.079Z"/>
	<path fill="#FEFEFE" transform="matrix(0.201172 0 0 0.200781 0 -1.52588e-05)" d="M575.354 476.315C580.691 466.623 586.929 459.538 596.455 453.806C593.769 458.01 590.476 461.796 587.907 466.08C582.795 474.605 581.666 483.803 583.841 493.438C585.993 502.972 591.251 511.471 599.651 516.709C606.195 520.789 612.288 522.146 619.844 520.276C627.96 518.267 635.129 512.046 639.381 504.963C645.05 495.518 646.234 483.47 643.465 472.905C640.374 461.11 634.791 456.544 625.401 449.675C638.526 453.886 649.673 462.862 655.971 475.219C662.811 488.64 661.55 501.574 657.416 515.58C654.731 517.826 652.928 521.389 650.215 523.803C640.801 532.177 628.122 534.742 615.824 533.866C603.017 532.954 590.454 526.426 582.166 516.624C574.489 507.545 571.337 497.167 572.264 485.349L575.354 476.315Z"/>
	<path fill="#6C2918" transform="matrix(0.201172 0 0 0.200781 0 -1.52588e-05)" d="M363.88 423.534C374.629 422.581 385.336 424.051 396.021 425.153C413.449 426.952 432.969 428.252 449.032 435.795C451.014 436.687 453.102 437.862 455.213 438.355C457.208 444.714 459.615 450.91 460.687 457.527C461.658 463.52 461.35 472.914 460.354 478.886C459.605 483.373 460.623 489.815 455.923 492.598L455.398 492.752L455.127 493.209C452.947 497.106 452.579 501.727 451.024 505.886C446.088 519.097 433.756 529.649 420.415 533.739C411.463 536.483 401.127 536.412 392.224 533.474C389.941 532.721 382.968 529.015 381.162 529.284C374.995 528.761 371.145 523.421 367.307 519.141L361.618 507.216C355.703 491.323 358.585 476.98 365.486 461.939C362.725 458.546 363.956 429.77 363.88 423.534Z"/>
	<path fill="#FEFEFE" transform="matrix(0.201172 0 0 0.200781 0 -1.52588e-05)" d="M410.664 471.928C412.486 468.266 414.056 465.337 418.275 464.055C420.682 463.324 423.68 463.979 425.805 465.231C428.19 466.636 430.698 469.416 431.283 472.188C431.94 475.293 431.014 477.624 429.252 480.176L428.889 480.651L419.434 483.184C417.606 482.928 415.494 481.891 414.103 480.688C411.468 478.409 411.038 475.179 410.664 471.928Z"/>
	<path fill="#944322" transform="matrix(0.201172 0 0 0.200781 0 -1.52588e-05)" d="M428.889 480.651L428.923 481.118C429.198 484.072 430.395 486.653 431.116 489.501C432.591 495.331 429.412 502.006 425.747 506.424C422.249 510.64 416.713 513.276 411.258 513.654C406.198 514.004 401.687 513.489 397.841 509.859C395.893 508.02 393.856 505.148 393.978 502.386C394.098 499.644 394.876 496.768 396.141 494.345C398.202 497.486 400.804 501.568 404.771 502.403C408.804 503.253 412.49 502.217 415.801 499.925C418.643 497.958 420.732 493.908 421.278 490.548C421.788 487.42 421.234 485.749 419.434 483.184L428.889 480.651Z"/>
	<path fill="#1E1B1C" transform="matrix(0.201172 0 0 0.200781 0 -1.52588e-05)" d="M396.141 494.345C395.325 490.596 395.232 485.805 396.5 482.152L396.835 481.25C398.212 477.46 400.093 474.528 403.713 472.555C406.334 471.126 407.832 471.048 410.664 471.928C411.038 475.179 411.468 478.409 414.103 480.688C415.494 481.891 417.606 482.928 419.434 483.184C421.234 485.749 421.788 487.42 421.278 490.548C420.732 493.908 418.643 497.958 415.801 499.925C412.49 502.217 408.804 503.253 404.771 502.403C400.804 501.568 398.202 497.486 396.141 494.345Z"/>
	<path fill="#EB9261" transform="matrix(0.201172 0 0 0.200781 0 -1.52588e-05)" d="M449.032 435.795C451.014 436.687 453.102 437.862 455.213 438.355C457.208 444.714 459.615 450.91 460.687 457.527C461.658 463.52 461.35 472.914 460.354 478.886C459.605 483.373 460.623 489.815 455.923 492.598L455.398 492.752L451.238 478.619L451.663 477.905C452.29 476.289 451.387 473.691 450.681 472.188C442.442 454.654 427.398 447.188 410.154 441.059C412.046 439.619 415.708 438.829 418.037 438.454C427.771 436.885 435.721 436.849 445.572 437.523C447.438 437.651 447.687 436.968 449.032 435.795Z"/>
	<path fill="#FDA56B" transform="matrix(0.201172 0 0 0.200781 0 -1.52588e-05)" d="M363.88 423.534C374.629 422.581 385.336 424.051 396.021 425.153C413.449 426.952 432.969 428.252 449.032 435.795C447.687 436.968 447.438 437.651 445.572 437.523C435.721 436.849 427.771 436.885 418.037 438.454C415.708 438.829 412.046 439.619 410.154 441.059C395.232 442.328 380.142 444.52 369.778 456.625L365.486 461.939C362.725 458.546 363.956 429.77 363.88 423.534Z"/>
	<path fill="#FEFEFE" transform="matrix(0.201172 0 0 0.200781 0 -1.52588e-05)" d="M381.162 529.284C375.28 524.356 369.78 518.588 366.23 511.72C361.598 502.757 361.818 491.317 365 481.907C370.28 466.295 381.121 458.118 395.483 451.081L393.8 452.641C384.184 461.598 377.976 469.735 377.59 483.503C377.302 493.769 379.765 504.121 387.051 511.74C392.837 517.792 401.27 521.758 409.716 521.754C415.855 521.752 423.941 517.879 428.159 513.504C435.55 505.839 439.743 493.752 439.438 483.192C439.019 468.666 430.159 459.942 420.374 450.527C435.049 456.616 443.357 464.76 451.238 478.619L455.398 492.752L455.127 493.209C452.947 497.106 452.579 501.727 451.024 505.886C446.088 519.097 433.756 529.649 420.415 533.739C411.463 536.483 401.127 536.412 392.224 533.474C389.941 532.721 382.968 529.015 381.162 529.284Z"/>
	<path fill="#EB9261" transform="matrix(0.201172 0 0 0.200781 0 -1.52588e-05)" d="M331.581 442.068C341.218 431.61 349.875 426.457 363.88 423.534C363.956 429.77 362.725 458.546 365.486 461.939C358.585 476.98 355.703 491.323 361.618 507.216L367.307 519.141C366.464 519.815 365.099 520.485 364.985 521.571C364.465 526.521 365.742 531.714 366.465 536.614L369.584 559.375C379.142 633.343 401.139 703.765 449.498 761.937C455.338 768.963 462.941 774.944 468.431 782.072C469.422 783.359 469.886 783.913 469.974 785.553C473.371 788.12 476.693 790.859 480.313 793.106C484.843 795.917 490.272 798.279 494.12 801.998C475.257 800.683 461.309 792.362 446.278 781.995C435.511 774.569 425.157 766.476 415.414 757.751C412.428 754.155 407.568 749.591 403.095 748.112C400.879 747.432 399.435 745.915 397.748 744.404C387.441 735.171 378.642 724.171 369.418 713.874L349.326 691.522C343.205 684.664 336.747 677.516 332.781 669.149C330.512 664.362 329.574 659.034 328.398 653.899C326.356 644.977 324.406 636.261 323.891 627.093L320.884 608.794L316.352 561.538C315.834 556.055 316.147 549.202 314.656 543.959L314.365 538.998C313.356 533.7 313.953 527.767 313.942 522.355L313.67 494.858C316.536 489.217 317.539 481.693 319.183 475.574C322.319 463.897 326.039 452.831 331.581 442.068Z"/>
	<path fill="#FECDA6" transform="matrix(0.201172 0 0 0.200781 0 -1.52588e-05)" d="M314.365 538.998C314.443 534.619 313.832 528.826 314.957 524.633C317.612 533.716 317.745 543.351 319.077 552.697C322.482 576.587 325.399 600.905 331.563 624.263C335.53 639.294 341.128 653.825 349.367 667.053C359.272 682.956 372.209 697.851 384.96 711.541C404.719 732.756 425.541 752.161 448.349 770.058C454.937 775.229 461.424 781.148 468.888 785.046L469.974 785.553C473.371 788.12 476.693 790.859 480.313 793.106C484.843 795.917 490.272 798.279 494.12 801.998C475.257 800.683 461.309 792.362 446.278 781.995C435.511 774.569 425.157 766.476 415.414 757.751C412.428 754.155 407.568 749.591 403.095 748.112C400.879 747.432 399.435 745.915 397.748 744.404C387.441 735.171 378.642 724.171 369.418 713.874L349.326 691.522C343.205 684.664 336.747 677.516 332.781 669.149C330.512 664.362 329.574 659.034 328.398 653.899C326.356 644.977 324.406 636.261 323.891 627.093L320.884 608.794L316.352 561.538C315.834 556.055 316.147 549.202 314.656 543.959L314.365 538.998Z"/>
</svg>
