<?xml version="1.0" encoding="utf-8" ?>
<svg xmlns="http://www.w3.org/2000/svg" xmlns:xlink="http://www.w3.org/1999/xlink" width="206" height="257">
	<path fill="#49A06F" transform="matrix(0.201172 0 0 0.200781 0 -1.52588e-05)" d="M-0 -0L1024 0L1024 1280L-0 1280L0 -0Z"/>
	<path fill="#53332C" transform="matrix(0.201172 0 0 0.200781 0 -1.52588e-05)" d="M808.504 923.278C813.819 917.366 820.21 912.904 826.151 907.684C832.21 902.361 838.731 896.557 843.839 890.304C856.173 875.206 863.465 855.843 865.557 836.526C866.111 831.414 865.575 826.24 865.997 821.139C866.142 819.387 866.087 818.705 867.399 817.561C868.668 818.394 869.354 819.584 870.183 820.818C871.187 826.504 873.303 831.871 874.14 837.594C876.652 854.78 870.642 873.264 860.911 887.332C851.018 901.633 837.648 912.264 821.763 919.318C817.99 920.994 813.781 921.786 810.152 923.757L808.504 923.278Z"/>
	<path fill="#154F92" transform="matrix(0.201172 0 0 0.200781 0 -1.52588e-05)" d="M346.363 860.862L346.288 861.419C345.735 864.909 343.456 867.743 341.704 870.737C338.945 875.451 336.239 880.182 333.871 885.109C317.39 919.387 306.656 955.267 307.002 993.554L400.415 964.534L333.367 1056.51C337.311 1061.53 343.517 1064.94 348.523 1068.81L375.627 1090.52C402.072 1112.27 427.485 1136.46 448.258 1163.75C458.386 1177.05 467.109 1191.17 475.663 1205.51C459.613 1205.92 443.367 1203.91 427.417 1202.36C392.085 1198.94 356.623 1194 321.954 1186.27L259.161 1169.66L224.183 1157.69L135.768 1115.25C135.647 1112.44 136.486 1109.16 136.923 1106.35L139.83 1087.87L146.994 1040.37C148.57 1029.98 149.76 1019.25 152.558 1009.11C162.555 972.87 179.632 942.503 213.219 923.514C216.134 922.304 218.982 920.462 221.754 918.931L251.063 905.357L346.363 860.862Z"/>
	<path fill="#043361" transform="matrix(0.201172 0 0 0.200781 0 -1.52588e-05)" d="M224.183 1157.69L238.696 1046.88L259.161 1169.66L224.183 1157.69Z"/>
	<path fill="#154F92" transform="matrix(0.201172 0 0 0.200781 0 -1.52588e-05)" d="M676.057 859.232L782.034 909.272L803.738 921.031L808.504 923.278L810.152 923.757L810.632 924.463C811.805 926.072 814.342 927.236 816.044 928.226C820.175 930.63 824.375 932.83 828.267 935.629C835.324 940.704 841.855 947.056 847.197 953.899C858.419 968.274 865.344 985.724 870.252 1003.12C880.685 1040.11 882.549 1078.43 888.517 1116.19C862.633 1132.53 835.204 1145.74 806.664 1156.75L767.608 1170.5L724.495 1182.3C682.251 1192.35 639.435 1198.94 596.201 1202.71C580.241 1204.11 564.325 1205.77 548.281 1205.52C551.439 1201.47 553.668 1195.77 556.362 1191.3C561.996 1181.95 568.465 1172.31 575.104 1163.65C599.769 1131.48 631.295 1104.62 662.738 1079.32L691.277 1056.31L626.792 965.805C644.453 967.844 662.585 973.845 679.866 978.095C685.758 979.544 693.418 979.983 698.722 982.906C701.27 984.31 703.381 986.806 705.544 988.736L719.019 1000.86C715.06 968.722 709.235 935.698 697.716 905.289C694.86 897.749 691.56 890.442 688.028 883.197L680.446 868.494C679.1 866.104 676.543 862.957 676.154 860.236L676.057 859.232Z"/>
	<path fill="#043361" transform="matrix(0.201172 0 0 0.200781 0 -1.52588e-05)" d="M767.608 1170.5C766.822 1168.39 767.393 1165.37 767.613 1163.16C768.611 1153.11 771.193 1143.1 772.804 1133.12L786.221 1048.28C787.475 1049.3 788.374 1053.91 788.748 1055.58C790.493 1063.34 791.243 1071.33 792.676 1079.16L806.664 1156.75L767.608 1170.5Z"/>
	<path fill="#311817" transform="matrix(0.201172 0 0 0.200781 0 -1.52588e-05)" d="M823.26 372.389C839.426 389.238 860.884 404.66 885.174 405C890.607 405.077 895.831 404.339 901.161 403.4C897.02 406.633 892.975 409.75 888.274 412.155C871.395 420.791 853.571 421.057 835.176 419.335L835.531 419.644C839.504 422.931 845.067 424.415 849.711 426.562C854.768 428.902 859.59 431.751 864.342 434.647C893.167 452.216 919.895 475.916 934.599 506.875C938.94 516.016 942.548 526.14 943.668 536.254C947.123 567.474 933.566 594.699 914.432 618.371C907.363 627.115 898.721 635.76 890.313 643.227C876.447 655.542 863.251 663.293 857.946 682.388C856.631 687.119 855.628 693.051 856.112 697.942C857.559 712.549 862.901 723.388 874.502 732.642C886.762 742.422 903.374 746.451 918.862 744.669C935.206 742.789 950.064 738.72 964.449 730.589C962.555 734.884 960.625 739.595 957.692 743.299C944.664 762.316 923.589 776.733 901.69 783.309C905.141 787.693 906.79 793.469 908.369 798.75C913.072 814.484 915.554 830.467 913.52 846.893C911.277 865.001 904.559 884.161 892.35 897.976C887.656 905.404 880.781 910.612 874.017 916.034C878.711 904.082 883.529 893.449 885.319 880.501C888.352 858.571 883.674 838.543 870.183 820.818C869.354 819.584 868.668 818.394 867.399 817.561C866.087 818.705 866.142 819.387 865.997 821.139C865.575 826.24 866.111 831.414 865.557 836.526C863.465 855.843 856.173 875.206 843.839 890.304C838.731 896.557 832.21 902.361 826.151 907.684C820.21 912.904 813.819 917.366 808.504 923.278L803.738 921.031L782.034 909.272L676.057 859.232L676.041 859.059C673.901 854.037 669.242 848.602 666.109 844.066C651.528 822.953 633.546 806.147 612.82 791.239C606.193 786.472 599.113 782.333 592.66 777.329L592.796 739.738L592.989 704.176C625.734 678.991 652.149 650.001 671.91 613.485C677.988 602.255 683.747 590.328 687.526 578.102L693.418 560.091C697.375 547.831 699.681 534.363 702.721 521.822L707.198 503.265C707.986 500.043 709.368 496.288 709.386 493.008C709.391 492.07 709.383 491.621 709.884 490.775C711.639 478.292 710.472 464.751 709.148 452.244C708.611 447.176 707.789 436.968 705.083 432.725C703.17 429.725 699.208 427.078 696.427 424.831L688.957 417.156C691.248 417.129 693.877 416.695 695.73 418.29C696.033 417.919 696.22 417.409 696.639 417.177C697.846 416.51 704.792 416.312 706.596 416.057L734.111 411.524C756.119 407.994 780.635 401.714 799.522 389.483C807.62 384.239 814.871 377.817 822.886 372.626L823.26 372.389Z"/>
	<path fill="#160908" transform="matrix(0.201172 0 0 0.200781 0 -1.52588e-05)" d="M688.957 417.156C691.248 417.129 693.877 416.695 695.73 418.29C696.993 419.728 698.395 421.152 699.482 422.728C702.686 428.841 708.066 431.77 712.777 436.316L733.048 456.551C736.187 459.67 739.474 461.892 742.108 465.59C744.138 468.44 746.042 470.609 747.817 473.696C748.949 475.664 748.842 477.465 748.822 479.657L720.65 457.173L719.48 464.515C718.077 471.849 716.201 479.543 713.19 486.391C712.477 488.012 711.694 490.394 710.335 491.564L709.884 490.775C711.639 478.292 710.472 464.751 709.148 452.244C708.611 447.176 707.789 436.968 705.083 432.725C703.17 429.725 699.208 427.078 696.427 424.831L688.957 417.156Z"/>
	<path fill="#AC7C52" transform="matrix(0.201172 0 0 0.200781 0 -1.52588e-05)" d="M719.48 464.515L720.65 457.173L748.822 479.657C754.404 488.609 753.616 500.876 752.224 511.046C746.727 533.848 736.343 557.728 715.432 570.483C706.451 575.961 697.689 576.913 687.526 578.102L693.418 560.091C697.375 547.831 699.681 534.363 702.721 521.822L707.198 503.265C707.986 500.043 709.368 496.288 709.386 493.008C709.391 492.07 709.383 491.621 709.884 490.775L710.335 491.564C711.694 490.394 712.477 488.012 713.19 486.391C716.201 479.543 718.077 471.849 719.48 464.515Z"/>
	<path fill="#DFA669" transform="matrix(0.201172 0 0 0.200781 0 -1.52588e-05)" d="M719.48 464.515L720.65 457.173L748.822 479.657C754.404 488.609 753.616 500.876 752.224 511.046C746.727 533.848 736.343 557.728 715.432 570.483C706.451 575.961 697.689 576.913 687.526 578.102L693.418 560.091L695.17 560.777C703.447 559.205 709.464 555.442 715.418 549.606C728.514 536.77 737.52 517.721 737.58 499.172C737.63 483.963 729.735 474.643 719.48 464.515Z"/>
	<path fill="#53332C" transform="matrix(0.201172 0 0 0.200781 0 -1.52588e-05)" d="M892.35 897.976C893.275 894.049 895.445 890.787 897.087 887.136C914.636 848.107 896.705 802.733 870.922 771.743C863.1 762.341 853.385 754.533 845.337 745.315C838.112 737.04 832.75 727.127 828.917 716.877C825.842 708.654 824.948 698.968 825.614 690.253C826.713 675.86 832.825 661.624 841.639 650.254C850.938 638.258 862.791 628.291 872.804 616.853C881.608 606.796 889.626 595.447 895.122 583.229C905.787 559.52 905.815 532.239 896.466 508.166C884.206 476.595 854.953 453.748 824.875 440.397C833.51 447.956 842.651 455.058 850.663 463.292C869.399 482.548 882.894 508.59 885.613 535.426C887.915 558.143 881.105 580.181 868.839 599.161C858.966 614.436 845.967 627.577 834.476 641.582C819.852 659.407 800.964 683.224 803.56 707.734C806.108 731.788 820.29 745.934 838.104 760.327C820.116 754.735 804.522 744.606 793.52 728.995C778.557 707.763 779.638 683.646 791.421 661.25C800.916 643.202 815.035 627.57 825.996 610.378C836.66 593.653 844.87 576.042 848.167 556.386C854.122 520.873 841.162 488.675 818.518 461.636C808.716 449.932 797.898 439.478 788.975 426.99L809.248 412.059C817.866 415.058 826.197 417.636 835.176 419.335L835.531 419.644C839.504 422.931 845.067 424.415 849.711 426.562C854.768 428.902 859.59 431.751 864.342 434.647C893.167 452.216 919.895 475.916 934.599 506.875C938.94 516.016 942.548 526.14 943.668 536.254C947.123 567.474 933.566 594.699 914.432 618.371C907.363 627.115 898.721 635.76 890.313 643.227C876.447 655.542 863.251 663.293 857.946 682.388C856.631 687.119 855.628 693.051 856.112 697.942C857.559 712.549 862.901 723.388 874.502 732.642C886.762 742.422 903.374 746.451 918.862 744.669C935.206 742.789 950.064 738.72 964.449 730.589C962.555 734.884 960.625 739.595 957.692 743.299C944.664 762.316 923.589 776.733 901.69 783.309C905.141 787.693 906.79 793.469 908.369 798.75C913.072 814.484 915.554 830.467 913.52 846.893C911.277 865.001 904.559 884.161 892.35 897.976Z"/>
	<path fill="#311817" transform="matrix(0.201172 0 0 0.200781 0 -1.52588e-05)" d="M901.69 783.309C898.309 781.322 895.651 776.858 893.267 773.739L884.047 761.977C900.086 762.507 913.82 762.612 929.321 757.417C934.799 755.582 940.493 753.246 945.216 749.872C947.981 747.897 950.906 744.806 953.973 743.466C955.271 742.898 956.312 743.19 957.692 743.299C944.664 762.316 923.589 776.733 901.69 783.309Z"/>
	<path fill="#160908" transform="matrix(0.201172 0 0 0.200781 0 -1.52588e-05)" d="M752.224 511.046C754.532 513.722 754.154 517.326 753.904 520.799C753.377 528.123 750.894 535.637 748.213 542.425C741.837 558.57 732.364 573.579 723.125 588.206L697.318 629.773C689.37 643.445 682.527 657.412 677.656 672.5C675.383 679.541 672.679 688.5 673.48 695.938C674.636 706.685 681.818 717.116 688.606 725.155C697.339 735.499 708.221 743.863 718.414 752.699C755.673 784.997 795.337 820.045 790.562 874.424C789.807 883.021 788.112 891.532 785.597 899.783C784.642 902.918 783.828 906.521 782.034 909.272L676.057 859.232L676.041 859.059C673.901 854.037 669.242 848.602 666.109 844.066C651.528 822.953 633.546 806.147 612.82 791.239C606.193 786.472 599.113 782.333 592.66 777.329L592.796 739.738L592.989 704.176C625.734 678.991 652.149 650.001 671.91 613.485C677.988 602.255 683.747 590.328 687.526 578.102C697.689 576.913 706.451 575.961 715.432 570.483C736.343 557.728 746.727 533.848 752.224 511.046Z"/>
	<path fill="#3DBBDA" transform="matrix(0.201172 0 0 0.200781 0 -1.52588e-05)" d="M431.334 702.67L453.747 718.679C476.04 733.319 501.35 742.76 528.254 737.379C539.117 735.206 548.204 730.663 557.888 725.503C569.986 719.058 581.582 711.766 592.989 704.176L592.796 739.738L592.66 777.329C599.113 782.333 606.193 786.472 612.82 791.239C633.546 806.147 651.528 822.953 666.109 844.066C669.242 848.602 673.901 854.037 676.041 859.059L676.057 859.232L676.154 860.236C676.543 862.957 679.1 866.104 680.446 868.494L688.028 883.197C691.56 890.442 694.86 897.749 697.716 905.289C709.235 935.698 715.06 968.722 719.019 1000.86L705.544 988.736C703.381 986.806 701.27 984.31 698.722 982.906C693.418 979.983 685.758 979.544 679.866 978.095C662.585 973.845 644.453 967.844 626.792 965.805L691.277 1056.31L662.738 1079.32C631.295 1104.62 599.769 1131.48 575.104 1163.65C568.465 1172.31 561.996 1181.95 556.362 1191.3C553.668 1195.77 551.439 1201.47 548.281 1205.52L530.789 1206.22L511.916 1207.18L510.697 1206.89C504.829 1206.9 498.825 1207.21 493.042 1206.09L475.663 1205.51C467.109 1191.17 458.386 1177.05 448.258 1163.75C427.485 1136.46 402.072 1112.27 375.627 1090.52L348.523 1068.81C343.517 1064.94 337.311 1061.53 333.367 1056.51L400.415 964.534L307.002 993.554C306.656 955.267 317.39 919.387 333.871 885.109C336.239 880.182 338.945 875.451 341.704 870.737C343.456 867.743 345.735 864.909 346.288 861.419L346.363 860.862C355.545 849.729 363.281 837.733 373.037 826.986C383.154 815.84 395.04 806.024 407.343 797.388L431.622 780.989C432.27 777.236 431.863 772.693 431.867 768.859L431.863 747.041L431.334 702.67Z"/>
	<path fill="#1F9291" transform="matrix(0.201172 0 0 0.200781 0 -1.52588e-05)" d="M592.72 786.705L603.824 803.111C618.48 822.771 633.213 840.313 628.193 866.41C624.247 886.925 610.334 905.098 599.398 922.434C596.543 926.96 594.22 932.389 590.546 936.307L598.494 905.904C602.14 893.125 605.919 880.45 607.391 867.189C607.835 863.181 608.556 858.724 608.035 854.718C607.113 847.63 604.026 840.446 601.752 833.693C598.522 824.101 595.267 814.276 593.753 804.243C592.88 798.459 592.83 792.543 592.72 786.705Z"/>
	<path fill="#1F9291" transform="matrix(0.201172 0 0 0.200781 0 -1.52588e-05)" d="M431.866 790.033C431.685 804.494 431.403 818.662 426.814 832.55C424.656 839.082 420.596 845.576 419.615 852.396C418.674 858.941 419.978 866.221 420.838 872.722C423.541 893.157 428.78 912.975 432.475 933.204C431.798 932.651 431.134 932.055 430.596 931.362C428.042 928.072 426.329 923.914 424.087 920.385C409.806 897.901 396.633 872.781 398.916 845.302C400.718 823.614 415.609 803.549 431.866 790.033Z"/>
	<path fill="#FEFEFE" transform="matrix(0.201172 0 0 0.200781 0 -1.52588e-05)" d="M510.697 1206.89C505.573 1192.28 503.141 1176.99 499.416 1162L477.778 1076.65L466.573 1036.88C464.595 1030.11 462.107 1023.7 461.009 1016.71C477.055 1028.73 498.644 1040.21 519.349 1037.36C535.038 1035.2 549.747 1025.84 562.793 1017.35C562.992 1020.3 561.73 1024.03 560.88 1026.86L555.358 1044.02L546.119 1075.31L523.483 1159.11L511.916 1207.18L510.697 1206.89Z"/>
	<path fill="#043361" transform="matrix(0.201172 0 0 0.200781 0 -1.52588e-05)" d="M431.622 780.989C431.575 782.82 431.383 784.756 431.613 786.57C423.942 791.871 416.073 797.076 408.956 803.113C362.878 842.197 335.154 898.209 321.507 956.255L374.735 954.589C387.289 954.116 400.286 953.391 412.813 954.388C408.859 961.91 404.915 969.428 400.314 976.581L372.188 1016.42C366.415 1024.65 359.457 1033.15 354.924 1042.06C388.771 1069.43 424.803 1096.05 451.341 1130.99C468.832 1154.02 481.557 1179.68 493.042 1206.09L475.663 1205.51C467.109 1191.17 458.386 1177.05 448.258 1163.75C427.485 1136.46 402.072 1112.27 375.627 1090.52L348.523 1068.81C343.517 1064.94 337.311 1061.53 333.367 1056.51L400.415 964.534L307.002 993.554C306.656 955.267 317.39 919.387 333.871 885.109C336.239 880.182 338.945 875.451 341.704 870.737C343.456 867.743 345.735 864.909 346.288 861.419L346.363 860.862C355.545 849.729 363.281 837.733 373.037 826.986C383.154 815.84 395.04 806.024 407.343 797.388L431.622 780.989Z"/>
	<path fill="#043361" transform="matrix(0.201172 0 0 0.200781 0 -1.52588e-05)" d="M592.66 777.329C599.113 782.333 606.193 786.472 612.82 791.239C633.546 806.147 651.528 822.953 666.109 844.066C669.242 848.602 673.901 854.037 676.041 859.059L676.057 859.232L676.154 860.236C676.543 862.957 679.1 866.104 680.446 868.494L688.028 883.197C691.56 890.442 694.86 897.749 697.716 905.289C709.235 935.698 715.06 968.722 719.019 1000.86L705.544 988.736C703.381 986.806 701.27 984.31 698.722 982.906C693.418 979.983 685.758 979.544 679.866 978.095C662.585 973.845 644.453 967.844 626.792 965.805L691.277 1056.31L662.738 1079.32C631.295 1104.62 599.769 1131.48 575.104 1163.65C568.465 1172.31 561.996 1181.95 556.362 1191.3C553.668 1195.77 551.439 1201.47 548.281 1205.52L530.789 1206.22C541.166 1181.39 553.449 1157.51 569.241 1135.65C581.577 1118.57 595.942 1103.08 611.293 1088.68L669.175 1038.99C650.001 1010.86 627.171 984.295 611.317 954.118L700.702 957.227L688.41 915.76C675.49 878.601 656.453 841.979 628.815 813.596C617.54 802.017 604.508 792.414 592.636 781.478L592.66 777.329Z"/>
	<path fill="#DFA669" transform="matrix(0.201172 0 0 0.200781 0 -1.52588e-05)" d="M431.334 702.67L453.747 718.679C476.04 733.319 501.35 742.76 528.254 737.379C539.117 735.206 548.204 730.663 557.888 725.503C569.986 719.058 581.582 711.766 592.989 704.176L592.796 739.738L592.66 777.329L592.636 781.478L592.72 786.705C592.83 792.543 592.88 798.459 593.753 804.243C595.267 814.276 598.522 824.101 601.752 833.693C604.026 840.446 607.113 847.63 608.035 854.718C608.556 858.724 607.835 863.181 607.391 867.189C605.919 880.45 602.14 893.125 598.494 905.904L590.546 936.307C587.764 944.692 586.165 953.582 582.373 961.601C579.685 967.285 575.306 972.053 571.344 976.875C559.968 990.717 547.311 1003.2 531.44 1011.88C525.34 1015.22 518.835 1017.6 512.314 1019.97C504.989 1017.69 498.119 1014.99 491.37 1011.31C475.668 1002.73 463.155 989.691 451.675 976.232C447.97 971.889 443.805 967.557 441.258 962.407C436.79 953.375 435.226 942.861 432.475 933.204C428.78 912.975 423.541 893.157 420.838 872.722C419.978 866.221 418.674 858.941 419.615 852.396C420.596 845.576 424.656 839.082 426.814 832.55C431.403 818.662 431.685 804.494 431.866 790.033L431.613 786.57C431.383 784.756 431.575 782.82 431.622 780.989C432.27 777.236 431.863 772.693 431.867 768.859L431.863 747.041L431.334 702.67Z"/>
	<path fill="#AC7C52" transform="matrix(0.201172 0 0 0.200781 0 -1.52588e-05)" d="M431.334 702.67L453.747 718.679C476.04 733.319 501.35 742.76 528.254 737.379C539.117 735.206 548.204 730.663 557.888 725.503C569.986 719.058 581.582 711.766 592.989 704.176L592.796 739.738L557.492 759.281C545.814 765.769 532.932 775.091 519.586 777.253C512.092 778.466 503.673 777.156 496.456 775.106C485.521 772 475.547 767.338 465.642 761.822L444.44 748.742C440.993 746.52 436.486 741.972 432.259 742.055L431.863 747.041L431.334 702.67Z"/>
	<path fill="#53332C" transform="matrix(0.201172 0 0 0.200781 0 -1.52588e-05)" d="M210.519 408.47C213.125 372.314 222.161 337.347 232.453 302.718L242.603 268.75C261.462 210.376 304.328 154.718 363.409 133.819C372.79 130.501 382.235 128.294 392.123 127.194C395.635 126.803 401.643 127.412 404.766 126.342C405.451 126.107 408.256 122.301 409.129 121.417C413.876 116.611 419.294 111.938 424.509 107.632C434.213 99.618 445.031 92.3447 456.203 86.5559C491.059 68.4951 529.805 66.3871 567.091 78.3215C636.427 100.514 690.715 151.93 730.45 211.475C745.896 234.622 758.869 258.895 771.617 283.575L779.987 300.396L791.51 324.075L811.89 357.908L823.26 372.389L822.886 372.626C814.871 377.817 807.62 384.239 799.522 389.483C780.635 401.714 756.119 407.994 734.111 411.524L706.596 416.057C704.792 416.312 697.846 416.51 696.639 417.177C696.22 417.409 696.033 417.919 695.73 418.29C693.877 416.695 691.248 417.129 688.957 417.156L696.427 424.831C699.208 427.078 703.17 429.725 705.083 432.725C707.789 436.968 708.611 447.176 709.148 452.244C710.472 464.751 711.639 478.292 709.884 490.775C709.383 491.621 709.391 492.07 709.386 493.008C709.368 496.288 707.986 500.043 707.198 503.265L702.721 521.822C699.681 534.363 697.375 547.831 693.418 560.091L687.526 578.102C683.747 590.328 677.988 602.255 671.91 613.485C652.149 650.001 625.734 678.991 592.989 704.176C581.582 711.766 569.986 719.058 557.888 725.503C548.204 730.663 539.117 735.206 528.254 737.379C501.35 742.76 476.04 733.319 453.747 718.679L431.334 702.67L431.863 747.041L431.867 768.859C431.863 772.693 432.27 777.236 431.622 780.989L407.343 797.388C395.04 806.024 383.154 815.84 373.037 826.986C363.281 837.733 355.545 849.729 346.363 860.862L251.063 905.357L221.754 918.931C218.982 920.462 216.134 922.304 213.219 923.514C207.198 919.877 201.387 915.908 196.1 911.251C179.122 896.298 165.065 876.091 163.209 852.96C162.639 845.848 164.007 838.687 163.517 831.687L163.468 831.086C151.71 851.708 147.455 877.531 153.814 900.676L158.977 918.695L154.247 913.748C145.61 907.193 138.443 896.197 133.333 886.748C121.78 865.39 117.284 840.395 123.871 816.73C125.384 811.296 128.38 806.597 129.968 801.25L128.883 800.101C105.111 797.662 87.7001 787.712 71.319 770.747C63.8415 764.401 58.9316 754.656 54.2255 746.17C57.2381 747.669 59.8795 749.859 62.8367 751.484C68.104 754.379 73.8916 756.699 79.6228 758.497C100.708 765.112 126.458 765.233 146.319 754.729C158.587 748.241 170.166 736.95 174.278 723.437C184.186 690.878 148.175 673.14 128.303 655.504C118.126 646.471 109.187 635.944 102.719 623.93C84.4875 590.069 90.0366 552.025 110.054 520.198C126.008 494.832 149.186 473.657 172.855 455.61L199.454 436.457C202.603 434.12 208.29 430.847 209.443 427.025L210.519 408.47Z"/>
	<path fill="#311817" transform="matrix(0.201172 0 0 0.200781 0 -1.52588e-05)" d="M403.764 128.438C404.267 128.374 404.803 128.423 405.31 128.433C406.843 134.167 405.325 142.082 405.122 147.99L405.139 166.14C405.451 184.308 408.04 201.938 412.472 219.537L409.036 215.008C401.562 202.292 397.617 187.767 396.05 173.153C394.65 160.095 395.137 139.135 403.764 128.438Z"/>
	<path fill="#311817" transform="matrix(0.201172 0 0 0.200781 0 -1.52588e-05)" d="M359.178 185.786C367.646 184.661 375.925 186.555 384.119 188.359L376.463 188.85C338.479 193.965 299.996 222.697 277.047 252.403L266.918 266.562L266.181 266.562L282.654 240.037C301.059 213.508 326.796 191.699 359.178 185.786Z"/>
	<path fill="#311817" transform="matrix(0.201172 0 0 0.200781 0 -1.52588e-05)" d="M71.319 770.747C74.9117 770.254 78.8451 773.783 82.2371 775.127C99.0198 781.777 119.958 783.714 137.556 779.596C142.251 778.497 146.832 776.562 151.327 774.833C147.671 779.267 132.559 799.632 128.883 800.101C105.111 797.662 87.7001 787.712 71.319 770.747Z"/>
	<path fill="#311817" transform="matrix(0.201172 0 0 0.200781 0 -1.52588e-05)" d="M210.519 408.47C224.915 396.569 237.023 383.668 247.455 368.125C277.979 322.643 292.938 267.379 333.877 229.031C338.17 225.011 342.224 220.609 347.448 217.789C344.272 223.274 338.391 228.39 334.337 233.449C327.282 242.256 320.947 252.375 315.438 262.2C300.731 288.431 290.608 316.849 277.122 343.655C265.841 366.077 252.022 386.174 234.826 404.422C227.646 412.043 219.261 420.854 210.691 426.864L209.443 427.025L210.519 408.47Z"/>
	<path fill="#160908" transform="matrix(0.201172 0 0 0.200781 0 -1.52588e-05)" d="M334.314 332.1L343.918 281.808C348.338 261.783 359.154 238.668 376.966 227.377C387.767 220.531 400.51 218.567 412.938 221.406C416.009 225.149 417.21 232.735 418.492 237.379L433.29 217.389C438.051 210.815 443.329 201.408 450.809 197.766C454.049 196.189 458.052 196.267 461.421 197.419C469.841 200.298 476.358 209.43 480.081 217.132L486.433 231.734C487.702 234.704 490.03 238.63 488.946 241.744C480.812 239.879 472.704 237.959 464.334 237.547C451.044 236.893 437.804 238.977 424.854 241.724C407.659 245.371 390.55 250.313 375.533 259.698C358.195 270.533 345.843 285.768 341.254 305.996L336.661 331.153L334.314 332.1Z"/>
	<path fill="#311817" transform="matrix(0.201172 0 0 0.200781 0 -1.52588e-05)" d="M779.987 300.396C770.344 303.177 760.165 304.633 750.183 303.047C737.84 301.086 726.144 294.798 715.78 288.1C686.986 269.489 665.301 244.109 641.802 219.605C625.482 202.587 608.042 185.842 589.328 171.447C564.519 152.363 534.851 136.262 504.495 128.21C493.448 125.28 482.403 123.754 471.066 122.549C477.768 121.672 484.528 120.746 491.297 120.701C513.335 120.554 533.904 125.71 554.135 134.063C578.739 144.22 600.891 158.992 620.698 176.694C627.128 182.44 632.88 188.95 638.918 195.097L675.667 232.717C692.945 250.525 710.702 268.236 733.258 279.32C745.764 285.466 758.074 288.169 771.617 283.575L779.987 300.396Z"/>
	<path fill="#311817" transform="matrix(0.201172 0 0 0.200781 0 -1.52588e-05)" d="M811.89 357.908C799.42 368.069 783.398 374.047 768.35 379.294C758.003 382.902 746.943 384.91 736.117 386.389C701.511 391.118 665.551 386.429 634.054 370.978C591.78 350.239 559.898 311.868 537.148 271.534C530.62 259.96 524.296 248.076 519.939 235.49C522.93 238.618 525.081 242.719 527.385 246.374C531.295 252.578 535.167 258.75 539.549 264.637C580.97 320.287 637.366 359.216 707.047 369.257C734.843 373.263 768.508 370.794 794.489 359.773C798.685 357.993 803.383 356.168 807.049 353.438C804.16 352.801 801.402 353.741 798.575 354.384C792.774 355.704 786.95 357.367 781.086 358.35C773.683 359.591 766.15 360.708 758.651 361.065C740.055 361.951 721.397 361.092 703.184 357.021C642.552 343.471 593.904 297.201 558.877 248.125C542.35 224.969 527.564 200.292 509.811 178.051C500.785 166.743 490.861 156.492 480.163 146.77L480.43 146.113C512.494 167.132 533.542 198.758 557.442 227.898C578.144 253.138 600.5 275.721 627.694 293.975C661.779 316.854 705.684 329.34 746.661 329.217C761.731 329.172 776.757 326.959 791.51 324.075L811.89 357.908Z"/>
	<path fill="#311817" transform="matrix(0.201172 0 0 0.200781 0 -1.52588e-05)" d="M154.247 913.748L153.954 912.958C152.381 908.615 149.768 905.006 147.538 900.997C144.149 894.905 141.654 887.891 140.061 881.119C136.829 867.382 137.097 853.142 139.989 839.375C144.157 819.535 153.166 801.7 164.846 785.248C179.098 765.172 198.87 746.134 203.945 721.097C210.462 688.944 193.685 665.354 173.066 642.6C164.492 633.138 155.244 623.933 148.194 613.228C138.125 597.939 132.973 580.765 136.892 562.559C149.004 506.283 204.487 478.781 243.2 442.539C254.637 431.832 264.78 419.507 273.271 406.349C286.881 385.258 296.519 363.087 304.592 339.375C305.28 337.354 306.403 331.092 307.931 330.115C300.798 370.16 289.285 409.966 262.792 441.87C253.126 453.509 242.03 463.423 230.553 473.217C214.662 486.779 197.771 499.321 183.719 514.862C171.383 528.504 159.858 545.958 156.685 564.343C150.189 601.972 176.822 624.786 198.168 650.952C212.692 668.756 225.768 690.72 226.811 714.224C228.046 742.064 214.644 765.406 196.443 785.259L201.299 783.027C228.808 768.73 252.652 743.69 261.898 713.762C277.754 662.441 218.142 639.557 198.433 601.942C194.156 593.779 191.16 584.303 191.372 575C191.556 566.948 194.575 558.785 197.96 551.578C211.774 522.175 237.211 502.413 259.472 479.763C272.857 466.144 285.296 451.423 295.525 435.267C309.106 413.817 318.419 389.344 325.352 365.019L334.314 332.1L336.661 331.153C332.59 354.653 329.121 378.837 321.908 401.622L313.44 426.475C311.317 432.437 308.001 438.122 308.068 444.584C306.032 445.365 305.286 447.286 304.395 449.247L302.516 453.523C302.075 454.469 301.975 455.123 301.906 456.148L307.308 474.223L306.224 474.553C303.772 472.213 301.228 469.37 297.573 469.303C295.398 469.262 293.843 469.464 292.259 471.061L289.913 474.22L287.378 472.64C285.288 474.808 283.195 477.066 280.922 479.044C277.598 481.938 270.738 485.543 269.839 489.982C272.593 511.605 276.373 533.651 288.4 552.326C291.721 557.482 295.935 562.007 300.171 566.414C307.827 571.914 316.051 577.172 325.989 575.411C328.571 574.954 331.049 573.698 333.381 572.544C347.377 611.319 367.947 646.589 398.462 674.796L420.795 694.266C424.28 697.142 427.993 699.6 431.334 702.67L431.863 747.041L431.867 768.859C431.863 772.693 432.27 777.236 431.622 780.989L407.343 797.388C395.04 806.024 383.154 815.84 373.037 826.986C363.281 837.733 355.545 849.729 346.363 860.862L251.063 905.357L221.754 918.931C218.982 920.462 216.134 922.304 213.219 923.514C207.198 919.877 201.387 915.908 196.1 911.251C179.122 896.298 165.065 876.091 163.209 852.96C162.639 845.848 164.007 838.687 163.517 831.687L163.468 831.086C151.71 851.708 147.455 877.531 153.814 900.676L158.977 918.695L154.247 913.748Z"/>
	<path fill="#DFA669" transform="matrix(0.201172 0 0 0.200781 0 -1.52588e-05)" d="M287.378 472.64C287.84 471.388 289.953 469.285 290.826 468.159C293.764 464.372 296.99 458.441 300.684 455.598L301.906 456.148L307.308 474.223L306.224 474.553C303.772 472.213 301.228 469.37 297.573 469.303C295.398 469.262 293.843 469.464 292.259 471.061L289.913 474.22L287.378 472.64Z"/>
	<path fill="#53332C" transform="matrix(0.201172 0 0 0.200781 0 -1.52588e-05)" d="M163.468 831.086C166.3 824.192 171.189 818.925 176.623 813.98C171.937 842.493 180.917 868.41 197.498 891.51C204.554 901.34 213.199 910.388 221.754 918.931C218.982 920.462 216.134 922.304 213.219 923.514C207.198 919.877 201.387 915.908 196.1 911.251C179.122 896.298 165.065 876.091 163.209 852.96C162.639 845.848 164.007 838.687 163.517 831.687L163.468 831.086Z"/>
	<path fill="#160908" transform="matrix(0.201172 0 0 0.200781 0 -1.52588e-05)" d="M301.265 781.689C318.035 774.999 333.732 763.255 344.959 749.062C353.827 737.854 358.51 724.076 359.619 709.911C361.337 687.997 354.926 666.158 342.874 647.899C337.826 640.251 331.478 633.361 325.852 626.131C313.154 609.812 301.271 588.693 298.975 567.812L300.171 566.414C307.827 571.914 316.051 577.172 325.989 575.411C328.571 574.954 331.049 573.698 333.381 572.544C347.377 611.319 367.947 646.589 398.462 674.796L420.795 694.266C424.28 697.142 427.993 699.6 431.334 702.67L431.863 747.041L431.867 768.859C431.863 772.693 432.27 777.236 431.622 780.989L407.343 797.388C395.04 806.024 383.154 815.84 373.037 826.986C363.281 837.733 355.545 849.729 346.363 860.862L251.063 905.357C248.451 903.15 246.112 900.362 244.448 897.379C235.793 881.864 235.652 864.247 240.348 847.461C248.945 816.727 274.569 796.57 301.265 781.689Z"/>
	<path fill="#E9BA7E" transform="matrix(0.201172 0 0 0.200781 0 -1.52588e-05)" d="M336.661 331.153L341.254 305.996C345.843 285.768 358.195 270.533 375.533 259.698C390.55 250.313 407.659 245.371 424.854 241.724C437.804 238.977 451.044 236.893 464.334 237.547C472.704 237.959 480.812 239.879 488.946 241.744C489.441 242.011 490.04 242.141 490.432 242.545C491.584 243.73 492.873 247.876 493.616 249.497L505.688 275.441L525.849 310.509C534.763 324.729 544.166 338.016 555.689 350.276C562.271 357.279 569.566 363.616 576.804 369.925L594.467 382.587L634.596 403.489C639.788 405.263 646.846 407.23 651.406 410.245L663.07 413.305C663.977 413.538 665.825 414.278 666.718 414.186C672.692 413.628 682.114 414.465 687.769 416.694L688.514 416.976L688.957 417.156L696.427 424.831C699.208 427.078 703.17 429.725 705.083 432.725C707.789 436.968 708.611 447.176 709.148 452.244C710.472 464.751 711.639 478.292 709.884 490.775C709.383 491.621 709.391 492.07 709.386 493.008C709.368 496.288 707.986 500.043 707.198 503.265L702.721 521.822C699.681 534.363 697.375 547.831 693.418 560.091L687.526 578.102C683.747 590.328 677.988 602.255 671.91 613.485C652.149 650.001 625.734 678.991 592.989 704.176C581.582 711.766 569.986 719.058 557.888 725.503C548.204 730.663 539.117 735.206 528.254 737.379C501.35 742.76 476.04 733.319 453.747 718.679L431.334 702.67C427.993 699.6 424.28 697.142 420.795 694.266L398.462 674.796C367.947 646.589 347.377 611.319 333.381 572.544C331.049 573.698 328.571 574.954 325.989 575.411C316.051 577.172 307.827 571.914 300.171 566.414C295.935 562.007 291.721 557.482 288.4 552.326C276.373 533.651 272.593 511.605 269.839 489.982C270.738 485.543 277.598 481.938 280.922 479.044C283.195 477.066 285.288 474.808 287.378 472.64L289.913 474.22L292.259 471.061C293.843 469.464 295.398 469.262 297.573 469.303C301.228 469.37 303.772 472.213 306.224 474.553L307.308 474.223L301.906 456.148C301.975 455.123 302.075 454.469 302.516 453.523L304.395 449.247C305.286 447.286 306.032 445.365 308.068 444.584C308.001 438.122 311.317 432.437 313.44 426.475L321.908 401.622C329.121 378.837 332.59 354.653 336.661 331.153Z"/>
	<path fill="#986445" transform="matrix(0.201172 0 0 0.200781 0 -1.52588e-05)" d="M666.718 414.186C672.692 413.628 682.114 414.465 687.769 416.694L688.514 416.976L688.957 417.156L696.427 424.831C686.217 422.139 675.837 419.738 666.718 414.186Z"/>
	<path fill="#AC7C52" transform="matrix(0.201172 0 0 0.200781 0 -1.52588e-05)" d="M355.723 437.472C357.351 432.934 357.947 428.225 360.306 423.906L360.747 423.125C363.023 419.008 367.034 416.017 370.834 413.382L373.427 413.44C373.884 414.529 374.448 415.628 374.683 416.787C372.472 418.756 370.344 420.517 368.888 423.14L368.904 424.79C365.963 428.4 362.374 435.437 358.525 437.673C357.485 437.745 356.723 437.797 355.723 437.472Z"/>
	<path fill="#160908" transform="matrix(0.201172 0 0 0.200781 0 -1.52588e-05)" d="M301.906 456.148C301.975 455.123 302.075 454.469 302.516 453.523L304.395 449.247C305.286 447.286 306.032 445.365 308.068 444.584L313.325 492.469C309.906 488.717 309.248 479.221 307.308 474.223L301.906 456.148Z"/>
	<defs>
		<linearGradient id="gradient_0" gradientUnits="userSpaceOnUse" x1="436.09134" y1="415.66501" x2="374.58209" y2="407.15073">
			<stop offset="0" stop-color="#75482C"/>
			<stop offset="1" stop-color="#B97D59"/>
		</linearGradient>
	</defs>
	<path fill="url(#gradient_0)" transform="matrix(0.201172 0 0 0.200781 0 -1.52588e-05)" d="M370.834 413.382C386.235 404.518 404.19 400.935 421.539 405.684C431.438 408.393 442.684 414.42 447.981 423.56C448.387 424.26 448.265 423.921 448.205 424.859C444.803 423.196 442.224 419.255 438.827 417.155C421.775 406.608 402.953 404.525 383.955 411.22C380.573 412.412 377.583 414.726 374.683 416.787C374.448 415.628 373.884 414.529 373.427 413.44L370.834 413.382Z"/>
	<defs>
		<linearGradient id="gradient_1" gradientUnits="userSpaceOnUse" x1="613.60553" y1="401.29095" x2="619.25977" y2="421.37195">
			<stop offset="0" stop-color="#92583B"/>
			<stop offset="1" stop-color="#BE8962"/>
		</linearGradient>
	</defs>
	<path fill="url(#gradient_1)" transform="matrix(0.201172 0 0 0.200781 0 -1.52588e-05)" d="M651.406 410.245C652.547 413.55 657.044 416.68 659.634 419.038C655.857 417.656 652.655 415.357 649.114 413.522C640.467 409.039 631.614 406.543 621.927 405.618C601.754 403.693 589.132 412.334 574.312 424.66L577.847 419.575C588.111 406.996 603.754 401.102 619.779 402.177C624.488 402.493 629.335 404.123 634.026 403.572L634.596 403.489C639.788 405.263 646.846 407.23 651.406 410.245Z"/>
	<path fill="#336B42" transform="matrix(0.201172 0 0 0.200781 0 -1.52588e-05)" d="M576.804 369.925L594.467 382.587C587.037 385.772 579.298 389.671 571.077 389.424C569.661 388.685 568.73 387.904 568.038 386.42C566.675 383.493 567.177 379.159 568.373 376.227C569.828 372.664 573.531 371.318 576.804 369.925Z"/>
	<path fill="#AC7C52" transform="matrix(0.201172 0 0 0.200781 0 -1.52588e-05)" d="M485.183 557.083C492.516 560.923 500.169 566.879 508.202 568.914C517.25 571.207 530.265 562.549 537.751 558.288C536.344 561.071 534.486 563.58 532.714 566.139C528.978 571.305 524.667 577.613 519.392 581.257C516.506 583.251 511.933 583.907 508.562 583.062C499.214 580.721 490.284 564.808 485.183 557.083Z"/>
	<path fill="#C66676" transform="matrix(0.201172 0 0 0.200781 0 -1.52588e-05)" d="M471.427 623.085C493.358 614.268 525.47 612.281 547.421 621.708L552.539 624.244C527.631 634.865 496.334 632.389 471.427 623.085Z"/>
	<path fill="#160908" transform="matrix(0.201172 0 0 0.200781 0 -1.52588e-05)" d="M368.904 424.79C380.344 415.945 394.324 410.764 408.932 412.555C423.344 414.321 435.117 421.035 444.042 432.565C447.472 436.995 452.547 444.875 451.778 450.718C448.509 444.908 444.708 439.916 440.344 434.913C436.538 429.216 428.218 425.388 421.913 423.248C417.426 421.724 410.602 420.081 406.186 422.231C393.056 424.421 380.746 427.794 372.675 439.252C368.996 444.474 366.938 449.883 366.808 456.326C366.337 455.672 366.073 455.148 365.838 454.374C365.472 453.166 365.243 452.042 364.403 451.055C361.789 447.981 355.107 445.3 351.684 442.812C347.668 439.894 344.333 436.031 341.008 432.371L355.723 437.472C356.723 437.797 357.485 437.745 358.525 437.673C362.374 435.437 365.963 428.4 368.904 424.79Z"/>
	<path fill="#160908" transform="matrix(0.201172 0 0 0.200781 0 -1.52588e-05)" d="M572.256 451.389C571.473 443.756 576.613 435.916 581.232 430.243C589.356 420.264 600.477 413.246 613.454 411.973C629.082 410.439 644.475 413.742 656.731 423.969C660.254 426.909 663.218 431.014 666.059 434.62C670.976 432.299 674.459 429.668 678.435 426.012C673.069 436.283 667.836 444.947 658.265 451.946C656.949 446.312 654.657 440.925 650.776 436.564C641.488 426.126 629.42 422.524 615.863 421.8C611.462 420.042 600.773 422.936 596.477 424.773C593.996 425.833 591.796 427.226 589.823 429.073C582.276 435.076 575.678 442.189 572.256 451.389Z"/>
	<path fill="#FEFEFE" transform="matrix(0.201172 0 0 0.200781 0 -1.52588e-05)" d="M406.186 422.231L406.349 422.983C395.792 427.365 389.044 430.692 384.453 441.715C379.905 452.637 379.979 466.511 384.506 477.409C388.048 485.939 394.256 493.275 402.915 496.891C409.695 499.723 417.375 499.559 424.096 496.695C432.072 493.297 439.122 486.506 442.366 478.406C446.611 467.803 447.107 455.035 443.321 444.191C442.346 441.399 439.934 437.849 440.344 434.913C444.708 439.916 448.509 444.908 451.778 450.718C453.281 465.658 453.19 479.516 443.292 491.801C436.692 499.994 427.449 505.304 416.934 506.409C405.646 507.595 393.554 503.711 384.815 496.491C374.594 488.046 368.249 475.845 367.136 462.67L366.808 456.326C366.938 449.883 368.996 444.474 372.675 439.252C380.746 427.794 393.056 424.421 406.186 422.231Z"/>
	<path fill="#C66676" transform="matrix(0.201172 0 0 0.200781 0 -1.52588e-05)" d="M467.458 626.504C465.241 626.048 462.879 624.573 460.861 623.565L448.458 617.117L471.427 623.085C496.334 632.389 527.631 634.865 552.539 624.244C559.866 621.631 567.518 619.119 575.247 618.093C569.472 621.492 563.358 625.046 556.993 627.202C554.161 636.489 544.925 643.935 536.915 648.667C527.524 654.216 514.127 656.572 503.56 653.692C487.668 649.361 475.652 640.829 467.458 626.504Z"/>
	<path fill="#9D405E" transform="matrix(0.201172 0 0 0.200781 0 -1.52588e-05)" d="M467.458 626.504C465.241 626.048 462.879 624.573 460.861 623.565L448.458 617.117L471.427 623.085C496.334 632.389 527.631 634.865 552.539 624.244C559.866 621.631 567.518 619.119 575.247 618.093C569.472 621.492 563.358 625.046 556.993 627.202C535.167 634.973 513.534 638.297 490.745 633.116C482.905 631.334 475.239 628.582 467.458 626.504Z"/>
	<path fill="#336B42" transform="matrix(0.201172 0 0 0.200781 0 -1.52588e-05)" d="M378.469 357.001C382.473 356.257 386.802 356.675 390.856 356.787C398.901 357.01 406.904 357.295 414.852 358.652C423.567 360.141 455.054 367.387 459.512 374.53C461.051 376.995 460.765 381.699 460.209 384.478C459.879 386.126 458.98 388.112 457.409 388.932C456.644 389.331 454.717 389.828 453.861 389.726C447.85 389.01 440.003 384.242 434.137 382.207C425.909 379.353 417.393 377.201 408.993 374.917C398.595 372.562 388.254 370.528 377.545 370.545C357.849 370.577 345.531 380.39 332.249 393.65L334.26 389.976C344.624 373.238 359.206 361.561 378.469 357.001Z"/>
	<path fill="#FEFEFE" transform="matrix(0.201172 0 0 0.200781 0 -1.52588e-05)" d="M615.863 421.8C629.42 422.524 641.488 426.126 650.776 436.564C654.657 440.925 656.949 446.312 658.265 451.946L657.45 467.524C655.734 480.043 649.535 490.694 639.456 498.33C630.14 505.388 618.078 508.416 606.535 506.668C595.37 504.977 585.193 498.346 578.631 489.228C570.11 477.389 569.922 465.267 572.256 451.389C575.678 442.189 582.276 435.076 589.823 429.073C589.58 431.94 584.977 436.105 583.466 438.766C579.157 446.352 578.015 454.224 578.161 462.808C578.33 472.744 581.909 482.504 589.227 489.435C595.86 495.718 603.724 499.157 612.915 498.741C620.662 498.39 628.227 494.175 633.375 488.525C640.364 480.855 644.307 469.99 643.766 459.581C643.073 446.271 637.419 432.515 625.074 426.085C622.647 424.821 618.195 424.149 616.374 422.341L615.863 421.8Z"/>
	<path fill="#986445" transform="matrix(0.201172 0 0 0.200781 0 -1.52588e-05)" d="M289.913 474.22L292.259 471.061C293.843 469.464 295.398 469.262 297.573 469.303C301.228 469.37 303.772 472.213 306.224 474.553L307.308 474.223C309.248 479.221 309.906 488.717 313.325 492.469C314.627 494.044 316.516 508.95 317.045 511.875C320.05 528.499 324.401 545.143 329.402 561.258C325.73 561.338 321.36 561.153 317.89 559.866C306.241 555.548 297.672 543.448 292.632 532.591C283.876 513.731 282.726 493.766 289.913 474.22Z"/>
	<path fill="#584405" transform="matrix(0.201172 0 0 0.200781 0 -1.52588e-05)" d="M406.186 422.231C410.602 420.081 417.426 421.724 421.913 423.248C428.218 425.388 436.538 429.216 440.344 434.913C439.934 437.849 442.346 441.399 443.321 444.191C447.107 455.035 446.611 467.803 442.366 478.406C439.122 486.506 432.072 493.297 424.096 496.695C417.375 499.559 409.695 499.723 402.915 496.891C394.256 493.275 388.048 485.939 384.506 477.409C379.979 466.511 379.905 452.637 384.453 441.715C389.044 430.692 395.792 427.365 406.349 422.983L406.186 422.231Z"/>
	<path fill="#FEFEFE" transform="matrix(0.201172 0 0 0.200781 0 -1.52588e-05)" d="M431.443 470.312L432.137 470.174C434.173 469.966 434.607 470.85 435.861 472.188C435.778 474.396 435.415 475.443 434.055 477.188L431.668 477.479C430.384 476.314 430.014 476.082 429.485 474.375C429.819 472.499 430.075 471.665 431.443 470.312Z"/>
	<path fill="#FEFEFE" transform="matrix(0.201172 0 0 0.200781 0 -1.52588e-05)" d="M403.105 456.226C400.338 456.794 397.521 456.81 394.833 455.793C392.57 454.938 390.922 452.776 389.981 450.625C388.713 447.726 388.972 443.977 390.244 441.135C391.206 438.986 393.371 436.981 395.671 436.34C398.516 435.547 402.425 436.317 404.873 437.904C407.881 439.854 408.636 442.405 409.359 445.679C408.756 450.007 406.471 453.498 403.105 456.226Z"/>
	<path fill="#160908" transform="matrix(0.201172 0 0 0.200781 0 -1.52588e-05)" d="M409.359 445.679L410.112 443.438C413.573 442.324 416.11 442.833 419.368 444.437C423.296 446.371 426.364 450.288 427.697 454.414C429.246 459.212 428.682 466.04 426.322 470.446C424.614 473.634 421.437 476.21 417.972 477.136C415.553 477.782 412.479 476.478 410.441 475.273C405.72 472.48 404.065 466.845 402.972 461.84C402.531 459.817 402.674 458.234 403.105 456.226C406.471 453.498 408.756 450.007 409.359 445.679Z"/>
	<path fill="#584405" transform="matrix(0.201172 0 0 0.200781 0 -1.52588e-05)" d="M589.823 429.073C591.796 427.226 593.996 425.833 596.477 424.773C600.773 422.936 611.462 420.042 615.863 421.8L616.374 422.341C618.195 424.149 622.647 424.821 625.074 426.085C637.419 432.515 643.073 446.271 643.766 459.581C644.307 469.99 640.364 480.855 633.375 488.525C628.227 494.175 620.662 498.39 612.915 498.741C603.724 499.157 595.86 495.718 589.227 489.435C581.909 482.504 578.33 472.744 578.161 462.808C578.015 454.224 579.157 446.352 583.466 438.766C584.977 436.105 589.58 431.94 589.823 429.073Z"/>
	<path fill="#FEFEFE" transform="matrix(0.201172 0 0 0.200781 0 -1.52588e-05)" d="M630.426 469.688L632.967 469.504L634.99 471.329C635.022 473.674 634.869 473.594 633.228 475.312L631.092 475.649C629.595 474.849 629.388 474.493 628.488 473.125C628.874 471.154 629.071 471.036 630.426 469.688Z"/>
	<path fill="#160908" transform="matrix(0.201172 0 0 0.200781 0 -1.52588e-05)" d="M592.187 451.961C591.878 450.945 591.633 449.926 591.514 448.868C591.122 445.393 591.205 442.828 593.615 440.034C595.407 437.956 597.785 436.662 600.56 436.544C604.182 436.389 606.39 438.441 608.877 440.703C611.121 439.534 614.567 438.925 617.016 439.803C621.326 441.348 624.981 445.486 626.769 449.62C629.304 455.482 628.686 461.855 626.163 467.61C624.095 472.327 620.32 475.794 615.482 477.538C610.583 479.304 605.084 479.006 600.409 476.653C596.367 474.618 593.622 471.465 592.256 467.109C591.028 463.194 590.406 455.741 592.187 451.961Z"/>
	<path fill="#FEFEFE" transform="matrix(0.201172 0 0 0.200781 0 -1.52588e-05)" d="M592.187 451.961C591.878 450.945 591.633 449.926 591.514 448.868C591.122 445.393 591.205 442.828 593.615 440.034C595.407 437.956 597.785 436.662 600.56 436.544C604.182 436.389 606.39 438.441 608.877 440.703C609.99 444.425 611.07 447.775 609.027 451.451C607.808 453.643 605.748 455.31 603.317 455.938C600.789 456.59 598.178 456.176 595.93 454.848C594.576 454.048 593.353 453.01 592.187 451.961Z"/>
</svg>
