<?xml version="1.0" encoding="utf-8" ?>
<svg xmlns="http://www.w3.org/2000/svg" xmlns:xlink="http://www.w3.org/1999/xlink" width="206" height="257">
	<path fill="#2DAEAD" transform="matrix(0.201172 0 0 0.200781 0 -1.52588e-05)" d="M22.2355 1280L-0 1280L0 -0L1024 0L1024 1280L1003.56 1280L903.695 1280L680.809 1280L653.81 1280L644.386 1280L623.675 1280L617.876 1280L405.463 1280L398.815 1280L378.376 1280L368.535 1280L339.983 1280L118.848 1280L22.2355 1280Z"/>
	<path fill="#043235" transform="matrix(0.201172 0 0 0.200781 0 -1.52588e-05)" d="M76.6638 1111.85C78.9082 1116.94 79.8056 1122.63 81.1309 1128.02L88.4741 1157.87L118.848 1280L22.2355 1280L35.4507 1200.66L39.5967 1175C40.916 1166.89 42.1024 1158.87 45.3346 1151.24C52.006 1135.49 62.9306 1122.02 76.6638 1111.85Z"/>
	<path fill="#043235" transform="matrix(0.201172 0 0 0.200781 0 -1.52588e-05)" d="M903.695 1280L926.92 1192.68L940.306 1142.49L947.481 1115.03C947.844 1113.85 948.419 1113 949.128 1112C961.906 1122.05 972.188 1133.44 979.071 1148.31C985.08 1161.28 986.49 1175.35 988.775 1189.3L998.634 1250.14C1000.2 1259.86 1001.07 1270.5 1003.56 1280L903.695 1280Z"/>
	<path fill="#391710" transform="matrix(0.201172 0 0 0.200781 0 -1.52588e-05)" d="M778.754 627.804L788.486 635.23L810.876 628.593C826.654 659.09 854.688 680.526 886.668 691.967C885.228 694.02 883.777 696.622 882.001 698.349C861.817 724.749 832.914 749.368 798.819 754.097C783.787 756.182 769.107 754.551 754.71 749.859C755.942 754.035 758.524 758.232 760.58 762.077C765.913 772.049 772.096 781.727 779.714 790.119C784.674 795.584 790.403 800.347 795.873 805.282L784.391 808.574C761.739 813.194 738.985 813.911 716.743 806.726C710.43 804.687 704.422 801.663 698.424 798.854L694.013 838.707L683.642 832.966L636.622 813.021L636.332 800.938C636.727 795.577 636.156 789.993 635.926 784.621C647.754 773.623 660.141 761.538 670.082 748.811C676.802 740.208 682.253 730.678 687.797 721.306C698.689 702.893 708.427 684.102 717.538 664.756C722.881 666.942 727.244 667.365 732.991 666.809C735.831 666.534 738.819 665.216 741.4 664.066C754.83 658.083 765.771 644.873 774.835 633.655L778.754 627.804Z"/>
	<path fill="#52291E" transform="matrix(0.201172 0 0 0.200781 0 -1.52588e-05)" d="M683.642 832.966L677.743 802.209C683.318 800.634 692.944 796.84 698.424 798.854L694.013 838.707L683.642 832.966Z"/>
	<path fill="#52291E" transform="matrix(0.201172 0 0 0.200781 0 -1.52588e-05)" d="M784.391 808.574C781.406 805.41 777.335 803.735 773.589 801.613C769.013 799.021 764.674 796.13 760.578 792.826C741.469 777.407 730.517 754.368 727.953 730.194C729.793 730.146 750.391 747.169 754.128 749.5L754.71 749.859C755.942 754.035 758.524 758.232 760.58 762.077C765.913 772.049 772.096 781.727 779.714 790.119C784.674 795.584 790.403 800.347 795.873 805.282L784.391 808.574Z"/>
	<path fill="#52291E" transform="matrix(0.201172 0 0 0.200781 0 -1.52588e-05)" d="M778.754 627.804L788.486 635.23L810.876 628.593C826.654 659.09 854.688 680.526 886.668 691.967C885.228 694.02 883.777 696.622 882.001 698.349C877.767 698.544 874.003 699.928 869.881 700.749C859.753 702.765 849.204 703.065 839.046 701.1C812.89 696.039 794.645 676.702 783.516 653.434C780.563 647.262 778.969 639.607 775.103 634.025L774.835 633.655L778.754 627.804Z"/>
	<path fill="#391710" transform="matrix(0.201172 0 0 0.200781 0 -1.52588e-05)" d="M244.866 625.077L258.486 641.909C273.472 656.782 288.994 666.59 309.828 671.268C315.152 683.466 318.355 696.781 325.95 707.892C329.743 713.44 334.444 718.435 338.702 723.625L353.869 742.872C355.824 745.36 359.127 748.538 360.423 751.242C365.449 759.162 371.163 766.488 377.054 773.774C380.31 777.8 384.412 781.93 386.926 786.424L386.996 795.553L386.878 816.252C381.754 817.388 376.487 820.049 371.615 822.039L342.479 834.58C339.199 836.129 334.904 839.366 331.541 840.162C327.513 824.569 327.872 809.822 330.415 794.045L323.599 797.417C292.812 812.547 262.425 816.365 229.696 805.203C247.827 791.615 257.792 774.581 265.97 753.691L240.915 754.265C215.407 752.629 188.905 741.722 169.304 725.404C161.544 718.944 154.921 711.422 148.283 703.854L139.727 690.952C171.206 679.938 195.875 658.35 211.729 629.148L216.105 629.318C223.203 629.417 230.264 628.085 237.269 627.066C239.705 626.712 243.117 626.787 244.866 625.077Z"/>
	<path fill="#52291E" transform="matrix(0.201172 0 0 0.200781 0 -1.52588e-05)" d="M244.866 625.077L258.486 641.909L258.006 642.463C252.493 648.904 248.311 656.568 242.872 663.196C224.426 685.674 198.669 701.392 169.361 703.913C162.324 704.519 155.194 703.16 148.283 703.854L139.727 690.952C171.206 679.938 195.875 658.35 211.729 629.148L216.105 629.318C223.203 629.417 230.264 628.085 237.269 627.066C239.705 626.712 243.117 626.787 244.866 625.077Z"/>
	<path fill="#074446" transform="matrix(0.201172 0 0 0.200781 0 -1.52588e-05)" d="M76.6638 1111.85C79.968 1109.46 83.8256 1107.65 87.398 1105.68L107.285 1094.75L168.038 1061.28L339.983 1280L118.848 1280L88.4741 1157.87L81.1309 1128.02C79.8056 1122.63 78.9082 1116.94 76.6638 1111.85Z"/>
	<path fill="#074446" transform="matrix(0.201172 0 0 0.200781 0 -1.52588e-05)" d="M855.34 1060.37L920.24 1095.89L937.26 1105.13C941.266 1107.27 945.514 1109.23 949.128 1112C948.419 1113 947.844 1113.85 947.481 1115.03L940.306 1142.49L926.92 1192.68L903.695 1280L680.809 1280L855.34 1060.37Z"/>
	<path fill="#1F4A61" transform="matrix(0.201172 0 0 0.200781 0 -1.52588e-05)" d="M636.622 813.021L683.642 832.966L694.013 838.707L726.874 857.416C764.328 880.641 797.598 908.984 827.525 941.251L841.343 957.553C845.079 962.006 849.518 966.465 851.833 971.872C858.223 983.561 864.789 996.153 860.842 1009.89C856.606 1024.63 844.754 1037.69 834.105 1048.37L855.34 1060.37L680.809 1280L653.81 1280L644.386 1280L623.675 1280L617.876 1280L652.869 1159.14L658.21 1142.89L705.884 1006.77L685.219 976.431C681.471 972.544 678.612 967.467 675.713 962.924C666.789 948.935 655.347 928.724 638.351 923.966L636.911 868.473L636.757 842.541L636.622 813.021Z"/>
	<path fill="#0A1A1E" transform="matrix(0.201172 0 0 0.200781 0 -1.52588e-05)" d="M636.757 842.541C668.529 854.908 696.185 873.459 710.321 905.82C722.849 934.501 712.413 962.194 709.302 991.469C707.459 991.014 705.538 989.322 703.967 988.267C698.618 984.672 691.242 978.359 685.219 976.431C681.471 972.544 678.612 967.467 675.713 962.924C666.789 948.935 655.347 928.724 638.351 923.966L636.911 868.473L636.757 842.541Z"/>
	<path fill="#2B718C" transform="matrix(0.201172 0 0 0.200781 0 -1.52588e-05)" d="M827.525 941.251L841.343 957.553C845.079 962.006 849.518 966.465 851.833 971.872C847.936 973.569 830.746 996.247 826.981 1000.9C779.25 1059.94 735.72 1121.63 696.154 1186.42C677.593 1216.82 659.301 1247.62 644.386 1280L623.675 1280C627.295 1271.62 631.858 1263.6 636.192 1255.58L661.767 1209.96L695.778 1149.69L782.477 1012.7L813.458 963.928C818.098 956.622 823.849 949.023 827.525 941.251Z"/>
	<path fill="#0A1A1E" transform="matrix(0.201172 0 0 0.200781 0 -1.52588e-05)" d="M644.386 1280C659.301 1247.62 677.593 1216.82 696.154 1186.42C735.72 1121.63 779.25 1059.94 826.981 1000.9C830.746 996.247 847.936 973.569 851.833 971.872C858.223 983.561 864.789 996.153 860.842 1009.89C856.606 1024.63 844.754 1037.69 834.105 1048.37L855.34 1060.37L680.809 1280L653.81 1280L644.386 1280Z"/>
	<path fill="#043235" transform="matrix(0.201172 0 0 0.200781 0 -1.52588e-05)" d="M653.81 1280L834.105 1048.37L855.34 1060.37L680.809 1280L653.81 1280Z"/>
	<path fill="#1F4A61" transform="matrix(0.201172 0 0 0.200781 0 -1.52588e-05)" d="M331.541 840.162C334.904 839.366 339.199 836.129 342.479 834.58L371.615 822.039C376.487 820.049 381.754 817.388 386.878 816.252C386.345 822.499 386.3 828.739 386.218 835.003C386.181 837.863 386.539 841.466 385.986 844.23L383.795 919.798C383.571 920.498 383.302 922.021 382.906 922.567C381.704 924.226 378.353 925.202 376.819 926.948C363.236 936.469 355.787 949.205 347.77 963.309C345.627 967.078 343.433 972.092 340.314 975.106C337.736 977.597 334.033 979.377 330.961 981.231L317.848 989.768L367.05 1141.7L374.891 1164.83L405.463 1280L398.815 1280L378.376 1280L368.535 1280L339.983 1280L168.038 1061.28L188.864 1050.45C178.606 1039.33 165.146 1024.32 161.412 1009.46C157.698 994.691 165.401 982.373 172.659 970.16C177.609 960.182 187.638 950.823 195.198 942.658C225.671 911.896 257.88 884.396 294.581 861.299L331.541 840.162Z"/>
	<path fill="#0A1A1E" transform="matrix(0.201172 0 0 0.200781 0 -1.52588e-05)" d="M317.848 989.768C315.067 981.48 313.406 972.267 311.856 963.668C308.703 946.176 305.91 927.489 310.704 910.057C317.559 885.13 340.156 866.869 361.76 854.655C365.736 852.407 380.504 843.695 384.156 843.728C384.789 843.734 385.376 844.063 385.986 844.23L383.795 919.798C383.571 920.498 383.302 922.021 382.906 922.567C381.704 924.226 378.353 925.202 376.819 926.948C363.236 936.469 355.787 949.205 347.77 963.309C345.627 967.078 343.433 972.092 340.314 975.106C337.736 977.597 334.033 979.377 330.961 981.231L317.848 989.768Z"/>
	<path fill="#2B718C" transform="matrix(0.201172 0 0 0.200781 0 -1.52588e-05)" d="M172.659 970.16C177.609 960.182 187.638 950.823 195.198 942.658L248.064 1018.92L270.853 1053.02L291.905 1088.67L337.245 1165.56L377.28 1237.16C384.843 1251.26 392.859 1265.12 398.815 1280L378.376 1280C370.429 1260.11 358.413 1241.29 347.888 1222.67L272.488 1102.23C241.496 1056.65 208.582 1012 172.659 970.16Z"/>
	<path fill="#0A1A1E" transform="matrix(0.201172 0 0 0.200781 0 -1.52588e-05)" d="M172.659 970.16C208.582 1012 241.496 1056.65 272.488 1102.23L347.888 1222.67C358.413 1241.29 370.429 1260.11 378.376 1280L368.535 1280L339.983 1280L168.038 1061.28L188.864 1050.45C178.606 1039.33 165.146 1024.32 161.412 1009.46C157.698 994.691 165.401 982.373 172.659 970.16Z"/>
	<path fill="#043235" transform="matrix(0.201172 0 0 0.200781 0 -1.52588e-05)" d="M188.864 1050.45L244.891 1116.01C274.02 1150.05 302.991 1184.21 329.412 1220.44C343.538 1239.8 356.887 1258.99 368.535 1280L339.983 1280L168.038 1061.28L188.864 1050.45Z"/>
	<path fill="#C33631" transform="matrix(0.201172 0 0 0.200781 0 -1.52588e-05)" d="M635.926 784.621C636.156 789.993 636.727 795.577 636.332 800.938L636.622 813.021L636.757 842.541L636.911 868.473L638.351 923.966C655.347 928.724 666.789 948.935 675.713 962.924C678.612 967.467 681.471 972.544 685.219 976.431L705.884 1006.77L658.21 1142.89L652.869 1159.14L617.876 1280L405.463 1280L374.891 1164.83L367.05 1141.7L317.848 989.768L330.961 981.231C334.033 979.377 337.736 977.597 340.314 975.106C343.433 972.092 345.627 967.078 347.77 963.309C355.787 949.205 363.236 936.469 376.819 926.948C378.353 925.202 381.704 924.226 382.906 922.567C383.302 922.021 383.571 920.498 383.795 919.798L385.986 844.23C386.539 841.466 386.181 837.863 386.218 835.003C386.3 828.739 386.345 822.499 386.878 816.252L386.996 795.553L386.926 786.424C406.031 809.747 435.375 842.604 465.409 850.984C469.225 852.048 473.478 852.398 477.416 852.793C480.088 853.061 483.48 853.609 485.744 851.786C487.293 850.539 488.155 848.889 488.066 846.875L486.79 842.046C485.208 835.787 485.387 829.599 487.01 823.385C488.661 817.064 492.483 811.505 498.2 808.242C503.134 805.425 509.996 804.65 515.477 806.166C522.543 808.12 528.753 812.867 532.297 819.311C536.614 827.162 536.183 835.506 534.107 843.917L535.042 844.679C540.398 844.448 546.004 844.078 551.091 842.256C559.61 839.204 566.581 832.567 573.239 826.675C574.453 826.47 575.934 825.852 576.958 826.559C578.805 830.463 577.043 834.451 575.766 838.438L575.232 838.826C574.116 839.663 573.134 840.198 572.877 841.622C580.679 837.21 586.966 830.932 593.582 824.993L635.926 784.621Z"/>
	<path fill="#803722" transform="matrix(0.201172 0 0 0.200781 0 -1.52588e-05)" d="M638.808 933.863C638.814 930.995 638.447 927.379 639.053 924.617C646.306 932.583 652.474 940.408 651.939 951.863C651.731 956.33 651.036 962.217 648.909 966.181L639.612 960.009C638.165 951.617 638.833 942.387 638.808 933.863Z"/>
	<path fill="#803722" transform="matrix(0.201172 0 0 0.200781 0 -1.52588e-05)" d="M652.869 1159.14L620.271 1130.54L515.695 1215.12C517.96 1211.19 521.179 1207.94 524.002 1204.39L543.37 1180.64L615.676 1092.53C620.114 1094.96 623.639 1101.2 626.882 1105.09L658.21 1142.89L652.869 1159.14Z"/>
	<path fill="#CEE7EA" transform="matrix(0.201172 0 0 0.200781 0 -1.52588e-05)" d="M412.835 1049.41L433.049 1056.72L521.721 1200.87L511.444 1218.18L412.835 1049.41Z"/>
	<path fill="#803722" transform="matrix(0.201172 0 0 0.200781 0 -1.52588e-05)" d="M367.05 1141.7L403.452 1093.59L505.23 1211.73L435.468 1157.36L416.077 1142.08C412.674 1139.41 409.311 1136.38 405.654 1134.08L374.891 1164.83L367.05 1141.7Z"/>
	<path fill="#FEFDFD" transform="matrix(0.201172 0 0 0.200781 0 -1.52588e-05)" d="M433.049 1056.72C454.51 1062.3 476.063 1066.37 498.284 1067.36C525.887 1068.58 554.03 1064.9 580.767 1058.16L597.568 1053.22C601.177 1052 607.444 1048.49 611.032 1048.86L521.721 1200.87L433.049 1056.72Z"/>
	<path fill="#E5975F" transform="matrix(0.201172 0 0 0.200781 0 -1.52588e-05)" d="M635.926 784.621C636.156 789.993 636.727 795.577 636.332 800.938L636.622 813.021L636.757 842.541L636.911 868.473L638.351 923.966C638.376 927.163 638.109 930.749 638.808 933.863C638.833 942.387 638.165 951.617 639.612 960.009L648.909 966.181C647.65 973.111 643.789 981.13 640.996 987.669L616.713 1039.52C615.635 1041.65 610.786 1047.41 611.032 1048.86C607.444 1048.49 601.177 1052 597.568 1053.22L580.767 1058.16C554.03 1064.9 525.887 1068.58 498.284 1067.36C476.063 1066.37 454.51 1062.3 433.049 1056.72L412.835 1049.41C412.497 1048.1 411.293 1046.69 410.579 1045.53C409.061 1043.07 407.757 1040.55 406.492 1037.95L386.785 997.196L378.194 979.321C376.608 975.929 374.513 971.974 374.005 968.243C368.373 960.622 368.799 946.876 372.192 938.497C373.648 934.9 376.383 931.329 376.78 927.458L376.819 926.948C378.353 925.202 381.704 924.226 382.906 922.567C383.302 922.021 383.571 920.498 383.795 919.798L385.986 844.23C386.539 841.466 386.181 837.863 386.218 835.003C386.3 828.739 386.345 822.499 386.878 816.252L386.996 795.553L386.926 786.424C406.031 809.747 435.375 842.604 465.409 850.984C469.225 852.048 473.478 852.398 477.416 852.793C480.088 853.061 483.48 853.609 485.744 851.786C487.293 850.539 488.155 848.889 488.066 846.875L486.79 842.046C485.208 835.787 485.387 829.599 487.01 823.385C488.661 817.064 492.483 811.505 498.2 808.242C503.134 805.425 509.996 804.65 515.477 806.166C522.543 808.12 528.753 812.867 532.297 819.311C536.614 827.162 536.183 835.506 534.107 843.917L535.042 844.679C540.398 844.448 546.004 844.078 551.091 842.256C559.61 839.204 566.581 832.567 573.239 826.675C574.453 826.47 575.934 825.852 576.958 826.559C578.805 830.463 577.043 834.451 575.766 838.438L575.232 838.826C574.116 839.663 573.134 840.198 572.877 841.622C580.679 837.21 586.966 830.932 593.582 824.993L635.926 784.621Z"/>
	<path fill="#803722" transform="matrix(0.201172 0 0 0.200781 0 -1.52588e-05)" d="M376.819 926.948C378.353 925.202 381.704 924.226 382.906 922.567C383.302 922.021 383.571 920.498 383.795 919.798L382.513 960.653L374.005 968.243C368.373 960.622 368.799 946.876 372.192 938.497C373.648 934.9 376.383 931.329 376.78 927.458L376.819 926.948Z"/>
	<path fill="#BE6E43" transform="matrix(0.201172 0 0 0.200781 0 -1.52588e-05)" d="M635.926 784.621C636.156 789.993 636.727 795.577 636.332 800.938L636.622 813.021L636.757 842.541L636.911 868.473C636.044 865.799 636.287 862.083 636.178 859.233L491.796 1018.73L422.174 883.999L403.594 847.409L393.907 827.461C392.159 824.04 390.203 819.715 387.54 816.924L386.878 816.252L386.996 795.553L386.926 786.424C406.031 809.747 435.375 842.604 465.409 850.984C469.225 852.048 473.478 852.398 477.416 852.793C480.088 853.061 483.48 853.609 485.744 851.786C487.293 850.539 488.155 848.889 488.066 846.875L486.79 842.046C485.208 835.787 485.387 829.599 487.01 823.385C488.661 817.064 492.483 811.505 498.2 808.242C503.134 805.425 509.996 804.65 515.477 806.166C522.543 808.12 528.753 812.867 532.297 819.311C536.614 827.162 536.183 835.506 534.107 843.917L535.042 844.679C540.398 844.448 546.004 844.078 551.091 842.256C559.61 839.204 566.581 832.567 573.239 826.675C574.453 826.47 575.934 825.852 576.958 826.559C578.805 830.463 577.043 834.451 575.766 838.438L575.232 838.826C574.116 839.663 573.134 840.198 572.877 841.622C580.679 837.21 586.966 830.932 593.582 824.993L635.926 784.621Z"/>
	<path fill="#803722" transform="matrix(0.201172 0 0 0.200781 0 -1.52588e-05)" d="M635.926 784.621C636.156 789.993 636.727 795.577 636.332 800.938C635.534 797.375 635.737 793.337 635.631 789.678C621.988 805.259 578.193 864.582 561.41 869.197C556.183 870.634 550.372 870.838 544.982 871.409C524.082 873.627 504.601 873.607 483.699 871.901C475.297 871.215 464.156 870.828 456.674 866.779C452.476 864.508 448.377 860.543 444.796 857.381C431.566 845.697 419.339 832.261 408.046 818.684L394.997 802.682C393.08 800.253 390.523 795.963 387.907 794.421L386.996 795.553L386.926 786.424C406.031 809.747 435.375 842.604 465.409 850.984C469.225 852.048 473.478 852.398 477.416 852.793C480.088 853.061 483.48 853.609 485.744 851.786C487.293 850.539 488.155 848.889 488.066 846.875L486.79 842.046C485.208 835.787 485.387 829.599 487.01 823.385C488.661 817.064 492.483 811.505 498.2 808.242C503.134 805.425 509.996 804.65 515.477 806.166C522.543 808.12 528.753 812.867 532.297 819.311C536.614 827.162 536.183 835.506 534.107 843.917L535.042 844.679C540.398 844.448 546.004 844.078 551.091 842.256C559.61 839.204 566.581 832.567 573.239 826.675C574.453 826.47 575.934 825.852 576.958 826.559C578.805 830.463 577.043 834.451 575.766 838.438L575.232 838.826C574.116 839.663 573.134 840.198 572.877 841.622C580.679 837.21 586.966 830.932 593.582 824.993L635.926 784.621Z"/>
	<path fill="#BE6E43" transform="matrix(0.201172 0 0 0.200781 0 -1.52588e-05)" d="M573.239 826.675C574.453 826.47 575.934 825.852 576.958 826.559C578.805 830.463 577.043 834.451 575.766 838.438L575.232 838.826C574.116 839.663 573.134 840.198 572.877 841.622C566.52 848.986 553.085 852.178 543.8 852.902C540.854 853.131 537.069 853.011 534.576 851.242C533.391 848.595 533.177 846.696 534.107 843.917L535.042 844.679C540.398 844.448 546.004 844.078 551.091 842.256C559.61 839.204 566.581 832.567 573.239 826.675Z"/>
	<path fill="#52291E" transform="matrix(0.201172 0 0 0.200781 0 -1.52588e-05)" d="M120.921 540.871L116.586 525.866C123.03 524.425 129.621 522.919 135.738 520.392C150.683 514.219 162.946 502.914 171.535 489.349C189.809 460.49 191.298 426.647 194.668 393.687L199.526 361.029C223.794 227.848 304.37 107.716 442.255 76.2687C485.951 66.3028 531.513 69.9963 570.117 94.2389C576.63 98.3287 582.867 102.677 588.609 107.802L597.438 116.313C598.275 117.153 599.708 119.035 600.679 119.583C601.048 119.791 606.441 118.736 607.182 118.606C611.941 117.772 616.304 117.448 621.134 117.532C636.146 117.794 650.268 120.869 664.463 125.56C690.287 134.094 713.711 150.082 732.937 169.096C779.653 215.298 804.879 277.391 819.124 340.508C823.967 361.965 827.32 383.696 830.1 405.51C831.886 419.525 832.468 433.622 834.97 447.558C839.727 474.055 853.224 501.165 876.663 515.787C886.927 522.19 897.31 524.367 908.959 526.392L904.52 541.838C887.758 580.756 851.747 612.486 812.704 627.98L810.876 628.593L788.486 635.23L778.754 627.804C787.225 614.138 794.114 599.055 797.137 583.179C801.519 560.167 799.167 532.676 785.436 513.123C775.055 498.341 761.194 492.851 744.044 489.784C743.013 508.212 739.959 527.667 735.743 545.625C733.339 555.861 729.854 565.538 728.333 575.992L724.575 573.445C723.634 572.762 721.038 570.903 720.518 569.918C719.741 568.447 720.8 562.188 720.844 560.176L720.928 527.485L718.086 475.601C716.396 455.079 714.366 434.585 710.91 414.273L708.396 397.484C708.123 389.357 705.706 380.833 704.167 372.833L690.476 311.813C688.715 305.162 686.943 295.413 683.058 289.816C673.718 285.611 664.426 281.57 654.525 278.884C649.054 277.024 643.017 276.145 637.311 275.251C619.223 272.415 601.97 272.818 583.817 274.688C582.558 275.24 580.609 274.97 579.211 274.948C561.013 267.284 542.361 263.242 522.917 260.272L507.995 259.282L490.684 259.455C462.078 295.556 433.057 330.787 398.679 361.628C370.649 386.774 340.169 405.633 307.455 423.873C306.807 424.234 303.478 425.8 303.287 426.483C302.988 427.548 303.402 429.915 303.444 431.163L303.83 444.971C296.071 446.73 287.779 445.958 279.987 447.407L275.669 447.886C277.548 458.75 277.968 470.005 279.366 480.938C279.639 483.069 279.256 488.225 280.219 489.9C265.318 490.883 254.387 493.541 243.998 505.229C228.756 522.377 224.953 546.587 226.517 568.757C227.532 583.138 231.004 600.211 238.401 612.684L244.866 625.077C243.117 626.787 239.705 626.712 237.269 627.066C230.264 628.085 223.203 629.417 216.105 629.318L211.729 629.148C204.569 624.56 195.989 621.593 188.59 617.081C158.274 598.594 135.233 573.369 120.921 540.871Z"/>
	<path fill="#230B09" transform="matrix(0.201172 0 0 0.200781 0 -1.52588e-05)" d="M591.623 261.102C600.261 247.892 612.877 235.914 628.57 232.253C635.402 230.659 642.869 232.507 648.703 236.212L650.327 237.312L651.021 237.781C662.485 245.843 671.389 262.894 677.528 275.185C679.574 279.282 682.315 284.209 683.006 288.765C683.086 289.29 683.069 289.357 683.058 289.816C673.718 285.611 664.426 281.57 654.525 278.884C649.054 277.024 643.017 276.145 637.311 275.251C619.223 272.415 601.97 272.818 583.817 274.688C584.704 270.194 589.294 265.247 591.623 261.102Z"/>
	<path fill="#7B615C" transform="matrix(0.201172 0 0 0.200781 0 -1.52588e-05)" d="M647.753 153.37C650.401 153.048 653.535 153.471 656.211 153.692C672.606 155.046 687.43 163.197 700.171 173.121C713.8 183.738 725.247 198.345 734.596 212.713C760.361 252.31 775.882 298.487 781.784 345.244L761.496 291.941C749.926 268.469 733.254 245.48 712.888 228.927C710.468 226.961 707.216 223.619 704.361 222.653C707.864 229.951 711.557 237.226 714.413 244.806C720.94 262.13 724.989 280.412 728.184 298.61L731.212 333.75C730.062 329.499 729.668 325.026 728.542 320.715C722.035 295.795 713.427 270.037 700.19 247.86C688.663 228.546 672.274 208.847 649.585 202.916C647.814 202.453 646.156 202.079 644.32 201.965C629.296 201.032 617.033 205.924 605.782 215.73C609.372 206.644 616.849 198.038 625.698 193.794C642.82 185.581 665.119 185.319 683.273 190.071C688.669 191.484 693.986 193.735 699.223 195.677C690.498 188.036 680.351 181.247 670.013 175.989C649.561 165.586 627.715 167.633 606.634 174.528C618.306 161.762 630.515 155.313 647.753 153.37Z"/>
	<path fill="#391710" transform="matrix(0.201172 0 0 0.200781 0 -1.52588e-05)" d="M744.044 489.784L743.576 456.241C743.117 447.102 741.851 437.994 742.084 428.832C742.373 417.519 744.61 405.736 745.516 394.387C746.517 381.861 746.102 368.802 745.639 356.25C745.149 343.001 743.551 329.626 741.818 316.484C740.976 310.103 739.736 303.777 739.243 297.366C740.041 298.501 740.166 299.241 740.376 300.555C741.823 309.64 744.555 318.96 746.489 328.003L752.619 365.083L759.003 421.291C761.388 437.096 764.933 452.972 771.339 467.675C781.128 490.139 798.606 510.327 818.489 524.452C839.217 539.178 866.378 548.753 892.011 544.32C895.899 543.648 900.69 541.527 904.52 541.838C887.758 580.756 851.747 612.486 812.704 627.98L810.876 628.593L788.486 635.23L778.754 627.804C787.225 614.138 794.114 599.055 797.137 583.179C801.519 560.167 799.167 532.676 785.436 513.123C775.055 498.341 761.194 492.851 744.044 489.784Z"/>
	<path fill="#7B615C" transform="matrix(0.201172 0 0 0.200781 0 -1.52588e-05)" d="M479.877 94.6142C483.343 93.3736 491.437 94.5188 495.336 94.7544C486.075 96.3603 476.563 98.391 467.699 101.589C444.807 109.847 425.355 123.701 407.831 140.329C401.635 146.208 395.343 152.15 390.021 158.846C411.759 143.421 436.401 129.912 461.679 121.167C488.991 111.719 521.169 105.345 548.31 118.645C568.382 128.48 580.69 151.14 587.543 171.381C580.79 162.3 574.494 154.612 565.216 147.912C555.273 140.734 543.009 136.818 530.755 138.955C508.37 142.858 488.691 156.36 471.434 170.479C447.259 190.259 426.679 212.952 406.307 236.476L384.694 261.376L346.952 310.898C349.31 301.778 353.951 292.732 357.814 284.141C368.672 259.989 380.972 236.903 394.901 214.387L412.328 188.012C408.865 189.893 405.314 194.047 402.318 196.744L375.652 220.917C345.076 253.366 316.434 288.927 279.062 313.971C263.392 324.472 246.076 332.608 228.402 339.111C237.842 332.862 247.439 326.818 256.172 319.588C305.439 278.802 334.87 220.267 373.733 170.545C361.364 176.779 349.874 184.569 338.702 192.713C317.274 208.334 298.068 225.933 281.472 246.665L268.724 263.81C266.318 267.358 264.363 271.4 261.534 274.599C263.584 268.253 266.908 262.196 269.828 256.211C281.722 231.835 296.251 209 313.221 187.839C354.818 135.968 413.551 101.973 479.877 94.6142Z"/>
	<path fill="#391710" transform="matrix(0.201172 0 0 0.200781 0 -1.52588e-05)" d="M120.921 540.871C138.358 546.01 158.007 544.76 174.781 537.796C220.42 518.848 252.425 473.694 270.317 429.285L234.619 428.535C267.121 419.659 297.655 406.276 326.149 388.264C377.532 355.782 419.86 310.726 458.255 264.097L487.862 226.502C495.051 217.268 501.942 207.928 510.471 199.859C518.354 192.401 530.921 184 542.27 184.51C552.226 184.958 560.689 191.301 567.156 198.361C583.964 216.71 585.243 242.979 584.045 266.4L589.886 247.456C592.208 240.451 595.6 237.216 602.035 233.983L596.093 243.492C594.008 247.619 589.888 256.262 591.446 260.651L591.623 261.102C589.294 265.247 584.704 270.194 583.817 274.688C582.558 275.24 580.609 274.97 579.211 274.948C561.013 267.284 542.361 263.242 522.917 260.272L507.995 259.282L490.684 259.455C462.078 295.556 433.057 330.787 398.679 361.628C370.649 386.774 340.169 405.633 307.455 423.873C306.807 424.234 303.478 425.8 303.287 426.483C302.988 427.548 303.402 429.915 303.444 431.163L303.83 444.971C296.071 446.73 287.779 445.958 279.987 447.407L275.669 447.886C277.548 458.75 277.968 470.005 279.366 480.938C279.639 483.069 279.256 488.225 280.219 489.9C265.318 490.883 254.387 493.541 243.998 505.229C228.756 522.377 224.953 546.587 226.517 568.757C227.532 583.138 231.004 600.211 238.401 612.684L244.866 625.077C243.117 626.787 239.705 626.712 237.269 627.066C230.264 628.085 223.203 629.417 216.105 629.318L211.729 629.148C204.569 624.56 195.989 621.593 188.59 617.081C158.274 598.594 135.233 573.369 120.921 540.871Z"/>
	<path fill="#230B09" transform="matrix(0.201172 0 0 0.200781 0 -1.52588e-05)" d="M507.995 259.282L507.527 259.132C502.716 257.747 495.798 258.628 490.766 258.922C497.317 249.743 503.842 240.897 511.468 232.579C515.698 227.965 520.738 222.831 527.197 221.668C536.309 220.027 547.806 226.336 554.767 231.596C567.693 241.364 577.087 258.19 579.119 274.176L579.211 274.948C561.013 267.284 542.361 263.242 522.917 260.272L507.995 259.282Z"/>
	<path fill="#F6C492" transform="matrix(0.201172 0 0 0.200781 0 -1.52588e-05)" d="M507.995 259.282L522.917 260.272C542.361 263.242 561.013 267.284 579.211 274.948C580.609 274.97 582.558 275.24 583.817 274.688C601.97 272.818 619.223 272.415 637.311 275.251C643.017 276.145 649.054 277.024 654.525 278.884C664.426 281.57 673.718 285.611 683.058 289.816C686.943 295.413 688.715 305.162 690.476 311.813L704.167 372.833C705.706 380.833 708.123 389.357 708.396 397.484L710.91 414.273C714.366 434.585 716.396 455.079 718.086 475.601L720.928 527.485L720.844 560.176C720.8 562.188 719.741 568.447 720.518 569.918C721.038 570.903 723.634 572.762 724.575 573.445L728.333 575.992C729.854 565.538 733.339 555.861 735.743 545.625C739.959 527.667 743.013 508.212 744.044 489.784C761.194 492.851 775.055 498.341 785.436 513.123C799.167 532.676 801.519 560.167 797.137 583.179C794.114 599.055 787.225 614.138 778.754 627.804L774.835 633.655C765.771 644.873 754.83 658.083 741.4 664.066C738.819 665.216 735.831 666.534 732.991 666.809C727.244 667.365 722.881 666.942 717.538 664.756C708.427 684.102 698.689 702.893 687.797 721.306C682.253 730.678 676.802 740.208 670.082 748.811C660.141 761.538 647.754 773.623 635.926 784.621L593.582 824.993C586.966 830.932 580.679 837.21 572.877 841.622C573.134 840.198 574.116 839.663 575.232 838.826L575.766 838.438C577.043 834.451 578.805 830.463 576.958 826.559C575.934 825.852 574.453 826.47 573.239 826.675C566.581 832.567 559.61 839.204 551.091 842.256C546.004 844.078 540.398 844.448 535.042 844.679L534.107 843.917C536.183 835.506 536.614 827.162 532.297 819.311C528.753 812.867 522.543 808.12 515.477 806.166C509.996 804.65 503.134 805.425 498.2 808.242C492.483 811.505 488.661 817.064 487.01 823.385C485.387 829.599 485.208 835.787 486.79 842.046L488.066 846.875C488.155 848.889 487.293 850.539 485.744 851.786C483.48 853.609 480.088 853.061 477.416 852.793C473.478 852.398 469.225 852.048 465.409 850.984C435.375 842.604 406.031 809.747 386.926 786.424C384.412 781.93 380.31 777.8 377.054 773.774C371.163 766.488 365.449 759.162 360.423 751.242C359.127 748.538 355.824 745.36 353.869 742.872L338.702 723.625C334.444 718.435 329.743 713.44 325.95 707.892C318.355 696.781 315.152 683.466 309.828 671.268C288.994 666.59 273.472 656.782 258.486 641.909L244.866 625.077L238.401 612.684C231.004 600.211 227.532 583.138 226.517 568.757C224.953 546.587 228.756 522.377 243.998 505.229C254.387 493.541 265.318 490.883 280.219 489.9C279.256 488.225 279.639 483.069 279.366 480.938C277.968 470.005 277.548 458.75 275.669 447.886L279.987 447.407C287.779 445.958 296.071 446.73 303.83 444.971L303.444 431.163C303.402 429.915 302.988 427.548 303.287 426.483C303.478 425.8 306.807 424.234 307.455 423.873C340.169 405.633 370.649 386.774 398.679 361.628C433.057 330.787 462.078 295.556 490.684 259.455L507.995 259.282Z"/>
	<path fill="#E5975F" transform="matrix(0.201172 0 0 0.200781 0 -1.52588e-05)" d="M534.771 744.661C536.088 744.397 535.753 744.446 536.76 745.099C535.522 747.674 531.722 750.918 529.2 752.291C525.107 754.52 521.335 756.233 516.675 756.983L515.798 757.115C506.3 758.599 498.967 756.73 490.569 752.513C487.654 750.79 485.275 748.689 482.768 746.429C488.208 745.402 494.858 745.819 500.476 745.672L534.771 744.661Z"/>
	<path fill="#0A1A1E" transform="matrix(0.201172 0 0 0.200781 0 -1.52588e-05)" d="M350.088 527.797L349.877 527.978C348.841 524.996 348.816 521.922 348.543 518.806C347.183 503.287 353.359 487.27 363.349 475.57C372.262 465.131 384.487 458.552 398.29 457.812C409.835 457.194 420.563 461.966 429.108 469.478C437.053 476.463 445.525 487.811 446.179 498.742C439.629 485.813 430.125 472.296 415.726 467.505C404.453 463.755 391.452 464.454 380.802 469.86C366.854 476.939 356.74 490.056 352.141 504.861C349.799 512.397 349.642 519.976 350.088 527.797Z"/>
	<path fill="#0A1A1E" transform="matrix(0.201172 0 0 0.200781 0 -1.52588e-05)" d="M576.578 499.453C576.086 491.429 583.317 481.367 588.365 475.628C597.491 465.253 608.744 459.224 622.591 458.328C635.276 457.507 647.191 462.772 656.483 471.145C669.592 482.958 675.578 500.961 676.326 518.191C676.434 520.677 676.633 523.004 675.333 525.156C675.275 519.023 674.346 512.639 672.705 506.731C668.856 492.872 657.963 478.394 645.289 471.514C635.701 466.309 623.031 463.673 612.337 466.954C595.021 472.267 584.747 483.717 576.578 499.453Z"/>
	<path fill="#E5975F" transform="matrix(0.201172 0 0 0.200781 0 -1.52588e-05)" d="M654.525 278.884C664.426 281.57 673.718 285.611 683.058 289.816C686.943 295.413 688.715 305.162 690.476 311.813L704.167 372.833C705.706 380.833 708.123 389.357 708.396 397.484C703.729 389.582 703.294 378.459 700.526 369.687C690.205 336.981 676.782 305.366 654.525 278.884Z"/>
	<path fill="#BE6E43" transform="matrix(0.201172 0 0 0.200781 0 -1.52588e-05)" d="M360.423 751.242C364.002 753.021 366.599 756.779 369.228 759.745L381.807 773.577C402.16 795.287 454.758 848.365 486.177 844.168L486.79 842.046L488.066 846.875C488.155 848.889 487.293 850.539 485.744 851.786C483.48 853.609 480.088 853.061 477.416 852.793C473.478 852.398 469.225 852.048 465.409 850.984C435.375 842.604 406.031 809.747 386.926 786.424C384.412 781.93 380.31 777.8 377.054 773.774C371.163 766.488 365.449 759.162 360.423 751.242Z"/>
	<path fill="#BE6E43" transform="matrix(0.201172 0 0 0.200781 0 -1.52588e-05)" d="M602.938 693.141C605.078 693.477 605.913 693.88 607.534 695.312L607.407 698.438C606.869 699.15 606.277 699.87 605.539 700.386C601.878 702.946 593 704.161 588.556 705.423C540.396 719.097 488.153 721.23 438.63 715.441C435.985 715.021 433.848 714.662 431.898 712.686C431.288 712.068 431.601 710.562 431.62 709.688C433.531 706.969 434.415 707.214 437.648 707.568C451.487 709.084 465.143 709.099 479.045 709.193L506.246 709.23C538.864 707.93 571.717 702.662 602.938 693.141Z"/>
	<path fill="#E5975F" transform="matrix(0.201172 0 0 0.200781 0 -1.52588e-05)" d="M541.765 585.791C549.292 595.501 554.641 609.279 558.216 620.956C554.014 629.404 548.432 637.432 542.525 644.795C537.036 651.639 528.751 658.532 519.658 659.377C506.019 660.645 494.448 653.102 484.571 644.763C478.238 638.646 473.921 631.802 469.355 624.367C490.237 633.441 511.802 637.789 534.17 631.027C539.004 629.565 545.52 627.733 548.008 622.832C552.401 614.177 544.795 594.602 541.765 585.791Z"/>
	<path fill="#BE6E43" transform="matrix(0.201172 0 0 0.200781 0 -1.52588e-05)" d="M237.436 565.874C239.234 554.126 242.715 543.216 252.733 535.891C256.296 533.286 260.977 531.262 265.465 531.877C270.14 532.518 273.829 536.585 276.35 540.309C281.006 547.187 283.225 556.284 284.963 564.287C286.393 570.869 287.742 577.506 288.121 584.245C288.46 590.262 287.898 596.376 288.852 602.346C290.817 614.642 294.499 626.492 298.564 638.234L295.697 636.914C279.85 629.143 268.618 617.328 262.902 600.487C256.331 581.128 261.648 564.99 270.361 547.46L264.864 547.576C256.142 548.244 247.62 550.871 242.327 558.401C240.673 560.753 239.718 563.285 237.785 565.488L237.436 565.874Z"/>
	<path fill="#52291E" transform="matrix(0.201172 0 0 0.200781 0 -1.52588e-05)" d="M280.219 489.9C279.256 488.225 279.639 483.069 279.366 480.938C277.968 470.005 277.548 458.75 275.669 447.886L279.987 447.407C287.779 445.958 296.071 446.73 303.83 444.971L305.032 565.219L290.958 579.33C290.014 570.252 281.968 491.785 280.219 489.9Z"/>
	<path fill="#E5975F" transform="matrix(0.201172 0 0 0.200781 0 -1.52588e-05)" d="M237.436 565.874L237.785 565.488C239.718 563.285 240.673 560.753 242.327 558.401C247.62 550.871 256.142 548.244 264.864 547.576L270.361 547.46C261.648 564.99 256.331 581.128 262.902 600.487C268.618 617.328 279.85 629.143 295.697 636.914L298.564 638.234C301.021 643.545 302.611 649.128 304.505 654.65C306.398 660.168 308.556 665.563 309.828 671.268C288.994 666.59 273.472 656.782 258.486 641.909L244.866 625.077L238.401 612.684C240.193 606.594 237.234 599.027 236.518 592.909C235.483 584.078 235.322 574.557 237.436 565.874Z"/>
	<path fill="#803722" transform="matrix(0.201172 0 0 0.200781 0 -1.52588e-05)" d="M403.907 394.914C420.717 395.632 445.721 397.331 458.031 410.357C461.789 414.334 461.639 419.771 461.301 424.833L460.286 437.825C441.615 434.068 422.731 433.013 403.738 432.372C379.288 431.546 355.297 430.663 331.83 438.666L332.028 438.24L332.389 437.545C334.168 434.074 336.773 431.34 339.345 428.441C347.284 419.495 358.284 410.523 368.527 404.307C372.818 401.703 379.236 399.621 382.719 396.061L382.818 395.91C389.342 394.178 397.153 394.903 403.907 394.914Z"/>
	<path fill="#803722" transform="matrix(0.201172 0 0 0.200781 0 -1.52588e-05)" d="M614.347 395.885C623.997 394.443 637.098 395.802 646.408 398.393C668.64 404.58 683.685 420.203 694.802 439.744C692.652 439.718 689.987 438.348 687.947 437.644C684.22 436.357 680.426 435.18 676.576 434.318C666.684 432.104 656.884 431.965 646.807 431.809L586.706 434.512L572.015 436.261C569.508 436.655 565.417 437.988 563.067 437.52L562.981 436.782C562.087 429.12 559.936 417.709 565.293 411.378C576.01 398.713 598.845 397.325 614.347 395.885Z"/>
	<path fill="#E5975F" transform="matrix(0.201172 0 0 0.200781 0 -1.52588e-05)" d="M507.995 259.282L522.917 260.272C519.64 261.11 517.469 263.294 515.166 265.637L453.083 332.381L389.584 394.013L389.489 394.498C394.187 394.425 399.298 393.94 403.907 394.914C397.153 394.903 389.342 394.178 382.818 395.91L382.719 396.061C379.236 399.621 372.818 401.703 368.527 404.307C358.284 410.523 347.284 419.495 339.345 428.441C336.773 431.34 334.168 434.074 332.389 437.545L332.028 438.24L331.83 438.666L319.14 444.355C318.275 443.734 318.54 444.146 318.316 443.139C314.838 441.746 307.341 443.718 303.83 444.971L303.444 431.163C303.402 429.915 302.988 427.548 303.287 426.483C303.478 425.8 306.807 424.234 307.455 423.873C340.169 405.633 370.649 386.774 398.679 361.628C433.057 330.787 462.078 295.556 490.684 259.455L507.995 259.282Z"/>
	<path fill="#52291E" transform="matrix(0.201172 0 0 0.200781 0 -1.52588e-05)" d="M318.316 443.139L322.963 436.645C337.355 415.406 357.169 400.947 382.719 396.061C379.236 399.621 372.818 401.703 368.527 404.307C358.284 410.523 347.284 419.495 339.345 428.441C336.773 431.34 334.168 434.074 332.389 437.545L332.028 438.24L331.83 438.666L319.14 444.355C318.275 443.734 318.54 444.146 318.316 443.139Z"/>
	<path fill="#FEFDFD" transform="matrix(0.201172 0 0 0.200781 0 -1.52588e-05)" d="M350.088 527.797C349.642 519.976 349.799 512.397 352.141 504.861C356.74 490.056 366.854 476.939 380.802 469.86C391.452 464.454 404.453 463.755 415.726 467.505C430.125 472.296 439.629 485.813 446.179 498.742C451.392 512.253 451.593 525.436 445.729 538.76C440.572 550.478 430.99 560.575 418.897 565.128C405.982 569.991 390.947 569.757 378.416 563.888C366.272 558.202 356.536 547.66 352.233 534.886C351.511 532.742 351.336 529.607 350.088 527.797Z"/>
	<path fill="#803722" transform="matrix(0.201172 0 0 0.200781 0 -1.52588e-05)" d="M401.674 477.582C406.871 477.014 411.819 477.01 416.656 479.128C424.011 482.348 429.13 489.659 431.962 496.911C436.903 509.564 436.086 524.481 430.574 536.778C426.324 546.26 420.297 550.986 410.78 554.647C406.794 555.424 402.258 554.989 398.437 553.651C390.98 551.041 385.46 544.279 382.304 537.282C376.432 524.261 376.426 509.988 381.611 496.782C385.506 486.861 392.161 481.706 401.674 477.582Z"/>
	<path fill="#FEFDFD" transform="matrix(0.201172 0 0 0.200781 0 -1.52588e-05)" d="M393.105 510.222L390.408 508.54C387.528 506.226 385.586 502.979 385.271 499.277C385.008 496.181 386.221 493.059 388.254 490.763C390.531 488.192 393.762 486.292 397.284 486.29C400.367 486.288 403.254 487.513 405.315 489.803C408.913 493.799 408.603 498.594 408.172 503.55C405.459 507.001 403.272 510.101 398.635 510.823C396.881 511.096 394.846 510.544 393.105 510.222Z"/>
	<path fill="#0A1A1E" transform="matrix(0.201172 0 0 0.200781 0 -1.52588e-05)" d="M408.172 503.55C411.844 503.979 415.681 506.245 417.955 509.161C421.287 513.435 422.334 518.715 421.411 523.961C420.521 529.014 416.799 533.009 412.618 535.716C409.793 537.544 407.49 537.623 404.318 536.86C400.132 535.853 397.076 533.085 394.911 529.445C392.271 525.006 390.74 516.885 392.323 511.874C392.507 511.291 392.796 510.746 393.105 510.222C394.846 510.544 396.881 511.096 398.635 510.823C403.272 510.101 405.459 507.001 408.172 503.55Z"/>
	<path fill="#FEFDFD" transform="matrix(0.201172 0 0 0.200781 0 -1.52588e-05)" d="M576.578 499.453C584.747 483.717 595.021 472.267 612.337 466.954C623.031 463.673 635.701 466.309 645.289 471.514C657.963 478.394 668.856 492.872 672.705 506.731C674.346 512.639 675.275 519.023 675.333 525.156L675.254 526.253C673.477 538.176 665.513 549.973 656.112 557.265C644.37 566.372 630.547 570.097 615.872 567.895C602.732 565.923 590.319 556.649 582.715 546.144C575.534 536.222 571.427 520.963 573.248 508.75C573.748 505.396 575.175 502.511 576.578 499.453Z"/>
	<path fill="#803722" transform="matrix(0.201172 0 0 0.200781 0 -1.52588e-05)" d="M617.504 477.748C622.919 478.397 627.452 479.244 632.223 482.029C640.102 486.628 644.237 494.723 646.431 503.294C649.719 516.139 648.602 530.337 641.582 541.759C636.942 549.308 629.924 552.627 621.625 554.659C615.65 554.315 610.958 553.263 605.871 549.985C597.791 544.777 592.703 535.388 590.768 526.152C588.201 513.895 589.94 499.638 597.105 489.2C601.946 482.148 609.391 479.139 617.504 477.748Z"/>
	<path fill="#FEFDFD" transform="matrix(0.201172 0 0 0.200781 0 -1.52588e-05)" d="M603.964 510.709L602.434 510.177C599.334 508.851 596.447 506.523 595.27 503.284C594.042 499.906 594.397 496.104 596.114 492.959C597.606 490.227 600.801 487.485 603.897 486.88C606.362 486.398 609.002 486.83 611.087 488.244C614.636 490.651 615.859 494.84 616.523 498.837C615.542 503.078 614.928 506.842 610.766 509.201C608.809 510.31 606.167 510.45 603.964 510.709Z"/>
	<path fill="#0A1A1E" transform="matrix(0.201172 0 0 0.200781 0 -1.52588e-05)" d="M616.523 498.837C619.166 498.423 621.617 498.802 624.214 499.283C627.082 499.815 630.436 501.985 632.103 504.409C635.344 509.121 636.612 516.09 635.336 521.704C634.179 526.792 631.006 531.695 626.474 534.371C623.354 536.213 618.596 537.144 615.063 536.156C611.419 535.138 607.644 531.786 605.859 528.469C603.533 524.147 602.112 515.996 603.718 511.257L603.964 510.709C606.167 510.45 608.809 510.31 610.766 509.201C614.928 506.842 615.542 503.078 616.523 498.837Z"/>
	<defs>
		<linearGradient id="gradient_0" gradientUnits="userSpaceOnUse" x1="562.59619" y1="635.0155" x2="801.54785" y2="619.29749">
			<stop offset="0" stop-color="#CB7A44"/>
			<stop offset="1" stop-color="#F3B177"/>
		</linearGradient>
	</defs>
	<path fill="url(#gradient_0)" transform="matrix(0.201172 0 0 0.200781 0 -1.52588e-05)" d="M710.91 414.273C714.366 434.585 716.396 455.079 718.086 475.601L720.928 527.485L720.844 560.176C720.8 562.188 719.741 568.447 720.518 569.918C721.038 570.903 723.634 572.762 724.575 573.445L728.333 575.992C729.854 565.538 733.339 555.861 735.743 545.625C739.959 527.667 743.013 508.212 744.044 489.784C761.194 492.851 775.055 498.341 785.436 513.123C799.167 532.676 801.519 560.167 797.137 583.179C794.114 599.055 787.225 614.138 778.754 627.804L774.835 633.655C765.771 644.873 754.83 658.083 741.4 664.066C738.819 665.216 735.831 666.534 732.991 666.809C727.244 667.365 722.881 666.942 717.538 664.756C708.427 684.102 698.689 702.893 687.797 721.306C682.253 730.678 676.802 740.208 670.082 748.811C660.141 761.538 647.754 773.623 635.926 784.621L593.582 824.993C586.966 830.932 580.679 837.21 572.877 841.622C573.134 840.198 574.116 839.663 575.232 838.826L575.766 838.438C577.043 834.451 578.805 830.463 576.958 826.559C575.934 825.852 574.453 826.47 573.239 826.675C579.134 820.256 585.898 814.368 592.136 808.263C611.754 789.062 632.178 769.482 648.403 747.262C659.319 732.312 665.807 713.998 671.973 696.704C683.758 663.65 692.768 629.757 697.983 595.028C702.727 563.437 704.551 531.435 706.188 499.56L708.56 455.769L709.425 430.673C709.56 427.275 709.334 422.308 710.486 419.136C711.111 417.416 710.994 416.078 710.91 414.273Z"/>
	<path fill="#BE6E43" transform="matrix(0.201172 0 0 0.200781 0 -1.52588e-05)" d="M764.514 531.997C768.946 532.317 772.568 532.917 775.646 536.531C783.476 545.724 784.447 560.11 783.57 571.606L782.179 563.991C781.027 558.883 777.777 552.913 773.228 550.167C768.266 547.172 761.945 549.125 756.749 550.429C760.695 556.495 764.234 562.647 766.418 569.597C770.837 583.659 769.478 598.995 762.666 612.018L760.031 616.168C752.401 626.915 743.32 631.215 730.548 633.38L737.143 594.095C739.626 577.136 737.231 559.107 746.99 544.03C751.228 537.485 756.929 533.607 764.514 531.997Z"/>
</svg>
