<?xml version="1.0" encoding="utf-8" ?>
<svg xmlns="http://www.w3.org/2000/svg" xmlns:xlink="http://www.w3.org/1999/xlink" width="206" height="257">
	<path fill="#51B2BD" transform="matrix(0.201172 0 0 0.200781 0 -1.52588e-05)" d="M-0 -0L1024 0L1024 1280L-0 1280L0 -0Z"/>
	<path fill="#553729" transform="matrix(0.201172 0 0 0.200781 0 -1.52588e-05)" d="M790.929 501.759C795.397 500.258 799.56 497.604 803.895 495.692C816.116 509.582 828.766 520.58 846.636 526.639C851.649 528.339 857.039 529.212 862.201 530.367C860.852 533.017 859.37 535.396 857.647 537.82C849.729 538.168 842.399 540.116 834.627 541.478C829.25 542.42 822.1 542.431 816.737 541.448L795.332 536.3C797.193 524.511 794.744 512.886 790.929 501.759Z"/>
	<path fill="#362119" transform="matrix(0.201172 0 0 0.200781 0 -1.52588e-05)" d="M795.332 536.3L816.737 541.448C822.1 542.431 829.25 542.42 834.627 541.478C842.399 540.116 849.729 538.168 857.647 537.82C851.091 546.963 844.246 555.823 836.142 563.665C817.556 581.652 791.222 595.861 765.742 600.636L765.158 600.715L763.401 599.867C780.424 580.56 790.207 561.619 795.332 536.3Z"/>
	<path fill="#0A3853" transform="matrix(0.201172 0 0 0.200781 0 -1.52588e-05)" d="M870.782 1019.29C876.972 1031.3 882.197 1043.44 885.545 1056.56C890.154 1074.63 890.883 1093.89 892.989 1112.37L904.756 1213.56L794.628 1213.31L804.515 1128.8C812.052 1093.61 824.571 1056.19 852.554 1031.83C858.176 1026.94 864.56 1023.32 870.782 1019.29Z"/>
	<path fill="#362119" transform="matrix(0.201172 0 0 0.200781 0 -1.52588e-05)" d="M763.401 599.867L765.158 600.715C763.476 602.235 763.008 602.92 762.867 605.312C762.572 610.299 763.197 615.726 763.664 620.689C765.455 639.756 770.556 654.826 783.941 668.947C787.925 673.149 793.586 676.439 797.013 680.938C796.049 681.805 795.829 682.01 794.579 682.3C776.897 687.914 759.142 689.415 741.094 684.68C733.823 720.657 720.242 755.396 688.465 776.631L684.272 779.31C681.223 765.155 677.94 750.961 670.188 738.513C665.564 746.281 660.84 753.921 655.003 760.853C639.383 779.403 618.728 790.509 595.767 797.418C595.033 793.072 595.427 788.029 595.341 783.591C596.06 780.706 595.591 776.903 595.61 773.865L595.736 750.705C619.67 732.763 641.602 711.44 660.702 688.438C677.476 668.236 692.385 647.118 699.146 621.386C703.762 622.096 708.583 622.107 713.244 621.805C730.069 619.918 745.541 614.129 758.807 603.482L763.401 599.867Z"/>
	<path fill="#553729" transform="matrix(0.201172 0 0 0.200781 0 -1.52588e-05)" d="M763.401 599.867L765.158 600.715C763.476 602.235 763.008 602.92 762.867 605.312C762.572 610.299 763.197 615.726 763.664 620.689C765.455 639.756 770.556 654.826 783.941 668.947C787.925 673.149 793.586 676.439 797.013 680.938C796.049 681.805 795.829 682.01 794.579 682.3C791.561 680.307 786.081 680.54 782.516 680.073C779.375 679.66 776.215 678.818 773.118 678.136C752.691 673.634 732.316 657.008 721.769 639.198C718.7 634.017 717.085 627.465 713.818 622.628L713.244 621.805C730.069 619.918 745.541 614.129 758.807 603.482L763.401 599.867Z"/>
	<path fill="#362119" transform="matrix(0.201172 0 0 0.200781 0 -1.52588e-05)" d="M223.333 568.458C228.07 569.827 232.535 571.431 237.514 571.33L238.727 570.458C248.417 584.616 259.35 597.467 272.631 608.411C282.034 615.2 290.974 619.658 302.574 621.153C308.196 621.878 313.657 621.983 319.313 621.484C319.651 621.454 323.437 621.041 323.462 621.061C324.465 621.858 327.056 629.816 327.803 631.529C331.626 640.296 335.98 648.757 340.977 656.914C359.213 686.678 384.106 712.971 410.515 735.666C416.343 740.674 422.463 746.274 428.957 750.391L430.108 787.342L429.54 795.514C409.166 786.833 387.902 776.835 371.487 761.652C362.547 753.383 355.344 744.084 347.852 734.529C346.216 755.335 347.489 774.112 356.873 793.269C335.437 787.264 318.019 779.298 302.066 763.376C284.215 745.56 273.858 720.643 271.534 695.72C270.974 689.717 271.258 683.532 271.277 677.505C249.828 677.702 227.117 674.556 207.058 666.74C200.387 664.14 193.902 660.487 187.502 657.266L185.1 655.938C185.641 653.217 190.727 650.735 192.96 649.065C195.206 647.384 197.293 645.417 199.278 643.438C219.877 622.895 223.217 596.182 223.333 568.458Z"/>
	<path fill="#553729" transform="matrix(0.201172 0 0 0.200781 0 -1.52588e-05)" d="M223.333 568.458C228.07 569.827 232.535 571.431 237.514 571.33L238.727 570.458C248.417 584.616 259.35 597.467 272.631 608.411C270.103 612.802 268.235 617.497 265.652 621.872C256.558 637.273 243 648.703 225.556 653.465C218.678 655.342 211.631 656.679 204.492 656.884C199.285 657.034 192.386 655.971 187.502 657.266L185.1 655.938C185.641 653.217 190.727 650.735 192.96 649.065C195.206 647.384 197.293 645.417 199.278 643.438C219.877 622.895 223.217 596.182 223.333 568.458Z"/>
	<path fill="#553729" transform="matrix(0.201172 0 0 0.200781 0 -1.52588e-05)" d="M638.23 158.155C648.447 147.882 661.571 141.653 676.183 141.545C698.874 141.375 722.089 156.92 737.595 172.384C744.125 178.897 750.514 185.423 756.22 192.687C776.946 219.074 790.533 249.922 798.962 282.234C803.213 298.527 805.923 315.453 807.86 332.183C809.462 346.015 809.756 360.188 812.428 373.869C818.337 404.123 836.357 431.534 868.84 435.956L862.627 446.557C848.325 468.906 827.763 484.459 803.895 495.692C799.56 497.604 795.397 500.258 790.929 501.759L787.856 495.292C781.082 482.942 767.228 469.827 753.233 466.397C750.913 465.829 747.332 465.611 745.286 466.934C744.906 464.883 743.675 463.074 742.784 461.208C741.233 457.958 739.809 453.837 739.677 450.237C738.274 446.225 738.813 440.701 738.55 436.388L722.974 426.746C721.193 424.269 717.19 422.046 714.737 420.097C706.973 413.927 700.861 405.912 696.293 397.156C685.819 377.077 684.023 353.706 684.935 331.424L686.261 311.73C686.383 310.406 687.272 305.958 686.944 305C686.747 304.426 686.242 304.009 685.891 303.514L686.317 302.285C686.689 300.416 686.167 298.083 686.053 296.181C685.061 279.58 679.866 260.043 669.748 246.505C666.811 242.575 661.246 236.794 656.102 236.166L655.473 236.099C647.223 235.084 641.79 238.2 635.155 242.503C624.849 249.188 618.616 261.475 612.657 271.844C613.878 263.412 615.85 256.042 617.915 247.79C621.016 235.397 623.466 224.054 630.811 213.33C639.453 200.712 652.68 189.426 668.078 186.596C669.789 186.282 671.362 185.836 673.01 185.283C670.216 185.064 667.652 184.911 664.868 185.366L663.912 185.532C649.7 187.879 639.831 197.647 630.027 207.344C631.618 198.879 635.039 189.937 637.543 181.663C638.889 177.215 640.716 171.893 640.433 167.186C640.251 164.165 639.099 161.04 638.23 158.155Z"/>
	<path fill="#1B1613" transform="matrix(0.201172 0 0 0.200781 0 -1.52588e-05)" d="M719.85 335.938C721.579 341.429 722.005 347.858 722.982 353.561C724.685 363.496 728.275 373.42 732.885 382.376C745.129 406.166 765.6 425.809 790.476 435.871C795.587 437.938 800.784 438.516 805.915 440.169L806.348 440.312C805.056 440.53 803.691 440.508 802.383 440.438C798.253 440.218 793.963 438.295 790.165 436.832C770.802 429.376 752.892 417.752 739.086 402.203C722.77 383.827 718.314 359.857 719.85 335.938Z"/>
	<path fill="#362119" transform="matrix(0.201172 0 0 0.200781 0 -1.52588e-05)" d="M739.677 450.237C740.767 445.986 739.741 440.362 739.464 435.963C754.402 445.423 770.167 454.173 787.548 458.123C803.92 461.842 821.655 460.282 837.679 455.789C841.472 454.725 845.499 453.197 849.05 451.495C853.366 449.426 856.99 447.124 861.837 446.632L862.627 446.557C848.325 468.906 827.763 484.459 803.895 495.692C799.56 497.604 795.397 500.258 790.929 501.759L787.856 495.292C781.082 482.942 767.228 469.827 753.233 466.397C750.913 465.829 747.332 465.611 745.286 466.934C744.906 464.883 743.675 463.074 742.784 461.208C741.233 457.958 739.809 453.837 739.677 450.237Z"/>
	<path fill="#876657" transform="matrix(0.201172 0 0 0.200781 0 -1.52588e-05)" d="M682.971 175.27C695.619 175.617 706.049 177.406 716.425 185.081C727.815 193.506 736.011 207.813 742.884 219.917C755.485 242.112 765.928 265.306 773.726 289.617C776.506 298.286 779.312 306.773 780.685 315.798C777.484 311.215 774.908 306.232 771.846 301.546C757.825 280.09 743.718 261.257 722.78 245.938C721.922 245.852 721.805 246.015 721.049 246.363L723.709 309.625C714.564 283.31 710.65 255.392 692.76 232.754C688.949 227.932 684.145 223.524 679.811 219.155C693.939 219.447 706.048 222.613 719.113 227.688C711.872 208.526 701.048 194.649 683.23 184.282C678.231 181.374 672.777 179.162 667.562 176.667L682.971 175.27Z"/>
	<path fill="#0A3853" transform="matrix(0.201172 0 0 0.200781 0 -1.52588e-05)" d="M683.366 905.69L769.118 947.706C792.719 959.227 818.227 970.508 839.452 986.074C849.058 993.119 857.295 1001.61 864.94 1010.69L870.782 1019.29C864.56 1023.32 858.176 1026.94 852.554 1031.83C824.571 1056.19 812.052 1093.61 804.515 1128.8L794.628 1213.31L765.062 1213.32L514.657 1213.32L515.321 1212.8C516.578 1209.21 515.744 1203.1 515.735 1199.1L515.398 1158.44C515.417 1155.22 515.174 1152.17 516.973 1149.41C518.988 1146.33 522.696 1143.34 525.317 1140.72L542.994 1123.09L612.419 1053.73L660.761 1078.98C667.216 1082.37 675.26 1088.27 682.214 1089.96C682.929 1090.13 683.139 1089.75 683.731 1089.38L683.305 1087.95C684.154 1081.29 683.456 1074.19 683.36 1067.47L683.308 1038.31L683.27 958.125L683.366 905.69Z"/>
	<path fill="#032637" transform="matrix(0.201172 0 0 0.200781 0 -1.52588e-05)" d="M765.062 1213.32C765.031 1203.97 767.046 1194.55 768.674 1185.38C774.209 1154.19 782.194 1123.88 794.804 1094.74C806.37 1068.02 822.374 1036.33 847.092 1019.48C852.765 1015.62 858.59 1013.21 864.94 1010.69L870.782 1019.29C864.56 1023.32 858.176 1026.94 852.554 1031.83C824.571 1056.19 812.052 1093.61 804.515 1128.8L794.628 1213.31L765.062 1213.32Z"/>
	<path fill="#553729" transform="matrix(0.201172 0 0 0.200781 0 -1.52588e-05)" d="M128.117 341.86C136.422 341.721 144.778 343.366 153.143 342.313C185.126 338.288 214.256 316.442 230.657 289.241C235.297 281.544 238.453 273.225 242.401 265.191L261.478 230.742C287.046 189.088 317.368 151.649 355.755 121.189C398.433 87.3244 455.118 64.4189 510.199 70.9396C544.629 75.0156 582.049 91.4254 607.765 114.856C614.872 121.332 620.88 128.735 626.83 136.254C631.619 143.032 636.148 150.014 638.23 158.155C639.099 161.04 640.251 164.165 640.433 167.186C640.716 171.893 638.889 177.215 637.543 181.663C635.039 189.937 631.618 198.879 630.027 207.344C639.831 197.647 649.7 187.879 663.912 185.532L664.868 185.366C667.652 184.911 670.216 185.064 673.01 185.283C671.362 185.836 669.789 186.282 668.078 186.596C652.68 189.426 639.453 200.712 630.811 213.33C623.466 224.054 621.016 235.397 617.915 247.79C615.85 256.042 613.878 263.412 612.657 271.844L611.399 273.643L610.647 273.438C610.005 272.612 609.336 271.81 608.952 270.826C604.25 258.798 601.854 246.292 594.862 235.176C584.711 219.037 572.151 213.171 554.274 208.758C551.262 208.014 548.89 208.307 545.835 208.595L542.765 208.922C539.757 212.943 537.956 219.576 536.035 224.272L521.707 259.833C521.071 262.955 520.73 266.306 519.06 269.062L519.563 270.406L517.554 270.441C511.407 281.461 507.265 293.89 501.573 305.196C489.83 328.521 475.004 349.758 457.928 369.477C451.844 376.504 445.634 383.735 438.454 389.68C432.022 393.808 425.821 400.033 420.046 405.106C414.397 410.068 408.187 414.601 403.382 420.412L402.795 420.901C396.349 426.208 388.764 430.635 381.491 434.732C368.008 442.326 353.797 448.976 338.952 453.463C328.226 456.706 317.108 458.82 306.224 461.492L308.192 561.185C305.919 557.612 304.616 552.651 303.15 548.637L298.57 533.95L288.72 500.663L278.481 466C258.803 476.74 236.972 496.473 230.502 518.418C224.913 537.377 230.477 553.298 238.727 570.458L237.514 571.33C232.535 571.431 228.07 569.827 223.333 568.458L212.781 564.727C175.916 548.616 149.564 516.963 135.224 480.044C134.192 478.233 133.634 476.1 132.956 474.129C139.519 474.898 146.8 476.111 153.393 475.881C166.086 475.437 179.954 471.797 190.394 464.396C195.379 460.863 199.458 456.385 203.574 451.916C196.861 448.139 189.861 444.317 183.679 439.719C167.412 427.622 153.428 410.649 143.758 392.888C137.002 380.48 132.471 367.932 128.576 354.416C127.468 350.571 125.416 345.708 126.593 341.717L128.117 341.86Z"/>
	<path fill="#362119" transform="matrix(0.201172 0 0 0.200781 0 -1.52588e-05)" d="M626.83 136.254C631.619 143.032 636.148 150.014 638.23 158.155C639.099 161.04 640.251 164.165 640.433 167.186C640.716 171.893 638.889 177.215 637.543 181.663C635.039 189.937 631.618 198.879 630.027 207.344C639.831 197.647 649.7 187.879 663.912 185.532L664.868 185.366C667.652 184.911 670.216 185.064 673.01 185.283C671.362 185.836 669.789 186.282 668.078 186.596C652.68 189.426 639.453 200.712 630.811 213.33C623.466 224.054 621.016 235.397 617.915 247.79C615.85 256.042 613.878 263.412 612.657 271.844L611.399 273.643L610.647 273.438C610.005 272.612 609.336 271.81 608.952 270.826C604.25 258.798 601.854 246.292 594.862 235.176C584.711 219.037 572.151 213.171 554.274 208.758C551.262 208.014 548.89 208.307 545.835 208.595L542.945 207.862L542.945 206.659C544.322 204.031 545.88 201.794 548.236 199.954C553.856 195.565 561.019 194.293 567.977 195.343C584.046 197.766 594.381 212.087 603.327 224.27C604.456 223.212 605.094 219.842 605.578 218.334L611.948 198.107C601.062 184.064 589.372 170.487 574.159 160.948C560.281 152.246 546.298 147.126 529.878 145.965C524.485 145.584 518.212 145.515 512.918 146.779C509.205 147.665 499.705 151.746 496.794 150.938L498.247 150.021C501.432 148.406 505.725 147.429 509.208 146.467C523.776 142.442 540.882 140.362 555.631 144.819C582.84 153.041 598.941 172.229 611.752 196.524C616.224 183.065 620.224 169.434 623.32 155.587C624.673 149.534 624.581 142.502 626.638 136.756L626.83 136.254Z"/>
	<path fill="#876657" transform="matrix(0.201172 0 0 0.200781 0 -1.52588e-05)" d="M488.557 89.5995C490.428 89.3642 491.93 89.3294 493.785 89.6875C484.364 95.9883 473.143 100.557 463.177 106.056C435.869 121.126 409.513 144.282 400.617 175.01C412.019 171.328 423.45 168.192 435.409 166.971C448.358 165.648 460.806 166.667 473.646 168.405L460.047 193.077C469.731 190.146 478.72 186.367 488.899 185.358L445.973 215.84C447.402 205.582 450.115 195.301 453.691 185.591C432.547 192.405 409.41 201.58 391.84 215.459C380.373 224.518 370.939 235.617 362.537 247.502L358.027 255.179C359.176 243.396 360.89 231.591 364.06 220.162C367.554 207.565 372.577 195.703 377.711 183.714C367.917 186.855 358.034 189.793 348.663 194.095C324.774 205.061 305.725 224.455 289.632 244.77C296.324 226.269 305.234 209.171 317.11 193.435C347.778 152.801 388.789 119.792 436.856 102.129C453.44 96.035 471.089 92.0679 488.557 89.5995Z"/>
	<path fill="#362119" transform="matrix(0.201172 0 0 0.200781 0 -1.52588e-05)" d="M128.117 341.86C128.385 342.841 128.643 343.77 129.149 344.66C133.945 353.105 147.57 356.862 156.184 359.351C169.254 363.13 184.111 363.159 197.548 361.881C239.504 357.892 280.785 341.7 317.507 321.497L342.814 306.423C348.682 302.575 354.33 298.269 360.467 294.863C320.369 335.737 270.597 366.655 214.463 379.351C205.279 381.428 195.897 382.694 186.542 383.708C180.064 384.411 172.495 384.545 166.298 386.483L166.877 386.582C193.451 391.001 221.974 389.5 248.405 385.207C299.249 376.949 346.961 359.068 388.641 328.436C399.219 320.662 409.31 312.359 418.878 303.365C424.739 297.856 430.118 290.817 436.617 286.137C404.935 335.911 364.645 382.938 314.9 415.33C301.954 423.76 288.005 430.382 274.549 437.917C326.257 430.338 374.711 406.9 415.548 374.807C440.724 355.022 464.002 331.713 484.4 307.056L518.926 261.271C519.83 260.031 520.243 260.17 521.707 259.833C521.071 262.955 520.73 266.306 519.06 269.062L519.563 270.406L517.554 270.441C511.407 281.461 507.265 293.89 501.573 305.196C489.83 328.521 475.004 349.758 457.928 369.477C451.844 376.504 445.634 383.735 438.454 389.68C432.022 393.808 425.821 400.033 420.046 405.106C414.397 410.068 408.187 414.601 403.382 420.412L402.795 420.901C396.349 426.208 388.764 430.635 381.491 434.732C368.008 442.326 353.797 448.976 338.952 453.463C328.226 456.706 317.108 458.82 306.224 461.492L308.192 561.185C305.919 557.612 304.616 552.651 303.15 548.637L298.57 533.95L288.72 500.663L278.481 466C258.803 476.74 236.972 496.473 230.502 518.418C224.913 537.377 230.477 553.298 238.727 570.458L237.514 571.33C232.535 571.431 228.07 569.827 223.333 568.458L212.781 564.727C175.916 548.616 149.564 516.963 135.224 480.044C134.192 478.233 133.634 476.1 132.956 474.129C139.519 474.898 146.8 476.111 153.393 475.881C166.086 475.437 179.954 471.797 190.394 464.396C195.379 460.863 199.458 456.385 203.574 451.916C196.861 448.139 189.861 444.317 183.679 439.719C167.412 427.622 153.428 410.649 143.758 392.888C137.002 380.48 132.471 367.932 128.576 354.416C127.468 350.571 125.416 345.708 126.593 341.717L128.117 341.86Z"/>
	<path fill="#553729" transform="matrix(0.201172 0 0 0.200781 0 -1.52588e-05)" d="M203.574 451.916L234.566 465.436C223.782 480.818 211.777 493.704 192.453 497.18C177.138 499.935 159.836 496.215 147.062 487.255C143.815 484.977 140.703 481.416 136.787 480.428L135.861 480.184L135.224 480.044C134.192 478.233 133.634 476.1 132.956 474.129C139.519 474.898 146.8 476.111 153.393 475.881C166.086 475.437 179.954 471.797 190.394 464.396C195.379 460.863 199.458 456.385 203.574 451.916Z"/>
	<path fill="#0A3853" transform="matrix(0.201172 0 0 0.200781 0 -1.52588e-05)" d="M428.957 750.391L429.378 750.585C435.16 753.399 440.065 758.756 445.258 762.591C455.959 770.495 467.079 777.686 478.73 784.091C490.095 790.338 503.394 797.598 516.783 795.312L517.572 795.189C523.765 794.184 530.169 791.478 535.885 788.942C551.182 782.154 565.601 772.619 579.143 762.82C584.626 758.852 589.896 754.086 595.736 750.705L595.61 773.865C595.591 776.903 596.06 780.706 595.341 783.591C595.427 788.029 595.033 793.072 595.767 797.418L595.467 798.179C600.795 800.812 605.933 803.452 610.218 807.684L617.201 813.218L682.944 880.113L683.366 905.69L683.27 958.125L683.308 1038.31L683.36 1067.47C683.456 1074.19 684.154 1081.29 683.305 1087.95L683.731 1089.38C683.139 1089.75 682.929 1090.13 682.214 1089.96C675.26 1088.27 667.216 1082.37 660.761 1078.98L612.419 1053.73L542.994 1123.09L525.317 1140.72C522.696 1143.34 518.988 1146.33 516.973 1149.41C515.174 1152.17 515.417 1155.22 515.398 1158.44L515.735 1199.1C515.744 1203.1 516.578 1209.21 515.321 1212.8L514.657 1213.32L504.102 1213.39L118.007 1213.76L130.549 1110.59C133.12 1089.44 133.792 1067.17 140.274 1046.82C147.678 1023.56 163.945 1002.05 182.802 986.79C192.654 978.82 203.717 973.415 214.975 967.785L244.351 952.789L340.995 902.805L341.046 878.068L406.063 815.444C408.458 811.92 412.069 808.802 415.589 806.439C419.551 802.704 424.782 800.247 429.537 797.669L429.54 795.514L430.108 787.342L428.957 750.391Z"/>
	<path fill="#032637" transform="matrix(0.201172 0 0 0.200781 0 -1.52588e-05)" d="M164.778 1012.12L181.212 1024.53C188.968 1031.67 195.527 1041.02 201.585 1049.61C234.892 1096.84 251.177 1155.57 253.275 1212.97L230.221 1212.97C228.045 1192.28 225.858 1171.7 221.875 1151.25C212.131 1101.23 193.784 1054.15 164.778 1012.12Z"/>
	<path fill="#032637" transform="matrix(0.201172 0 0 0.200781 0 -1.52588e-05)" d="M339.55 1085.5L409.683 1004.32L434.617 1037.98L491.384 1113.89L501.762 1127.73C503.724 1130.38 505.894 1134.02 508.726 1135.78L511.252 1139.86C513.684 1136.97 515.404 1133.92 517.176 1130.59C521.405 1127.25 524.532 1121.27 527.668 1116.88L545.202 1092.71L611.97 1004.3L683.305 1087.95L683.731 1089.38C683.139 1089.75 682.929 1090.13 682.214 1089.96C675.26 1088.27 667.216 1082.37 660.761 1078.98L612.419 1053.73L542.994 1123.09L525.317 1140.72C522.696 1143.34 518.988 1146.33 516.973 1149.41C515.174 1152.17 515.417 1155.22 515.398 1158.44L515.735 1199.1C515.744 1203.1 516.578 1209.21 515.321 1212.8L514.657 1213.32L504.102 1213.39L504.27 1150.72L408.185 1054.57L334.9 1091.2C335.956 1089.16 338.028 1087.25 339.55 1085.5Z"/>
	<path fill="#16668D" transform="matrix(0.201172 0 0 0.200781 0 -1.52588e-05)" d="M415.589 806.439C413.032 812.098 409.449 817.63 408.194 823.75L408.016 824.55C404.646 840.942 413.682 859.963 417.432 875.684L456.274 989.851L487.699 1078.21L496.181 1102.08C497.579 1106.03 499.421 1110.21 500.372 1114.28L508.726 1135.78C505.894 1134.02 503.724 1130.38 501.762 1127.73L491.384 1113.89L434.617 1037.98L409.683 1004.32L339.55 1085.5C338.626 1083.1 338.287 1080.79 338.255 1078.23C338.191 1073.12 339.103 1067.99 339.282 1062.87L339.781 1028.93L340.995 902.805L341.046 878.068L406.063 815.444C408.458 811.92 412.069 808.802 415.589 806.439Z"/>
	<path fill="#0C5073" transform="matrix(0.201172 0 0 0.200781 0 -1.52588e-05)" d="M415.589 806.439C413.032 812.098 409.449 817.63 408.194 823.75L408.016 824.55C404.646 840.942 413.682 859.963 417.432 875.684L456.274 989.851L487.699 1078.21L496.181 1102.08C497.579 1106.03 499.421 1110.21 500.372 1114.28L499.144 1114.07C498.423 1113.34 497.771 1112.58 497.204 1111.72C494.461 1107.54 492.796 1101.89 490.69 1097.33C487.846 1091.17 484.525 1085.09 481.964 1078.82L457.187 1010.77L424.521 919.861C417.071 898.39 409.133 877.072 404.938 854.661C403.667 847.866 402.301 840.687 402.659 833.75C402.97 827.697 404.842 821.378 406.063 815.444C408.458 811.92 412.069 808.802 415.589 806.439Z"/>
	<path fill="#16668D" transform="matrix(0.201172 0 0 0.200781 0 -1.52588e-05)" d="M610.218 807.684L617.201 813.218L682.944 880.113L683.366 905.69L683.27 958.125L683.308 1038.31L683.36 1067.47C683.456 1074.19 684.154 1081.29 683.305 1087.95L611.97 1004.3L545.202 1092.71L527.668 1116.88C524.532 1121.27 521.405 1127.25 517.176 1130.59C515.404 1133.92 513.684 1136.97 511.252 1139.86L508.726 1135.78L500.372 1114.28C499.421 1110.21 497.579 1106.03 496.181 1102.08L487.699 1078.21L456.274 989.851C471.045 997.814 488.384 1005.05 505.421 1005.64C523.594 1006.28 541.734 1002.19 557.057 992.048C562.334 988.556 566.897 984.16 571.535 979.882L606.966 875.533L616.617 843.998C618.121 837.21 620.321 822.955 616.294 816.976C614.331 814.06 612.101 811.394 610.501 808.25L610.218 807.684Z"/>
	<path fill="#0C5073" transform="matrix(0.201172 0 0 0.200781 0 -1.52588e-05)" d="M610.218 807.684L617.201 813.218C618.389 817.809 620.446 821.552 621.998 825.938C624.6 833.293 624.082 842.106 623.077 849.724C621.336 862.931 617.207 875.802 612.926 888.377L592.465 942.137L557.877 1029.76L540.12 1073.8C537.19 1080.89 534.555 1088.55 530.852 1095.25L529.932 1095.51C532.225 1084.79 537.676 1074.04 541.446 1063.71L571.535 979.882L606.966 875.533L616.617 843.998C618.121 837.21 620.321 822.955 616.294 816.976C614.331 814.06 612.101 811.394 610.501 808.25L610.218 807.684Z"/>
	<path fill="#A8D1DE" transform="matrix(0.201172 0 0 0.200781 0 -1.52588e-05)" d="M456.274 989.851C471.045 997.814 488.384 1005.05 505.421 1005.64C523.594 1006.28 541.734 1002.19 557.057 992.048C562.334 988.556 566.897 984.16 571.535 979.882L541.446 1063.71C537.676 1074.04 532.225 1084.79 529.932 1095.51L517.176 1130.59C515.404 1133.92 513.684 1136.97 511.252 1139.86L508.726 1135.78L500.372 1114.28C499.421 1110.21 497.579 1106.03 496.181 1102.08L487.699 1078.21L456.274 989.851Z"/>
	<path fill="#D09566" transform="matrix(0.201172 0 0 0.200781 0 -1.52588e-05)" d="M428.957 750.391L429.378 750.585C435.16 753.399 440.065 758.756 445.258 762.591C455.959 770.495 467.079 777.686 478.73 784.091C490.095 790.338 503.394 797.598 516.783 795.312L517.572 795.189C523.765 794.184 530.169 791.478 535.885 788.942C551.182 782.154 565.601 772.619 579.143 762.82C584.626 758.852 589.896 754.086 595.736 750.705L595.61 773.865C595.591 776.903 596.06 780.706 595.341 783.591C595.427 788.029 595.033 793.072 595.767 797.418L595.467 798.179C600.795 800.812 605.933 803.452 610.218 807.684L610.501 808.25C612.101 811.394 614.331 814.06 616.294 816.976C620.321 822.955 618.121 837.21 616.617 843.998L606.966 875.533L571.535 979.882C566.897 984.16 562.334 988.556 557.057 992.048C541.734 1002.19 523.594 1006.28 505.421 1005.64C488.384 1005.05 471.045 997.814 456.274 989.851L417.432 875.684C413.682 859.963 404.646 840.942 408.016 824.55L408.194 823.75C409.449 817.63 413.032 812.098 415.589 806.439C419.551 802.704 424.782 800.247 429.537 797.669L429.54 795.514L430.108 787.342L428.957 750.391Z"/>
	<path fill="#0A3853" transform="matrix(0.201172 0 0 0.200781 0 -1.52588e-05)" d="M415.589 806.439C419.551 802.704 424.782 800.247 429.537 797.669L429.501 845.498C429.503 849.016 430.604 856.56 429.343 859.612C428.718 861.125 426.705 863.175 425.695 864.54L417.432 875.684C413.682 859.963 404.646 840.942 408.016 824.55L408.194 823.75C409.449 817.63 413.032 812.098 415.589 806.439Z"/>
	<path fill="#0A3853" transform="matrix(0.201172 0 0 0.200781 0 -1.52588e-05)" d="M595.467 798.179C600.795 800.812 605.933 803.452 610.218 807.684L610.501 808.25C612.101 811.394 614.331 814.06 616.294 816.976C620.321 822.955 618.121 837.21 616.617 843.998L606.966 875.533L599.04 864.775C598.18 863.608 596.37 861.722 595.864 860.466C595.568 859.729 595.763 857.765 595.751 856.875L595.667 846.726L595.467 798.179Z"/>
	<path fill="#B47D54" transform="matrix(0.201172 0 0 0.200781 0 -1.52588e-05)" d="M428.957 750.391L429.378 750.585C435.16 753.399 440.065 758.756 445.258 762.591C455.959 770.495 467.079 777.686 478.73 784.091C490.095 790.338 503.394 797.598 516.783 795.312L517.572 795.189C523.765 794.184 530.169 791.478 535.885 788.942C551.182 782.154 565.601 772.619 579.143 762.82C584.626 758.852 589.896 754.086 595.736 750.705L595.61 773.865C595.591 776.903 596.06 780.706 595.341 783.591L594.756 784.078C591.601 786.745 589.57 790.044 587.221 793.395L576.965 807.584C563.299 825.439 545.481 842.466 523.819 849.774C519.72 851.157 514.724 852.726 510.378 852.406C504.262 851.956 498.324 849.711 492.793 847.182C475.972 839.492 460.965 826.36 449.24 812.125L437.118 796.226C434.922 793.25 432.865 789.796 430.108 787.342L428.957 750.391Z"/>
	<path fill="#EEBA80" transform="matrix(0.201172 0 0 0.200781 0 -1.52588e-05)" d="M545.835 208.595C548.89 208.307 551.262 208.014 554.274 208.758C572.151 213.171 584.711 219.037 594.862 235.176C601.854 246.292 604.25 258.798 608.952 270.826C609.336 271.81 610.005 272.612 610.647 273.438L611.399 273.643L612.657 271.844C618.616 261.475 624.849 249.188 635.155 242.503C641.79 238.2 647.223 235.084 655.473 236.099L656.102 236.166C661.246 236.794 666.811 242.575 669.748 246.505C679.866 260.043 685.061 279.58 686.053 296.181C686.167 298.083 686.689 300.416 686.317 302.285L685.891 303.514C686.242 304.009 686.747 304.426 686.944 305C687.272 305.958 686.383 310.406 686.261 311.73L684.935 331.424C684.023 353.706 685.819 377.077 696.293 397.156C700.861 405.912 706.973 413.927 714.737 420.097C717.19 422.046 721.193 424.269 722.974 426.746L738.55 436.388C738.813 440.701 738.274 446.225 739.677 450.237C739.809 453.837 741.233 457.958 742.784 461.208C743.675 463.074 744.906 464.883 745.286 466.934C747.332 465.611 750.913 465.829 753.233 466.397C767.228 469.827 781.082 482.942 787.856 495.292L790.929 501.759C794.744 512.886 797.193 524.511 795.332 536.3C790.207 561.619 780.424 580.56 763.401 599.867L758.807 603.482C745.541 614.129 730.069 619.918 713.244 621.805C708.583 622.107 703.762 622.096 699.146 621.386C692.385 647.118 677.476 668.236 660.702 688.438C641.602 711.44 619.67 732.763 595.736 750.705C589.896 754.086 584.626 758.852 579.143 762.82C565.601 772.619 551.182 782.154 535.885 788.942C530.169 791.478 523.765 794.184 517.572 795.189L516.783 795.312C503.394 797.598 490.095 790.338 478.73 784.091C467.079 777.686 455.959 770.495 445.258 762.591C440.065 758.756 435.16 753.399 429.378 750.585L428.957 750.391C422.463 746.274 416.343 740.674 410.515 735.666C384.106 712.971 359.213 686.678 340.977 656.914C335.98 648.757 331.626 640.296 327.803 631.529C327.056 629.816 324.465 621.858 323.462 621.061C323.437 621.041 319.651 621.454 319.313 621.484C313.657 621.983 308.196 621.878 302.574 621.153C290.974 619.658 282.034 615.2 272.631 608.411C259.35 597.467 248.417 584.616 238.727 570.458C230.477 553.298 224.913 537.377 230.502 518.418C236.972 496.473 258.803 476.74 278.481 466L288.72 500.663L298.57 533.95L303.15 548.637C304.616 552.651 305.919 557.612 308.192 561.185L306.224 461.492C317.108 458.82 328.226 456.706 338.952 453.463C353.797 448.976 368.008 442.326 381.491 434.732C388.764 430.635 396.349 426.208 402.795 420.901L403.382 420.412C408.187 414.601 414.397 410.068 420.046 405.106C425.821 400.033 432.022 393.808 438.454 389.68C445.634 383.735 451.844 376.504 457.928 369.477C475.004 349.758 489.83 328.521 501.573 305.196C507.265 293.89 511.407 281.461 517.554 270.441L519.563 270.406L519.06 269.062C520.73 266.306 521.071 262.955 521.707 259.833L536.035 224.272C537.956 219.576 539.757 212.943 542.765 208.922L545.835 208.595Z"/>
	<path fill="#876657" transform="matrix(0.201172 0 0 0.200781 0 -1.52588e-05)" d="M578.634 665.728L577.017 662.812L577.495 661.562L578.579 661.088C581.69 662.489 584.087 666.493 585.741 669.375L585.455 670.698L583.291 671.989C581.382 671.01 580.002 667.531 578.634 665.728Z"/>
	<path fill="#876657" transform="matrix(0.201172 0 0 0.200781 0 -1.52588e-05)" d="M442.132 672.14L435.632 669.506L436.381 668.327C438.171 665.566 442.129 659.834 445.564 659.374C446.631 659.231 446.658 659.522 447.476 660.103C447.967 662.542 446.636 664.391 445.553 666.5C444.064 668.294 443.134 670.056 442.132 672.14Z"/>
	<path fill="#B47D54" transform="matrix(0.201172 0 0 0.200781 0 -1.52588e-05)" d="M483.713 702.265L538.119 702.287C535.923 705.133 533.252 707.649 530.733 710.212C524.049 715.223 516.535 717.87 508.142 717.5C497.676 717.039 490.358 709.556 483.713 702.265Z"/>
	<path fill="#B47D54" transform="matrix(0.201172 0 0 0.200781 0 -1.52588e-05)" d="M578.634 665.728C580.002 667.531 581.382 671.01 583.291 671.989L582.522 672.422C577.844 674.536 571.142 675.594 566.134 677.014C524.555 688.81 482.84 685.697 442.132 672.14C443.134 670.056 444.064 668.294 445.553 666.5C456.654 669.761 467.573 673.366 478.95 675.606C511.987 682.11 547.582 678.712 578.634 665.728Z"/>
	<path fill="#B47D54" transform="matrix(0.201172 0 0 0.200781 0 -1.52588e-05)" d="M473.169 606.101C483.629 614.451 493.286 620.864 507.183 621.231C511.244 621.339 515.7 621.584 519.723 620.992C530.996 619.333 539.053 613.749 547.124 606.088L540.334 619.105C535.167 626.804 528.311 635.838 518.78 638.188C512.785 639.666 507.6 639.836 501.673 637.935C487.212 633.297 479.543 618.699 473.169 606.101Z"/>
	<path fill="#553729" transform="matrix(0.201172 0 0 0.200781 0 -1.52588e-05)" d="M403.382 420.412C408.187 414.601 414.397 410.068 420.046 405.106C425.821 400.033 432.022 393.808 438.454 389.68C442.748 391.649 447.124 393.114 451.533 394.764C452.832 395.249 455.606 396.006 456.653 396.835C456.783 396.938 457.261 398.447 457.331 398.634L460.747 409.257L463.423 429.007L403.382 420.412Z"/>
	<path fill="#362119" transform="matrix(0.201172 0 0 0.200781 0 -1.52588e-05)" d="M571.057 490.915C570.196 489.332 570.797 487.243 571.291 485.528C575.281 471.654 588.496 458.35 600.964 451.767C613.016 445.405 627.123 445.624 639.847 449.729C655.474 454.77 669.367 467.038 676.733 481.673C683.601 495.315 685.647 511.626 680.572 526.237C679.78 528.518 678.353 532.501 676.218 533.665C678.929 524.859 680.108 515.593 677.719 506.562C677.291 504.945 676.763 503.444 676.108 501.905C668.459 483.965 653.782 468.715 635.487 461.614C623 456.768 609.753 457.035 597.508 462.492C585.457 467.861 575.784 478.678 571.057 490.915Z"/>
	<path fill="#1B1613" transform="matrix(0.201172 0 0 0.200781 0 -1.52588e-05)" d="M722.974 426.746L738.55 436.388C738.813 440.701 738.274 446.225 739.677 450.237C739.809 453.837 741.233 457.958 742.784 461.208C743.675 463.074 744.906 464.883 745.286 466.934L739.668 485.679L729.157 520.079L722.958 538.731C721.25 544.461 720.382 550.796 717.095 555.879L716.572 517.265L718.403 480.131C719.257 462.208 720.272 444.51 722.974 426.746Z"/>
	<path fill="#FEDEAC" transform="matrix(0.201172 0 0 0.200781 0 -1.52588e-05)" d="M511.52 529.321L520.808 577.45C522.314 585.32 524.583 592.972 525.027 601.021C525.122 602.729 525.045 604.427 524.169 605.947C522.663 608.558 519.578 609.945 516.773 610.629L515.851 610.849C510.202 612.252 503.271 611.082 497.484 610.542L492.62 609.421C487.723 607.961 483.989 605.051 481.462 600.625C481.281 598.62 481.329 597.192 482.067 595.305L511.52 529.321Z"/>
	<path fill="#362119" transform="matrix(0.201172 0 0 0.200781 0 -1.52588e-05)" d="M352.226 540.406C351.221 540.134 350.844 539.427 350.192 538.631C341.706 528.272 338.911 511.444 340.413 498.396C342.234 482.563 351.86 468.052 364.357 458.403C375.448 449.841 392.109 444.73 406.128 446.525C421.289 448.467 433.604 457.677 442.713 469.508C447.156 475.278 453.971 484.878 452.975 492.602C450.952 487.215 448.092 482.114 444.569 477.563C436.874 467.623 424.823 461.351 412.44 459.834L411.739 461.037C400.906 461.305 392.934 463.279 385.221 471.428C382.942 473.835 380.645 476.848 379.258 479.861C376.753 478.958 373.058 480.797 370.666 481.929C362.942 485.58 356.427 491.876 349.017 496.224C343.885 507.45 342.96 518.391 347.439 530.099L352.226 540.406Z"/>
	<path fill="#A8D1DE" transform="matrix(0.201172 0 0 0.200781 0 -1.52588e-05)" d="M349.017 496.224C353.167 487.211 359.033 478.566 366.792 472.306C379.596 461.975 396.202 458.157 412.44 459.834L411.739 461.037C400.906 461.305 392.934 463.279 385.221 471.428C382.942 473.835 380.645 476.848 379.258 479.861C376.753 478.958 373.058 480.797 370.666 481.929C362.942 485.58 356.427 491.876 349.017 496.224Z"/>
	<path fill="#B47D54" transform="matrix(0.201172 0 0 0.200781 0 -1.52588e-05)" d="M288.72 500.663L298.57 533.95L303.15 548.637C304.616 552.651 305.919 557.612 308.192 561.185C308.726 562.745 308.622 565.215 308.822 566.897L310.328 575.902C312.017 584.66 314.61 593.113 317.131 601.653C307.899 598.92 298.839 596.247 290.344 591.586C274.255 582.758 259.87 568.577 254.774 550.536C251.916 540.418 252.225 525.439 257.564 516.17C262.313 507.925 270.57 504.286 279.491 502.344C282.238 501.746 285.124 501.679 287.826 500.923L288.72 500.663Z"/>
	<path fill="#876657" transform="matrix(0.201172 0 0 0.200781 0 -1.52588e-05)" d="M303.15 548.637C298.534 547.453 294.015 543.114 290.293 540.258C281.102 533.203 271.612 526.112 263.218 518.125L263.224 515.938L264.44 514.979C273.249 516.537 281.746 522.376 288.409 528.103C291.316 530.602 293.873 533.62 297.573 534.912L298.57 533.95L303.15 548.637Z"/>
	<path fill="#553729" transform="matrix(0.201172 0 0 0.200781 0 -1.52588e-05)" d="M619.266 386.499C630.829 384.776 644.048 387.753 654.847 391.867C672.292 398.513 688.379 409.645 698.836 425.328C702.3 430.524 704.747 436.303 707.27 441.992C702.328 438.998 698.023 435.183 693.236 431.967C685.203 426.571 674.256 421.536 664.656 419.682L663.873 419.537C646.252 417.308 627.959 420.434 610.452 422.652L562.462 428.782C562.847 417.632 566.063 407.262 569.879 396.883C584.955 390.012 602.958 388.312 619.266 386.499Z"/>
	<path fill="#D09566" transform="matrix(0.201172 0 0 0.200781 0 -1.52588e-05)" d="M438.454 389.68C445.634 383.735 451.844 376.504 457.928 369.477C475.004 349.758 489.83 328.521 501.573 305.196C507.265 293.89 511.407 281.461 517.554 270.441L519.563 270.406L549.191 274.925L527.467 318.25C517.134 337.394 504.704 355.797 491.665 373.204L470.851 398.576C467.566 402.262 463.679 405.287 460.747 409.257L457.331 398.634C457.261 398.447 456.783 396.938 456.653 396.835C455.606 396.006 452.832 395.249 451.533 394.764C447.124 393.114 442.748 391.649 438.454 389.68Z"/>
	<path fill="#FEFEFE" transform="matrix(0.201172 0 0 0.200781 0 -1.52588e-05)" d="M412.44 459.834C424.823 461.351 436.874 467.623 444.569 477.563C448.092 482.114 450.952 487.215 452.975 492.602C458.304 509.243 458.177 526.171 450.141 541.889C444.14 553.627 432.125 562.286 419.713 566.231C405.549 570.732 387.4 567.961 374.44 561.088C365.237 556.206 358.863 548.143 352.226 540.406L347.439 530.099C342.96 518.391 343.885 507.45 349.017 496.224C356.427 491.876 362.942 485.58 370.666 481.929C373.058 480.797 376.753 478.958 379.258 479.861C372.585 496.218 370.976 511.403 377.674 528.125C381.297 537.168 388.001 545.153 397.107 548.964C403.371 551.586 410.078 552.231 416.432 549.529C426.629 545.192 433.676 535.373 437.571 525.326C442.815 511.798 442.539 496.687 436.661 483.393C431.709 472.192 422.93 465.464 411.739 461.037L412.44 459.834Z"/>
	<path fill="#1B1613" transform="matrix(0.201172 0 0 0.200781 0 -1.52588e-05)" d="M379.258 479.861C380.645 476.848 382.942 473.835 385.221 471.428C392.934 463.279 400.906 461.305 411.739 461.037C422.93 465.464 431.709 472.192 436.661 483.393C442.539 496.687 442.815 511.798 437.571 525.326C433.676 535.373 426.629 545.192 416.432 549.529C410.078 552.231 403.371 551.586 397.107 548.964C388.001 545.153 381.297 537.168 377.674 528.125C370.976 511.403 372.585 496.218 379.258 479.861Z"/>
	<path fill="#553729" transform="matrix(0.201172 0 0 0.200781 0 -1.52588e-05)" d="M432.902 488.39C433.405 488.904 433.167 488.581 433.533 489.552C437.714 500.662 437.992 512.696 432.966 523.594C429.313 531.515 422.953 539.128 414.481 542.059C408.576 544.102 401.518 543.336 395.976 540.553L395.096 540.097C391.445 538.244 388.204 535.2 385.746 531.934C379.229 523.272 376.099 510.274 377.898 499.612L378.056 498.75C379.784 488.883 384.514 477.626 392.816 471.517C397.459 468.101 403.564 466.944 409.178 467.897C416.531 469.144 422.318 472.799 426.594 478.865L432.902 488.39Z"/>
	<path fill="#FEFEFE" transform="matrix(0.201172 0 0 0.200781 0 -1.52588e-05)" d="M412.416 481.335L412.76 481.11L415.101 479.301C419.205 476.798 422.229 477.855 426.594 478.865L432.902 488.39C431.43 493.774 429.606 498.646 424.565 501.677C423.36 502.402 419.44 502.035 417.884 502.078L417.276 501.696C413.795 499.604 410.822 496.869 409.733 492.812C408.6 488.593 410.529 484.951 412.416 481.335Z"/>
	<path fill="#1B1613" transform="matrix(0.201172 0 0 0.200781 0 -1.52588e-05)" d="M417.884 502.078C420.288 503.025 423.21 501.893 425.157 503.438C425.201 507.648 425.187 512.08 423.678 516.072L423.36 516.875C421.949 520.532 419.745 523.717 416.522 526.017C412.16 529.129 407.597 530.05 402.327 529.179C397.09 528.314 392.666 525.233 389.754 520.848C385.759 514.833 384.746 506.018 386.11 499.044C386.633 496.367 387.099 493.893 388.385 491.434C390.633 487.133 394.512 483.057 399.247 481.584C402.833 480.469 408.916 479.525 412.416 481.335C410.529 484.951 408.6 488.593 409.733 492.812C410.822 496.869 413.795 499.604 417.276 501.696L417.884 502.078Z"/>
	<path fill="#1B1613" transform="matrix(0.201172 0 0 0.200781 0 -1.52588e-05)" d="M545.835 208.595C548.89 208.307 551.262 208.014 554.274 208.758C572.151 213.171 584.711 219.037 594.862 235.176C601.854 246.292 604.25 258.798 608.952 270.826C609.336 271.81 610.005 272.612 610.647 273.438L611.399 273.643L612.657 271.844C618.616 261.475 624.849 249.188 635.155 242.503C641.79 238.2 647.223 235.084 655.473 236.099L656.102 236.166C661.246 236.794 666.811 242.575 669.748 246.505C679.866 260.043 685.061 279.58 686.053 296.181C686.167 298.083 686.689 300.416 686.317 302.285L685.891 303.514C679.299 299.818 672.471 296.55 665.162 294.524C650.4 290.43 634.057 290.356 618.829 290.544C613.475 290.61 607.324 292.112 602.114 291.233C595.723 290.155 589.506 286.071 583.297 284.069L549.191 274.925L519.563 270.406L519.06 269.062C520.73 266.306 521.071 262.955 521.707 259.833L536.035 224.272C537.956 219.576 539.757 212.943 542.765 208.922L545.835 208.595Z"/>
	<path fill="#D09566" transform="matrix(0.201172 0 0 0.200781 0 -1.52588e-05)" d="M745.286 466.934C747.332 465.611 750.913 465.829 753.233 466.397C767.228 469.827 781.082 482.942 787.856 495.292L790.929 501.759C794.744 512.886 797.193 524.511 795.332 536.3C790.207 561.619 780.424 580.56 763.401 599.867L758.807 603.482C745.541 614.129 730.069 619.918 713.244 621.805C708.583 622.107 703.762 622.096 699.146 621.386L707.195 593.211L717.095 555.879C720.382 550.796 721.25 544.461 722.958 538.731L729.157 520.079L739.668 485.679L745.286 466.934Z"/>
	<path fill="#B47D54" transform="matrix(0.201172 0 0 0.200781 0 -1.52588e-05)" d="M729.157 520.079C730.68 520.305 731.138 520.329 732.366 519.348C734.134 517.937 736.264 514.833 738.558 514.385C740.297 514.045 742.925 514.325 744.726 514.401C745.936 514.453 746.594 514.741 747.634 515.312C749.689 518.312 750.024 521.722 750.375 525.261C751.201 533.575 751.047 541.944 749.499 550.156C746.754 564.721 737.819 579.136 725.447 587.465C720.367 590.884 714.614 593.153 708.611 594.315L707.195 593.211L717.095 555.879C720.382 550.796 721.25 544.461 722.958 538.731L729.157 520.079Z"/>
	<path fill="#EEBA80" transform="matrix(0.201172 0 0 0.200781 0 -1.52588e-05)" d="M745.286 466.934C747.332 465.611 750.913 465.829 753.233 466.397C767.228 469.827 781.082 482.942 787.856 495.292L790.929 501.759C794.744 512.886 797.193 524.511 795.332 536.3C790.207 561.619 780.424 580.56 763.401 599.867L758.807 603.482C755.085 599.143 753.407 594.708 751.733 589.296C752.695 586.48 755.908 583.628 757.842 581.249C761.357 576.926 765.04 572.63 767.721 567.721C773.018 558.026 774.222 546.226 773.077 535.361C771.274 518.248 767.735 498.641 751.041 490.055C748.3 488.645 742.085 487.967 740.17 486.189L739.668 485.679L745.286 466.934Z"/>
	<path fill="#FEFEFE" transform="matrix(0.201172 0 0 0.200781 0 -1.52588e-05)" d="M571.057 490.915C575.784 478.678 585.457 467.861 597.508 462.492C609.753 457.035 623 456.768 635.487 461.614C653.782 468.715 668.459 483.965 676.108 501.905C676.763 503.444 677.291 504.945 677.719 506.562C680.108 515.593 678.929 524.859 676.218 533.665C671.75 545.413 660.838 555.752 649.861 561.431C636.994 568.089 619.544 569.67 605.694 565.176C591.795 560.667 580.105 551.145 573.38 538.128C565.427 522.734 565.987 507.045 571.057 490.915Z"/>
	<path fill="#1B1613" transform="matrix(0.201172 0 0 0.200781 0 -1.52588e-05)" d="M613.586 460.72C619.169 460.52 625.819 461.234 630.741 464.018C640.249 469.397 646.693 479.96 649.428 490.312C653.086 504.161 650.451 522.276 643.148 534.52C637.923 543.28 630.451 548.681 620.619 551.239C615.769 551.372 611.36 551.006 606.814 549.172C597.384 545.367 591.041 537.032 587.298 527.819C581.636 513.88 581.387 497.265 587.503 483.403C592.679 471.672 602.021 465.318 613.586 460.72Z"/>
	<path fill="#553729" transform="matrix(0.201172 0 0 0.200781 0 -1.52588e-05)" d="M642.412 487.689C643.061 488.496 643.604 489.361 644.119 490.258C648.386 497.708 647.271 509.3 645.066 517.272C642.652 525.998 637.276 534.898 629.216 539.418C624.297 542.177 616.329 543.842 610.766 542.129L610.149 541.922C603.935 539.908 598.555 535.979 594.591 530.772C587.622 521.615 585.4 509.292 586.988 498.112C588.346 488.544 593.254 479.13 601.162 473.374L601.813 472.913L602.506 472.403C608.032 468.432 615.072 467.365 621.694 468.544L622.652 468.72C628.728 469.804 632.673 473.175 636.51 477.784C638.866 480.945 640.649 484.168 642.412 487.689Z"/>
	<path fill="#FEFEFE" transform="matrix(0.201172 0 0 0.200781 0 -1.52588e-05)" d="M622.369 482.533C623.059 481.578 623.854 480.799 624.734 480.02C628.416 476.763 631.923 477.414 636.51 477.784C638.866 480.945 640.649 484.168 642.412 487.689C641.4 491.646 639.869 497.785 635.885 499.837C634.289 500.659 630.638 500.244 628.801 500.174C626.453 498.841 624.636 497.67 623.165 495.312C620.293 490.71 621.182 487.527 622.369 482.533Z"/>
	<path fill="#1B1613" transform="matrix(0.201172 0 0 0.200781 0 -1.52588e-05)" d="M628.801 500.174C630.486 501.348 634.354 500.832 636.418 500.831C636.717 507.404 636.4 513.477 632.877 519.258C630.252 523.565 625.586 527.587 620.556 528.536C615.479 529.494 610.291 528.515 606.085 525.43C600.692 521.474 597.774 515.543 596.813 509.062C595.979 503.441 596.996 496.531 600.016 491.652C602.705 487.308 607.722 482.468 612.892 481.47C615.923 480.884 619.781 480.676 622.369 482.533C621.182 487.527 620.293 490.71 623.165 495.312C624.636 497.67 626.453 498.841 628.801 500.174Z"/>
</svg>
