<svg width="1173" height="281" viewBox="0 0 1173 281" fill="none" xmlns="http://www.w3.org/2000/svg">
<g filter="url(#filter0_d_223_3)">
<mask id="path-1-outside-1_223_3" maskUnits="userSpaceOnUse" x="41" y="97" width="1084" height="185" fill="black">
<rect fill="white" x="41" y="97" width="1084" height="185"/>
<path d="M213.156 152.992C213.156 173.826 202.316 185.219 180.637 187.172V188.246C191.965 188.507 200.884 191.599 207.395 197.523C213.905 203.448 217.16 212.009 217.16 223.207C217.16 227.895 216.607 232.517 215.5 237.074C214.393 241.566 211.984 245.57 208.273 249.086C204.628 252.602 199.322 255.466 192.355 257.68C185.454 259.893 176.145 261 164.426 261H57.0039V224.77C62.7331 224.77 66.8346 224.021 69.3086 222.523C71.7826 220.961 73.0195 218.064 73.0195 213.832V164.418C73.0195 160.121 71.7826 157.224 69.3086 155.727C66.8346 154.164 62.7331 153.383 57.0039 153.383V117.152H171.164C180.148 117.152 187.408 118.161 192.941 120.18C198.475 122.198 202.74 124.867 205.734 128.188C208.729 131.508 210.715 135.349 211.691 139.711C212.668 144.008 213.156 148.435 213.156 152.992ZM145.188 224.77C150.656 224.77 154.432 223.728 156.516 221.645C158.599 219.496 159.641 215.948 159.641 211C159.641 206.052 158.599 202.471 156.516 200.258C154.432 197.979 150.656 196.84 145.188 196.84H130.637V224.77H145.188ZM130.637 179.555H145.383C149.419 179.555 152.316 178.285 154.074 175.746C155.897 173.142 156.809 170.017 156.809 166.371C156.809 162.921 155.897 159.893 154.074 157.289C152.316 154.685 149.419 153.383 145.383 153.383H130.637V179.555ZM206.145 189.223C206.145 176.658 208.195 165.655 212.297 156.215C216.464 146.71 222.323 138.767 229.875 132.387C237.427 126.007 246.379 121.221 256.73 118.031C267.147 114.841 278.638 113.246 291.203 113.246C303.703 113.246 315.161 114.841 325.578 118.031C335.995 121.221 344.947 126.007 352.434 132.387C359.986 138.767 365.812 146.71 369.914 156.215C374.081 165.655 376.164 176.658 376.164 189.223C376.164 201.723 374.081 212.725 369.914 222.23C365.812 231.671 359.986 239.613 352.434 246.059C344.947 252.439 335.995 257.224 325.578 260.414C315.161 263.604 303.703 265.199 291.203 265.199C278.638 265.199 267.147 263.604 256.73 260.414C246.379 257.224 237.427 252.439 229.875 246.059C222.323 239.613 216.464 231.671 212.297 222.23C208.195 212.725 206.145 201.723 206.145 189.223ZM271.77 189.223C271.77 197.1 272.062 203.708 272.648 209.047C273.234 214.32 274.243 218.617 275.676 221.938C277.173 225.193 279.159 227.569 281.633 229.066C284.107 230.499 287.297 231.215 291.203 231.215C294.914 231.215 298.039 230.499 300.578 229.066C303.117 227.569 305.103 225.193 306.535 221.938C308.033 218.617 309.074 214.32 309.66 209.047C310.246 203.708 310.539 197.1 310.539 189.223C310.539 181.475 310.246 174.9 309.66 169.496C309.074 164.092 308.033 159.763 306.535 156.508C305.103 153.253 303.117 150.909 300.578 149.477C298.039 147.979 294.914 147.23 291.203 147.23C287.297 147.23 284.107 147.979 281.633 149.477C279.159 150.909 277.173 153.253 275.676 156.508C274.243 159.763 273.234 164.092 272.648 169.496C272.062 174.9 271.77 181.475 271.77 189.223ZM540.051 117.152V153.383C534.322 153.383 530.546 154.327 528.723 156.215C526.965 158.103 526.086 160.837 526.086 164.418V261H467.395L416.418 181.215V215.004C416.418 219.236 417.655 221.938 420.129 223.109C422.603 224.216 426.704 224.77 432.434 224.77V261H365.246V224.77C370.975 224.77 375.077 224.021 377.551 222.523C380.025 220.961 381.262 218.064 381.262 213.832V164.418C381.262 160.121 380.025 157.224 377.551 155.727C375.077 154.164 370.975 153.383 365.246 153.383V117.152H442.004L490.832 193.617V164.418C490.832 160.121 489.921 157.224 488.098 155.727C486.34 154.164 482.596 153.383 476.867 153.383V117.152H540.051ZM603.938 210.805H573.078L571.711 215.004C570.669 217.803 570.734 220.147 571.906 222.035C573.078 223.858 575.552 224.77 579.328 224.77H584.895V261H524.055V224.77H528.059C532.746 224.77 535.871 223.858 537.434 222.035C539.061 220.147 540.624 217.413 542.121 213.832L562.141 164.418C563.573 160.642 563.801 157.875 562.824 156.117C561.913 154.294 559.081 153.383 554.328 153.383H552.277V117.152H652.668V153.383H650.715C645.897 153.383 643 154.327 642.023 156.215C641.112 158.103 641.405 160.837 642.902 164.418L662.922 213.832C663.703 215.655 664.387 217.25 664.973 218.617C665.624 219.919 666.405 221.059 667.316 222.035C668.228 222.947 669.432 223.63 670.93 224.086C672.492 224.542 674.478 224.77 676.887 224.77H680.891V261H592.121V224.77H597.492C601.203 224.77 603.677 223.858 604.914 222.035C606.216 220.147 606.346 217.803 605.305 215.004L603.938 210.805ZM578.059 195.57H598.859L589.094 165.59H588.312L578.059 195.57ZM841.848 117.152V153.383C836.118 153.383 832.342 154.327 830.52 156.215C828.762 158.103 827.883 160.837 827.883 164.418V261H769.191L718.215 181.215V215.004C718.215 219.236 719.452 221.938 721.926 223.109C724.4 224.216 728.501 224.77 734.23 224.77V261H667.043V224.77C672.772 224.77 676.874 224.021 679.348 222.523C681.822 220.961 683.059 218.064 683.059 213.832V164.418C683.059 160.121 681.822 157.224 679.348 155.727C676.874 154.164 672.772 153.383 667.043 153.383V117.152H743.801L792.629 193.617V164.418C792.629 160.121 791.717 157.224 789.895 155.727C788.137 154.164 784.393 153.383 778.664 153.383V117.152H841.848ZM919.504 228.773C922.173 228.773 924.289 228.318 925.852 227.406C927.479 226.495 928.684 225.03 929.465 223.012C930.311 220.993 930.832 218.389 931.027 215.199C931.223 212.009 931.32 208.201 931.32 203.773H965.5V261H827.902V228.773L895.871 149.379H876.34C873.671 149.379 871.522 149.867 869.895 150.844C868.267 151.755 867.062 153.22 866.281 155.238C865.5 157.191 865.012 159.796 864.816 163.051C864.621 166.241 864.523 170.017 864.523 174.379H830.344V117.152H965.5V149.379L897.531 228.773H919.504ZM1031.44 210.805H1000.58L999.211 215.004C998.169 217.803 998.234 220.147 999.406 222.035C1000.58 223.858 1003.05 224.77 1006.83 224.77H1012.39V261H951.555V224.77H955.559C960.246 224.77 963.371 223.858 964.934 222.035C966.561 220.147 968.124 217.413 969.621 213.832L989.641 164.418C991.073 160.642 991.301 157.875 990.324 156.117C989.413 154.294 986.581 153.383 981.828 153.383H979.777V117.152H1080.17V153.383H1078.21C1073.4 153.383 1070.5 154.327 1069.52 156.215C1068.61 158.103 1068.9 160.837 1070.4 164.418L1090.42 213.832C1091.2 215.655 1091.89 217.25 1092.47 218.617C1093.12 219.919 1093.9 221.059 1094.82 222.035C1095.73 222.947 1096.93 223.63 1098.43 224.086C1099.99 224.542 1101.98 224.77 1104.39 224.77H1108.39V261H1019.62V224.77H1024.99C1028.7 224.77 1031.18 223.858 1032.41 222.035C1033.72 220.147 1033.85 217.803 1032.8 215.004L1031.44 210.805ZM1005.56 195.57H1026.36L1016.59 165.59H1015.81L1005.56 195.57Z"/>
</mask>
<path d="M213.156 152.992C213.156 173.826 202.316 185.219 180.637 187.172V188.246C191.965 188.507 200.884 191.599 207.395 197.523C213.905 203.448 217.16 212.009 217.16 223.207C217.16 227.895 216.607 232.517 215.5 237.074C214.393 241.566 211.984 245.57 208.273 249.086C204.628 252.602 199.322 255.466 192.355 257.68C185.454 259.893 176.145 261 164.426 261H57.0039V224.77C62.7331 224.77 66.8346 224.021 69.3086 222.523C71.7826 220.961 73.0195 218.064 73.0195 213.832V164.418C73.0195 160.121 71.7826 157.224 69.3086 155.727C66.8346 154.164 62.7331 153.383 57.0039 153.383V117.152H171.164C180.148 117.152 187.408 118.161 192.941 120.18C198.475 122.198 202.74 124.867 205.734 128.188C208.729 131.508 210.715 135.349 211.691 139.711C212.668 144.008 213.156 148.435 213.156 152.992ZM145.188 224.77C150.656 224.77 154.432 223.728 156.516 221.645C158.599 219.496 159.641 215.948 159.641 211C159.641 206.052 158.599 202.471 156.516 200.258C154.432 197.979 150.656 196.84 145.188 196.84H130.637V224.77H145.188ZM130.637 179.555H145.383C149.419 179.555 152.316 178.285 154.074 175.746C155.897 173.142 156.809 170.017 156.809 166.371C156.809 162.921 155.897 159.893 154.074 157.289C152.316 154.685 149.419 153.383 145.383 153.383H130.637V179.555ZM206.145 189.223C206.145 176.658 208.195 165.655 212.297 156.215C216.464 146.71 222.323 138.767 229.875 132.387C237.427 126.007 246.379 121.221 256.73 118.031C267.147 114.841 278.638 113.246 291.203 113.246C303.703 113.246 315.161 114.841 325.578 118.031C335.995 121.221 344.947 126.007 352.434 132.387C359.986 138.767 365.812 146.71 369.914 156.215C374.081 165.655 376.164 176.658 376.164 189.223C376.164 201.723 374.081 212.725 369.914 222.23C365.812 231.671 359.986 239.613 352.434 246.059C344.947 252.439 335.995 257.224 325.578 260.414C315.161 263.604 303.703 265.199 291.203 265.199C278.638 265.199 267.147 263.604 256.73 260.414C246.379 257.224 237.427 252.439 229.875 246.059C222.323 239.613 216.464 231.671 212.297 222.23C208.195 212.725 206.145 201.723 206.145 189.223ZM271.77 189.223C271.77 197.1 272.062 203.708 272.648 209.047C273.234 214.32 274.243 218.617 275.676 221.938C277.173 225.193 279.159 227.569 281.633 229.066C284.107 230.499 287.297 231.215 291.203 231.215C294.914 231.215 298.039 230.499 300.578 229.066C303.117 227.569 305.103 225.193 306.535 221.938C308.033 218.617 309.074 214.32 309.66 209.047C310.246 203.708 310.539 197.1 310.539 189.223C310.539 181.475 310.246 174.9 309.66 169.496C309.074 164.092 308.033 159.763 306.535 156.508C305.103 153.253 303.117 150.909 300.578 149.477C298.039 147.979 294.914 147.23 291.203 147.23C287.297 147.23 284.107 147.979 281.633 149.477C279.159 150.909 277.173 153.253 275.676 156.508C274.243 159.763 273.234 164.092 272.648 169.496C272.062 174.9 271.77 181.475 271.77 189.223ZM540.051 117.152V153.383C534.322 153.383 530.546 154.327 528.723 156.215C526.965 158.103 526.086 160.837 526.086 164.418V261H467.395L416.418 181.215V215.004C416.418 219.236 417.655 221.938 420.129 223.109C422.603 224.216 426.704 224.77 432.434 224.77V261H365.246V224.77C370.975 224.77 375.077 224.021 377.551 222.523C380.025 220.961 381.262 218.064 381.262 213.832V164.418C381.262 160.121 380.025 157.224 377.551 155.727C375.077 154.164 370.975 153.383 365.246 153.383V117.152H442.004L490.832 193.617V164.418C490.832 160.121 489.921 157.224 488.098 155.727C486.34 154.164 482.596 153.383 476.867 153.383V117.152H540.051ZM603.938 210.805H573.078L571.711 215.004C570.669 217.803 570.734 220.147 571.906 222.035C573.078 223.858 575.552 224.77 579.328 224.77H584.895V261H524.055V224.77H528.059C532.746 224.77 535.871 223.858 537.434 222.035C539.061 220.147 540.624 217.413 542.121 213.832L562.141 164.418C563.573 160.642 563.801 157.875 562.824 156.117C561.913 154.294 559.081 153.383 554.328 153.383H552.277V117.152H652.668V153.383H650.715C645.897 153.383 643 154.327 642.023 156.215C641.112 158.103 641.405 160.837 642.902 164.418L662.922 213.832C663.703 215.655 664.387 217.25 664.973 218.617C665.624 219.919 666.405 221.059 667.316 222.035C668.228 222.947 669.432 223.63 670.93 224.086C672.492 224.542 674.478 224.77 676.887 224.77H680.891V261H592.121V224.77H597.492C601.203 224.77 603.677 223.858 604.914 222.035C606.216 220.147 606.346 217.803 605.305 215.004L603.938 210.805ZM578.059 195.57H598.859L589.094 165.59H588.312L578.059 195.57ZM841.848 117.152V153.383C836.118 153.383 832.342 154.327 830.52 156.215C828.762 158.103 827.883 160.837 827.883 164.418V261H769.191L718.215 181.215V215.004C718.215 219.236 719.452 221.938 721.926 223.109C724.4 224.216 728.501 224.77 734.23 224.77V261H667.043V224.77C672.772 224.77 676.874 224.021 679.348 222.523C681.822 220.961 683.059 218.064 683.059 213.832V164.418C683.059 160.121 681.822 157.224 679.348 155.727C676.874 154.164 672.772 153.383 667.043 153.383V117.152H743.801L792.629 193.617V164.418C792.629 160.121 791.717 157.224 789.895 155.727C788.137 154.164 784.393 153.383 778.664 153.383V117.152H841.848ZM919.504 228.773C922.173 228.773 924.289 228.318 925.852 227.406C927.479 226.495 928.684 225.03 929.465 223.012C930.311 220.993 930.832 218.389 931.027 215.199C931.223 212.009 931.32 208.201 931.32 203.773H965.5V261H827.902V228.773L895.871 149.379H876.34C873.671 149.379 871.522 149.867 869.895 150.844C868.267 151.755 867.062 153.22 866.281 155.238C865.5 157.191 865.012 159.796 864.816 163.051C864.621 166.241 864.523 170.017 864.523 174.379H830.344V117.152H965.5V149.379L897.531 228.773H919.504ZM1031.44 210.805H1000.58L999.211 215.004C998.169 217.803 998.234 220.147 999.406 222.035C1000.58 223.858 1003.05 224.77 1006.83 224.77H1012.39V261H951.555V224.77H955.559C960.246 224.77 963.371 223.858 964.934 222.035C966.561 220.147 968.124 217.413 969.621 213.832L989.641 164.418C991.073 160.642 991.301 157.875 990.324 156.117C989.413 154.294 986.581 153.383 981.828 153.383H979.777V117.152H1080.17V153.383H1078.21C1073.4 153.383 1070.5 154.327 1069.52 156.215C1068.61 158.103 1068.9 160.837 1070.4 164.418L1090.42 213.832C1091.2 215.655 1091.89 217.25 1092.47 218.617C1093.12 219.919 1093.9 221.059 1094.82 222.035C1095.73 222.947 1096.93 223.63 1098.43 224.086C1099.99 224.542 1101.98 224.77 1104.39 224.77H1108.39V261H1019.62V224.77H1024.99C1028.7 224.77 1031.18 223.858 1032.41 222.035C1033.72 220.147 1033.85 217.803 1032.8 215.004L1031.44 210.805ZM1005.56 195.57H1026.36L1016.59 165.59H1015.81L1005.56 195.57Z" fill="url(#paint0_linear_223_3)"/>
<path d="M180.637 187.172L179.201 171.236L164.637 172.549V187.172H180.637ZM180.637 188.246H164.637V203.883L180.269 204.242L180.637 188.246ZM215.5 237.074L231.035 240.902L231.042 240.876L231.048 240.85L215.5 237.074ZM208.273 249.086L197.27 237.471L197.218 237.519L197.167 237.568L208.273 249.086ZM192.355 257.68L187.51 242.431L187.489 242.438L187.469 242.444L192.355 257.68ZM57.0039 261H41.0039V277H57.0039V261ZM57.0039 224.77V208.77H41.0039V224.77H57.0039ZM69.3086 222.523L77.5934 236.211L77.7237 236.133L77.8525 236.051L69.3086 222.523ZM69.3086 155.727L60.7647 169.254L60.8935 169.336L61.0238 169.415L69.3086 155.727ZM57.0039 153.383H41.0039V169.383H57.0039V153.383ZM57.0039 117.152V101.152H41.0039V117.152H57.0039ZM211.691 139.711L196.078 143.206L196.084 143.232L196.089 143.257L211.691 139.711ZM156.516 221.645L167.829 232.958L167.916 232.871L168.002 232.783L156.516 221.645ZM156.516 200.258L144.707 211.054L144.785 211.139L144.864 211.224L156.516 200.258ZM130.637 196.84V180.84H114.637V196.84H130.637ZM130.637 224.77H114.637V240.77H130.637V224.77ZM130.637 179.555H114.637V195.555H130.637V179.555ZM154.074 175.746L140.967 166.571L140.943 166.605L140.919 166.639L154.074 175.746ZM154.074 157.289L140.813 166.241L140.889 166.353L140.967 166.464L154.074 157.289ZM130.637 153.383V137.383H114.637V153.383H130.637ZM197.156 152.992C197.156 160.673 195.203 164.274 193.435 166.133C191.568 168.096 187.658 170.474 179.201 171.236L182.072 203.107C195.295 201.916 207.645 197.622 216.618 188.191C225.689 178.657 229.156 166.144 229.156 152.992H197.156ZM164.637 187.172V188.246H196.637V187.172H164.637ZM180.269 204.242C188.876 204.44 193.708 206.702 196.626 209.357L218.163 185.69C208.06 176.496 195.053 172.573 181.004 172.25L180.269 204.242ZM196.626 209.357C198.947 211.469 201.16 215.207 201.16 223.207H233.16C233.16 208.811 228.863 195.427 218.163 185.69L196.626 209.357ZM201.16 223.207C201.16 226.622 200.759 229.977 199.952 233.298L231.048 240.85C232.455 235.057 233.16 229.167 233.16 223.207H201.16ZM199.965 233.247C199.667 234.455 198.997 235.834 197.27 237.471L219.277 260.701C224.972 255.306 229.12 248.678 231.035 240.902L199.965 233.247ZM197.167 237.568C195.901 238.789 193.095 240.656 187.51 242.431L197.201 272.928C205.548 270.276 213.354 266.414 219.38 260.603L197.167 237.568ZM187.469 242.444C182.816 243.937 175.375 245 164.426 245V277C176.914 277 188.093 275.85 197.242 272.915L187.469 242.444ZM164.426 245H57.0039V277H164.426V245ZM73.0039 261V224.77H41.0039V261H73.0039ZM57.0039 240.77C63.2956 240.77 71.1723 240.098 77.5934 236.211L61.0238 208.835C62.0122 208.237 62.4147 208.302 61.5038 208.468C60.6778 208.619 59.2345 208.77 57.0039 208.77V240.77ZM77.8525 236.051C86.8409 230.374 89.0195 220.895 89.0195 213.832H57.0195C57.0195 214.489 56.9101 213.989 57.3769 212.896C57.9303 211.6 59.0444 210.082 60.7647 208.996L77.8525 236.051ZM89.0195 213.832V164.418H57.0195V213.832H89.0195ZM89.0195 164.418C89.0195 157.466 86.9272 147.688 77.5934 142.039L61.0238 169.415C59.1368 168.272 57.95 166.647 57.3769 165.305C56.899 164.186 57.0195 163.691 57.0195 164.418H89.0195ZM77.8525 142.199C71.3526 138.094 63.3506 137.383 57.0039 137.383V169.383C59.2061 169.383 60.6065 169.538 61.3832 169.686C62.2373 169.849 61.7828 169.897 60.7647 169.254L77.8525 142.199ZM73.0039 153.383V117.152H41.0039V153.383H73.0039ZM57.0039 133.152H171.164V101.152H57.0039V133.152ZM171.164 133.152C179.157 133.152 184.352 134.078 187.459 135.211L198.423 105.148C190.463 102.245 181.14 101.152 171.164 101.152V133.152ZM187.459 135.211C191.291 136.608 193.074 138.04 193.853 138.904L217.615 117.471C212.405 111.695 205.66 107.787 198.423 105.148L187.459 135.211ZM193.853 138.904C195.004 140.179 195.703 141.533 196.078 143.206L227.305 136.215C225.726 129.164 222.455 122.836 217.615 117.471L193.853 138.904ZM196.089 143.257C196.793 146.351 197.156 149.587 197.156 152.992H229.156C229.156 147.283 228.543 141.665 227.294 136.165L196.089 143.257ZM145.188 240.77C151.63 240.77 161.034 239.754 167.829 232.958L145.202 210.331C145.929 209.604 146.62 209.153 147.106 208.894C147.347 208.766 147.539 208.683 147.666 208.634C147.792 208.585 147.863 208.565 147.866 208.564C147.87 208.563 147.817 208.578 147.699 208.6C147.582 208.622 147.411 208.649 147.18 208.675C146.712 208.728 146.057 208.77 145.188 208.77V240.77ZM168.002 232.783C174.376 226.21 175.641 217.54 175.641 211H143.641C143.641 211.684 143.604 212.176 143.564 212.501C143.524 212.829 143.487 212.934 143.507 212.865C143.548 212.726 143.886 211.685 145.029 210.506L168.002 232.783ZM175.641 211C175.641 204.399 174.35 195.862 168.167 189.292L144.864 211.224C143.823 210.117 143.524 209.169 143.496 209.073C143.483 209.027 143.522 209.149 143.563 209.485C143.604 209.82 143.641 210.316 143.641 211H175.641ZM168.324 189.462C161.56 182.063 151.917 180.84 145.188 180.84V212.84C146.01 212.84 146.608 212.883 147.015 212.933C147.424 212.984 147.565 213.032 147.499 213.012C147.381 212.977 146.08 212.556 144.707 211.054L168.324 189.462ZM145.188 180.84H130.637V212.84H145.188V180.84ZM114.637 196.84V224.77H146.637V196.84H114.637ZM130.637 240.77H145.188V208.77H130.637V240.77ZM130.637 195.555H145.383V163.555H130.637V195.555ZM145.383 195.555C152.883 195.555 161.593 192.995 167.229 184.853L140.919 166.639C141.77 165.41 142.964 164.472 144.161 163.948C145.214 163.487 145.778 163.555 145.383 163.555V195.555ZM167.182 184.921C171.155 179.246 172.809 172.801 172.809 166.371H140.809C140.809 166.857 140.749 167.025 140.765 166.969C140.772 166.944 140.792 166.885 140.831 166.804C140.87 166.722 140.917 166.642 140.967 166.571L167.182 184.921ZM172.809 166.371C172.809 159.933 171.05 153.639 167.182 148.114L140.967 166.464C140.944 166.433 140.911 166.38 140.877 166.31C140.844 166.24 140.819 166.176 140.804 166.125C140.789 166.076 140.789 166.061 140.794 166.092C140.798 166.124 140.809 166.214 140.809 166.371H172.809ZM167.336 148.337C161.766 140.085 153.04 137.383 145.383 137.383V169.383C145.731 169.383 145.116 169.444 144.024 168.953C142.788 168.398 141.619 167.435 140.813 166.241L167.336 148.337ZM145.383 137.383H130.637V169.383H145.383V137.383ZM114.637 153.383V179.555H146.637V153.383H114.637ZM212.297 156.215L197.643 149.791L197.633 149.815L197.622 149.839L212.297 156.215ZM229.875 132.387L219.549 120.165L229.875 132.387ZM256.73 118.031L252.045 102.733L252.032 102.737L252.018 102.741L256.73 118.031ZM325.578 118.031L320.893 133.33L325.578 118.031ZM352.434 132.387L342.056 144.565L342.082 144.587L342.108 144.609L352.434 132.387ZM369.914 156.215L355.223 162.554L355.25 162.615L355.276 162.676L369.914 156.215ZM369.914 222.23L355.26 215.807L355.25 215.831L355.239 215.855L369.914 222.23ZM352.434 246.059L362.811 258.237L362.82 258.229L352.434 246.059ZM325.578 260.414L320.893 245.115L325.578 260.414ZM256.73 260.414L252.018 275.704L252.032 275.709L252.045 275.713L256.73 260.414ZM229.875 246.059L219.488 258.229L219.519 258.255L219.549 258.281L229.875 246.059ZM212.297 222.23L197.606 228.57L197.632 228.631L197.659 228.691L212.297 222.23ZM272.648 209.047L256.744 210.792L256.745 210.803L256.746 210.814L272.648 209.047ZM275.676 221.938L260.984 228.275L261.06 228.45L261.14 228.624L275.676 221.938ZM281.633 229.066L273.348 242.754L273.481 242.835L273.616 242.913L281.633 229.066ZM300.578 229.066L308.439 243.002L308.573 242.926L308.706 242.848L300.578 229.066ZM306.535 221.938L291.95 215.36L291.92 215.427L291.89 215.494L306.535 221.938ZM309.66 209.047L325.562 210.814L325.563 210.803L325.565 210.792L309.66 209.047ZM306.535 156.508L291.89 162.952L291.944 163.073L291.999 163.194L306.535 156.508ZM300.578 149.477L292.45 163.258L292.583 163.337L292.717 163.412L300.578 149.477ZM281.633 149.477L289.649 163.323L289.784 163.245L289.918 163.165L281.633 149.477ZM275.676 156.508L261.14 149.821L261.084 149.942L261.031 150.064L275.676 156.508ZM222.145 189.223C222.145 178.379 223.915 169.627 226.972 162.591L197.622 149.839C192.476 161.683 190.145 174.936 190.145 189.223H222.145ZM226.951 162.638C230.187 155.257 234.608 149.333 240.201 144.609L219.549 120.165C210.038 128.2 202.741 138.162 197.643 149.791L226.951 162.638ZM240.201 144.609C245.956 139.747 252.952 135.938 261.443 133.322L252.018 102.741C239.806 106.504 228.898 112.266 219.549 120.165L240.201 144.609ZM261.416 133.33C270.102 130.67 279.988 129.246 291.203 129.246V97.2461C277.288 97.2461 264.192 99.0126 252.045 102.733L261.416 133.33ZM291.203 129.246C302.344 129.246 312.199 130.667 320.893 133.33L330.263 102.733C318.124 99.0148 305.062 97.2461 291.203 97.2461V129.246ZM320.893 133.33C329.444 135.949 336.404 139.748 342.056 144.565L362.811 120.209C353.489 112.265 342.545 106.494 330.263 102.733L320.893 133.33ZM342.108 144.609C347.68 149.316 352.055 155.211 355.223 162.554L384.605 149.876C379.57 138.209 372.291 128.218 362.759 120.165L342.108 144.609ZM355.276 162.676C358.371 169.688 360.164 178.409 360.164 189.223H392.164C392.164 174.906 389.79 161.622 384.552 149.754L355.276 162.676ZM360.164 189.223C360.164 199.955 358.377 208.697 355.26 215.807L384.568 228.654C389.785 216.754 392.164 203.491 392.164 189.223H360.164ZM355.239 215.855C352.071 223.147 347.679 229.082 342.047 233.888L362.82 258.229C372.293 250.145 379.554 240.195 384.589 228.606L355.239 215.855ZM342.056 233.881C336.404 238.697 329.444 242.496 320.893 245.115L330.263 275.713C342.545 271.951 353.489 266.181 362.811 258.237L342.056 233.881ZM320.893 245.115C312.199 247.778 302.344 249.199 291.203 249.199V281.199C305.062 281.199 318.124 279.43 330.263 275.713L320.893 245.115ZM291.203 249.199C279.988 249.199 270.102 247.776 261.416 245.115L252.045 275.713C264.192 279.433 277.288 281.199 291.203 281.199V249.199ZM261.443 245.124C252.952 242.507 245.956 238.699 240.201 233.836L219.549 258.281C228.898 266.179 239.806 271.941 252.018 275.704L261.443 245.124ZM240.262 233.888C234.61 229.065 230.17 223.1 226.934 215.77L197.659 228.691C202.757 240.241 210.036 250.162 219.488 258.229L240.262 233.888ZM226.988 215.891C223.909 208.758 222.145 199.985 222.145 189.223H190.145C190.145 203.46 192.481 216.693 197.606 228.57L226.988 215.891ZM255.77 189.223C255.77 197.441 256.073 204.675 256.744 210.792L288.553 207.301C288.052 202.741 287.77 196.759 287.77 189.223H255.77ZM256.746 210.814C257.433 216.999 258.706 222.992 260.984 228.275L290.367 215.6C289.781 214.242 289.035 211.642 288.551 207.28L256.746 210.814ZM261.14 228.624C263.653 234.086 267.546 239.242 273.348 242.754L289.918 215.378C290.096 215.486 290.245 215.598 290.361 215.699C290.477 215.799 290.543 215.874 290.566 215.902C290.609 215.954 290.459 215.79 290.212 215.251L261.14 228.624ZM273.616 242.913C279.259 246.18 285.471 247.215 291.203 247.215V215.215C290.208 215.215 289.633 215.122 289.385 215.066C289.152 215.014 289.295 215.015 289.649 215.22L273.616 242.913ZM291.203 247.215C296.931 247.215 302.932 246.109 308.439 243.002L292.717 215.131C293.146 214.889 292.897 215.215 291.203 215.215V247.215ZM308.706 242.848C314.687 239.321 318.683 234.058 321.18 228.381L291.89 215.494C291.692 215.944 291.592 216.024 291.694 215.902C291.745 215.84 291.837 215.741 291.973 215.624C292.11 215.507 292.271 215.39 292.45 215.285L308.706 242.848ZM321.121 228.515C323.542 223.146 324.868 217.062 325.562 210.814L293.758 207.28C293.28 211.579 292.523 214.088 291.95 215.36L321.121 228.515ZM325.565 210.792C326.236 204.675 326.539 197.441 326.539 189.223H294.539C294.539 196.759 294.256 202.741 293.756 207.301L325.565 210.792ZM326.539 189.223C326.539 181.119 326.235 173.931 325.567 167.771L293.753 171.221C294.257 175.868 294.539 181.831 294.539 189.223H326.539ZM325.567 167.771C324.881 161.443 323.561 155.235 321.071 149.821L291.999 163.194C292.504 164.291 293.268 166.742 293.753 171.221L325.567 167.771ZM321.18 150.064C318.669 144.356 314.603 139.018 308.439 135.541L292.717 163.412C292.497 163.288 292.298 163.149 292.127 163.006C291.957 162.864 291.837 162.738 291.764 162.651C291.618 162.479 291.699 162.517 291.89 162.952L321.18 150.064ZM308.706 135.695C303.143 132.414 297.042 131.23 291.203 131.23V163.23C292.786 163.23 292.935 163.544 292.45 163.258L308.706 135.695ZM291.203 131.23C285.366 131.23 279.05 132.337 273.348 135.789L289.918 163.165C289.543 163.391 289.36 163.41 289.537 163.369C289.731 163.323 290.253 163.23 291.203 163.23V131.23ZM273.616 135.63C267.629 139.096 263.666 144.33 261.14 149.821L290.212 163.194C290.452 162.672 290.582 162.55 290.496 162.651C290.451 162.704 290.357 162.806 290.208 162.932C290.057 163.06 289.87 163.196 289.649 163.323L273.616 135.63ZM261.031 150.064C258.688 155.389 257.421 161.504 256.742 167.771L288.555 171.221C289.047 166.681 289.799 164.137 290.321 162.952L261.031 150.064ZM256.742 167.771C256.074 173.931 255.77 181.119 255.77 189.223H287.77C287.77 181.831 288.051 175.868 288.555 171.221L256.742 167.771ZM540.051 117.152H556.051V101.152H540.051V117.152ZM540.051 153.383V169.383H556.051V153.383H540.051ZM528.723 156.215L517.212 145.101L517.111 145.206L517.012 145.312L528.723 156.215ZM526.086 261V277H542.086V261H526.086ZM467.395 261L453.912 269.615L458.63 277H467.395V261ZM416.418 181.215L429.901 172.6L400.418 126.456V181.215H416.418ZM420.129 223.109L413.28 237.569L413.436 237.644L413.595 237.714L420.129 223.109ZM432.434 224.77H448.434V208.77H432.434V224.77ZM432.434 261V277H448.434V261H432.434ZM365.246 261H349.246V277H365.246V261ZM365.246 224.77V208.77H349.246V224.77H365.246ZM377.551 222.523L385.836 236.211L385.966 236.133L386.095 236.051L377.551 222.523ZM377.551 155.727L369.007 169.254L369.136 169.336L369.266 169.415L377.551 155.727ZM365.246 153.383H349.246V169.383H365.246V153.383ZM365.246 117.152V101.152H349.246V117.152H365.246ZM442.004 117.152L455.489 108.541L450.771 101.152H442.004V117.152ZM490.832 193.617L477.347 202.228L506.832 248.402V193.617H490.832ZM488.098 155.727L477.468 167.685L477.701 167.892L477.942 168.09L488.098 155.727ZM476.867 153.383H460.867V169.383H476.867V153.383ZM476.867 117.152V101.152H460.867V117.152H476.867ZM524.051 117.152V153.383H556.051V117.152H524.051ZM540.051 137.383C536.431 137.383 532.642 137.668 529.041 138.569C525.562 139.438 520.978 141.201 517.212 145.101L540.233 167.328C539.23 168.367 538.271 168.953 537.678 169.253C537.096 169.548 536.751 169.626 536.802 169.613C536.844 169.603 537.122 169.539 537.701 169.481C538.273 169.425 539.046 169.383 540.051 169.383V137.383ZM517.012 145.312C511.582 151.145 510.086 158.373 510.086 164.418H542.086C542.086 163.898 542.154 164.028 541.978 164.578C541.78 165.192 541.328 166.156 540.433 167.118L517.012 145.312ZM510.086 164.418V261H542.086V164.418H510.086ZM526.086 245H467.395V277H526.086V245ZM480.877 252.385L429.901 172.6L402.935 189.829L453.912 269.615L480.877 252.385ZM400.418 181.215V215.004H432.418V181.215H400.418ZM400.418 215.004C400.418 221.662 402.477 232.452 413.28 237.569L426.978 208.65C428.084 209.174 429.147 209.923 430.059 210.875C430.959 211.814 431.538 212.767 431.894 213.544C432.548 214.973 432.418 215.726 432.418 215.004H400.418ZM413.595 237.714C419.37 240.298 426.41 240.77 432.434 240.77V208.77C430.034 208.77 428.331 208.651 427.2 208.498C425.957 208.33 425.972 208.195 426.663 208.504L413.595 237.714ZM416.434 224.77V261H448.434V224.77H416.434ZM432.434 245H365.246V277H432.434V245ZM381.246 261V224.77H349.246V261H381.246ZM365.246 240.77C371.538 240.77 379.414 240.098 385.836 236.211L369.266 208.835C370.254 208.237 370.657 208.302 369.746 208.468C368.92 208.619 367.477 208.77 365.246 208.77V240.77ZM386.095 236.051C395.083 230.374 397.262 220.895 397.262 213.832H365.262C365.262 214.489 365.152 213.989 365.619 212.896C366.172 211.6 367.287 210.082 369.007 208.996L386.095 236.051ZM397.262 213.832V164.418H365.262V213.832H397.262ZM397.262 164.418C397.262 157.466 395.169 147.688 385.836 142.039L369.266 169.415C367.379 168.272 366.192 166.647 365.619 165.305C365.141 164.186 365.262 163.691 365.262 164.418H397.262ZM386.095 142.199C379.595 138.094 371.593 137.383 365.246 137.383V169.383C367.448 169.383 368.849 169.538 369.625 169.686C370.479 169.849 370.025 169.897 369.007 169.254L386.095 142.199ZM381.246 153.383V117.152H349.246V153.383H381.246ZM365.246 133.152H442.004V101.152H365.246V133.152ZM428.519 125.764L477.347 202.228L504.317 185.006L455.489 108.541L428.519 125.764ZM506.832 193.617V164.418H474.832V193.617H506.832ZM506.832 164.418C506.832 159.016 505.902 149.646 498.253 143.363L477.942 168.09C475.851 166.373 475.097 164.496 474.886 163.824C474.697 163.223 474.832 163.28 474.832 164.418H506.832ZM498.727 143.768C494.839 140.311 490.314 138.948 487.24 138.306C483.905 137.61 480.345 137.383 476.867 137.383V169.383C477.946 169.383 478.808 169.42 479.477 169.475C480.155 169.531 480.544 169.598 480.703 169.631C480.879 169.668 480.64 169.636 480.136 169.421C479.642 169.211 478.619 168.708 477.468 167.685L498.727 143.768ZM492.867 153.383V117.152H460.867V153.383H492.867ZM476.867 133.152H540.051V101.152H476.867V133.152ZM603.938 210.805L619.151 205.851L615.555 194.805H603.938V210.805ZM573.078 210.805V194.805H561.461L557.864 205.851L573.078 210.805ZM571.711 215.004L586.706 220.584L586.822 220.273L586.925 219.957L571.711 215.004ZM571.906 222.035L558.312 230.473L558.379 230.581L558.447 230.687L571.906 222.035ZM584.895 224.77H600.895V208.77H584.895V224.77ZM584.895 261V277H600.895V261H584.895ZM524.055 261H508.055V277H524.055V261ZM524.055 224.77V208.77H508.055V224.77H524.055ZM537.434 222.035L525.315 211.588L525.3 211.605L525.285 211.622L537.434 222.035ZM542.121 213.832L556.882 220.005L556.917 219.923L556.95 219.84L542.121 213.832ZM562.141 164.418L576.97 170.426L577.037 170.26L577.101 170.092L562.141 164.418ZM562.824 156.117L548.513 163.273L548.669 163.584L548.838 163.887L562.824 156.117ZM552.277 153.383H536.277V169.383H552.277V153.383ZM552.277 117.152V101.152H536.277V117.152H552.277ZM652.668 117.152H668.668V101.152H652.668V117.152ZM652.668 153.383V169.383H668.668V153.383H652.668ZM642.023 156.215L627.812 148.864L627.711 149.06L627.615 149.259L642.023 156.215ZM642.902 164.418L657.732 158.41L657.698 158.327L657.664 158.245L642.902 164.418ZM662.922 213.832L648.093 219.84L648.153 219.988L648.216 220.135L662.922 213.832ZM664.973 218.617L650.266 224.92L650.452 225.352L650.662 225.773L664.973 218.617ZM667.316 222.035L655.62 232.952L655.808 233.154L656.003 233.349L667.316 222.035ZM670.93 224.086L666.271 239.393L666.36 239.42L666.45 239.446L670.93 224.086ZM680.891 224.77H696.891V208.77H680.891V224.77ZM680.891 261V277H696.891V261H680.891ZM592.121 261H576.121V277H592.121V261ZM592.121 224.77V208.77H576.121V224.77H592.121ZM604.914 222.035L591.743 212.951L591.708 213.001L591.674 213.051L604.914 222.035ZM605.305 215.004L590.091 219.957L590.193 220.273L590.309 220.584L605.305 215.004ZM578.059 195.57L562.92 190.392L555.676 211.57H578.059V195.57ZM598.859 195.57V211.57H620.899L614.073 190.615L598.859 195.57ZM589.094 165.59L604.307 160.634L600.709 149.59H589.094V165.59ZM588.312 165.59V149.59H576.875L573.173 160.412L588.312 165.59ZM603.938 194.805H573.078V226.805H603.938V194.805ZM557.864 205.851L556.497 210.051L586.925 219.957L588.292 215.758L557.864 205.851ZM556.715 209.424C554.587 215.145 553.697 223.037 558.312 230.473L585.5 213.597C586.491 215.193 586.931 216.921 586.972 218.417C587.01 219.777 586.714 220.564 586.706 220.584L556.715 209.424ZM558.447 230.687C564.226 239.677 574.14 240.77 579.328 240.77V208.77C578.58 208.77 579.051 208.659 580.172 209.072C581.474 209.552 583.692 210.78 585.365 213.383L558.447 230.687ZM579.328 240.77H584.895V208.77H579.328V240.77ZM568.895 224.77V261H600.895V224.77H568.895ZM584.895 245H524.055V277H584.895V245ZM540.055 261V224.77H508.055V261H540.055ZM524.055 240.77H528.059V208.77H524.055V240.77ZM528.059 240.77C533.418 240.77 543.097 240.014 549.582 232.448L525.285 211.622C527.127 209.474 529.05 208.839 529.438 208.726C529.816 208.616 529.491 208.77 528.059 208.77V240.77ZM549.552 232.482C552.715 228.813 555.055 224.376 556.882 220.005L527.36 207.659C526.809 208.977 526.325 209.946 525.934 210.63C525.536 211.327 525.311 211.593 525.315 211.588L549.552 232.482ZM556.95 219.84L576.97 170.426L547.311 158.41L527.292 207.824L556.95 219.84ZM577.101 170.092C578.707 165.857 581.54 156.86 576.811 148.347L548.838 163.887C547.306 161.13 547.39 158.806 547.44 158.198C547.491 157.579 547.584 157.681 547.181 158.744L577.101 170.092ZM577.135 148.962C574.021 142.734 568.542 140.002 564.918 138.836C561.262 137.659 557.5 137.383 554.328 137.383V169.383C555.909 169.383 555.939 169.562 555.115 169.297C554.323 169.042 550.716 167.678 548.513 163.273L577.135 148.962ZM554.328 137.383H552.277V169.383H554.328V137.383ZM568.277 153.383V117.152H536.277V153.383H568.277ZM552.277 133.152H652.668V101.152H552.277V133.152ZM636.668 117.152V153.383H668.668V117.152H636.668ZM652.668 137.383H650.715V169.383H652.668V137.383ZM650.715 137.383C647.481 137.383 643.672 137.672 639.972 138.878C636.265 140.086 630.935 142.825 627.812 148.864L656.235 163.566C654.088 167.716 650.696 169.04 649.886 169.304C649.082 169.565 649.131 169.383 650.715 169.383V137.383ZM627.615 149.259C623.559 157.66 626.257 166.087 628.141 170.591L657.664 158.245C657.287 157.345 657.398 157.32 657.469 157.977C657.543 158.674 657.621 160.707 656.432 163.171L627.615 149.259ZM628.073 170.426L648.093 219.84L677.751 207.824L657.732 158.41L628.073 170.426ZM648.216 220.135C648.869 221.66 648.141 219.962 648.783 221.459C648.904 221.741 648.799 221.497 648.919 221.777C649.055 222.092 648.852 221.619 648.987 221.934C649.098 222.193 648.909 221.753 649.02 222.012C649.076 222.141 648.981 221.921 649.037 222.051C649.085 222.162 649.005 221.978 649.053 222.089C649.09 222.175 649.05 222.081 649.086 222.167C649.255 222.559 648.951 221.851 649.119 222.244C649.121 222.247 649.122 222.25 649.123 222.253C649.125 222.256 649.126 222.26 649.128 222.263C649.166 222.352 649.097 222.192 649.136 222.282C649.169 222.358 649.119 222.244 649.152 222.32C649.232 222.507 649.105 222.21 649.185 222.396C649.286 222.632 649.149 222.313 649.25 222.548C649.415 222.933 649.117 222.238 649.282 222.623C649.318 222.706 649.279 222.615 649.314 222.698C649.36 222.806 649.284 222.628 649.33 222.736C649.383 222.86 649.293 222.649 649.346 222.773C649.378 222.847 649.322 222.717 649.354 222.791C649.372 222.833 649.344 222.769 649.362 222.81C649.38 222.851 649.36 222.806 649.378 222.847C649.427 222.962 649.361 222.806 649.41 222.921C649.459 223.036 649.376 222.843 649.425 222.958C649.474 223.072 649.392 222.88 649.441 222.995C649.443 222.998 649.444 223.001 649.445 223.004C649.446 223.007 649.448 223.01 649.449 223.013C649.45 223.016 649.452 223.019 649.453 223.022C649.454 223.025 649.456 223.028 649.457 223.031C649.458 223.034 649.46 223.037 649.461 223.04C649.462 223.043 649.463 223.047 649.465 223.05C649.472 223.066 649.466 223.052 649.473 223.068C649.48 223.084 649.497 223.125 649.504 223.141C649.566 223.286 649.457 223.032 649.519 223.177C649.554 223.258 649.5 223.133 649.535 223.213C649.559 223.27 649.519 223.175 649.543 223.232C649.557 223.264 649.537 223.217 649.55 223.25C649.552 223.253 649.553 223.256 649.554 223.259C649.556 223.262 649.557 223.265 649.558 223.268C649.579 223.316 649.545 223.238 649.566 223.286C649.727 223.662 649.65 223.483 649.809 223.852C649.967 224.222 649.768 223.758 649.926 224.127C650.075 224.473 649.807 223.848 649.956 224.195C650.007 224.315 649.918 224.108 649.97 224.229C649.989 224.274 649.965 224.217 649.985 224.262C650.074 224.472 649.923 224.12 650.013 224.33C650.102 224.537 649.953 224.189 650.042 224.397C650.131 224.604 650.01 224.322 650.099 224.529C650.121 224.581 650.091 224.511 650.113 224.562C650.154 224.658 650.079 224.484 650.12 224.579C650.167 224.688 650.08 224.486 650.127 224.595C650.128 224.598 650.13 224.601 650.131 224.604C650.132 224.606 650.133 224.609 650.134 224.612C650.15 224.648 650.126 224.592 650.141 224.628C650.204 224.774 650.093 224.515 650.155 224.661C650.604 225.708 649.818 223.875 650.266 224.92L679.679 212.314C679.615 212.165 679.729 212.432 679.665 212.282C679.656 212.261 679.661 212.272 679.651 212.25C679.633 212.207 679.642 212.229 679.624 212.186C679.587 212.099 679.605 212.142 679.568 212.055C679.417 211.704 679.606 212.144 679.455 211.791C679.301 211.433 679.378 211.612 679.221 211.246C679.102 210.969 679.281 211.385 679.161 211.107C679.138 211.052 679.17 211.126 679.146 211.072C679.136 211.048 679.141 211.06 679.131 211.037C679.111 210.99 679.121 211.013 679.101 210.966C679.101 210.966 678.979 210.682 678.979 210.68C678.811 210.29 679.022 210.781 678.854 210.389C678.685 209.995 678.897 210.489 678.727 210.093C678.017 208.436 678.387 209.3 677.628 207.529L648.216 220.135ZM650.662 225.773C651.938 228.325 653.571 230.758 655.62 232.952L679.013 211.118C679.238 211.359 679.309 211.513 679.283 211.462L650.662 225.773ZM656.003 233.349C659.129 236.475 662.795 238.335 666.271 239.393L675.588 208.779C676.07 208.926 677.327 209.418 678.63 210.721L656.003 233.349ZM666.45 239.446C669.984 240.477 673.615 240.77 676.887 240.77V208.77C676.173 208.77 675.694 208.735 675.415 208.703C675.127 208.67 675.153 208.651 675.41 208.726L666.45 239.446ZM676.887 240.77H680.891V208.77H676.887V240.77ZM664.891 224.77V261H696.891V224.77H664.891ZM680.891 245H592.121V277H680.891V245ZM608.121 261V224.77H576.121V261H608.121ZM592.121 240.77H597.492V208.77H592.121V240.77ZM597.492 240.77C602.863 240.77 612.354 239.566 618.154 231.019L591.674 213.051C593.278 210.688 595.332 209.539 596.6 209.072C597.695 208.669 598.169 208.77 597.492 208.77V240.77ZM618.085 231.119C623.222 223.671 622.553 215.478 620.3 209.424L590.309 220.584C590.263 220.46 589.927 219.514 590.013 217.974C590.107 216.28 590.682 214.489 591.743 212.951L618.085 231.119ZM620.519 210.051L619.151 205.851L588.724 215.758L590.091 219.957L620.519 210.051ZM578.059 211.57H598.859V179.57H578.059V211.57ZM614.073 190.615L604.307 160.634L573.88 170.545L583.646 200.526L614.073 190.615ZM589.094 149.59H588.312V181.59H589.094V149.59ZM573.173 160.412L562.92 190.392L593.198 200.748L603.452 170.768L573.173 160.412ZM841.848 117.152H857.848V101.152H841.848V117.152ZM841.848 153.383V169.383H857.848V153.383H841.848ZM830.52 156.215L819.009 145.101L818.908 145.206L818.809 145.312L830.52 156.215ZM827.883 261V277H843.883V261H827.883ZM769.191 261L755.708 269.615L760.427 277H769.191V261ZM718.215 181.215L731.698 172.6L702.215 126.456V181.215H718.215ZM721.926 223.109L715.076 237.569L715.233 237.644L715.392 237.714L721.926 223.109ZM734.23 224.77H750.23V208.77H734.23V224.77ZM734.23 261V277H750.23V261H734.23ZM667.043 261H651.043V277H667.043V261ZM667.043 224.77V208.77H651.043V224.77H667.043ZM679.348 222.523L687.632 236.211L687.763 236.133L687.892 236.051L679.348 222.523ZM679.348 155.727L670.804 169.254L670.933 169.336L671.063 169.415L679.348 155.727ZM667.043 153.383H651.043V169.383H667.043V153.383ZM667.043 117.152V101.152H651.043V117.152H667.043ZM743.801 117.152L757.286 108.541L752.568 101.152H743.801V117.152ZM792.629 193.617L779.144 202.228L808.629 248.402V193.617H792.629ZM789.895 155.727L779.265 167.685L779.498 167.892L779.739 168.09L789.895 155.727ZM778.664 153.383H762.664V169.383H778.664V153.383ZM778.664 117.152V101.152H762.664V117.152H778.664ZM825.848 117.152V153.383H857.848V117.152H825.848ZM841.848 137.383C838.228 137.383 834.439 137.668 830.838 138.569C827.359 139.438 822.775 141.201 819.009 145.101L842.03 167.328C841.027 168.367 840.068 168.953 839.475 169.253C838.892 169.548 838.548 169.626 838.599 169.613C838.641 169.603 838.918 169.539 839.498 169.481C840.07 169.425 840.843 169.383 841.848 169.383V137.383ZM818.809 145.312C813.379 151.145 811.883 158.373 811.883 164.418H843.883C843.883 163.898 843.951 164.028 843.774 164.578C843.577 165.192 843.125 166.156 842.23 167.118L818.809 145.312ZM811.883 164.418V261H843.883V164.418H811.883ZM827.883 245H769.191V277H827.883V245ZM782.674 252.385L731.698 172.6L704.732 189.829L755.708 269.615L782.674 252.385ZM702.215 181.215V215.004H734.215V181.215H702.215ZM702.215 215.004C702.215 221.662 704.274 232.452 715.076 237.569L728.775 208.65C729.881 209.174 730.943 209.923 731.856 210.875C732.756 211.814 733.335 212.767 733.69 213.544C734.345 214.973 734.215 215.726 734.215 215.004H702.215ZM715.392 237.714C721.167 240.298 728.207 240.77 734.23 240.77V208.77C731.831 208.77 730.128 208.651 728.997 208.498C727.754 208.33 727.769 208.195 728.46 208.504L715.392 237.714ZM718.23 224.77V261H750.23V224.77H718.23ZM734.23 245H667.043V277H734.23V245ZM683.043 261V224.77H651.043V261H683.043ZM667.043 240.77C673.335 240.77 681.211 240.098 687.632 236.211L671.063 208.835C672.051 208.237 672.454 208.302 671.543 208.468C670.717 208.619 669.274 208.77 667.043 208.77V240.77ZM687.892 236.051C696.88 230.374 699.059 220.895 699.059 213.832H667.059C667.059 214.489 666.949 213.989 667.416 212.896C667.969 211.6 669.083 210.082 670.804 208.996L687.892 236.051ZM699.059 213.832V164.418H667.059V213.832H699.059ZM699.059 164.418C699.059 157.466 696.966 147.688 687.632 142.039L671.063 169.415C669.176 168.272 667.989 166.647 667.416 165.305C666.938 164.186 667.059 163.691 667.059 164.418H699.059ZM687.892 142.199C681.392 138.094 673.39 137.383 667.043 137.383V169.383C669.245 169.383 670.646 169.538 671.422 169.686C672.276 169.849 671.822 169.897 670.804 169.254L687.892 142.199ZM683.043 153.383V117.152H651.043V153.383H683.043ZM667.043 133.152H743.801V101.152H667.043V133.152ZM730.316 125.764L779.144 202.228L806.114 185.006L757.286 108.541L730.316 125.764ZM808.629 193.617V164.418H776.629V193.617H808.629ZM808.629 164.418C808.629 159.016 807.699 149.646 800.05 143.363L779.739 168.09C777.648 166.373 776.894 164.496 776.683 163.824C776.494 163.223 776.629 163.28 776.629 164.418H808.629ZM800.524 143.768C796.636 140.311 792.111 138.948 789.037 138.306C785.701 137.61 782.141 137.383 778.664 137.383V169.383C779.743 169.383 780.605 169.42 781.274 169.475C781.951 169.531 782.341 169.598 782.5 169.631C782.676 169.668 782.436 169.636 781.933 169.421C781.439 169.211 780.416 168.708 779.265 167.685L800.524 143.768ZM794.664 153.383V117.152H762.664V153.383H794.664ZM778.664 133.152H841.848V101.152H778.664V133.152ZM925.852 227.406L918.034 213.446L917.911 213.515L917.79 213.586L925.852 227.406ZM929.465 223.012L914.71 216.824L914.624 217.029L914.544 217.236L929.465 223.012ZM931.32 203.773V187.773H915.32V203.773H931.32ZM965.5 203.773H981.5V187.773H965.5V203.773ZM965.5 261V277H981.5V261H965.5ZM827.902 261H811.902V277H827.902V261ZM827.902 228.773L815.748 218.368L811.902 222.86V228.773H827.902ZM895.871 149.379L908.026 159.784L930.631 133.379H895.871V149.379ZM869.895 150.844L877.712 164.804L877.921 164.687L878.126 164.564L869.895 150.844ZM866.281 155.238L881.137 161.181L881.17 161.098L881.202 161.014L866.281 155.238ZM864.816 163.051L880.787 164.029L880.787 164.019L880.788 164.009L864.816 163.051ZM864.523 174.379V190.379H880.523V174.379H864.523ZM830.344 174.379H814.344V190.379H830.344V174.379ZM830.344 117.152V101.152H814.344V117.152H830.344ZM965.5 117.152H981.5V101.152H965.5V117.152ZM965.5 149.379L977.654 159.784L981.5 155.292V149.379H965.5ZM897.531 228.773L885.377 218.368L862.772 244.773H897.531V228.773ZM919.504 244.773C923.75 244.773 929.009 244.088 933.913 241.227L917.79 213.586C918.721 213.043 919.446 212.85 919.724 212.79C919.994 212.732 919.957 212.773 919.504 212.773V244.773ZM933.669 241.366C939.053 238.352 942.487 233.692 944.386 228.788L914.544 217.236C914.683 216.877 914.996 216.217 915.617 215.462C916.257 214.683 917.082 213.979 918.034 213.446L933.669 241.366ZM944.22 229.199C946.001 224.951 946.738 220.411 946.997 216.177L915.057 214.221C914.995 215.232 914.894 215.944 914.801 216.407C914.707 216.877 914.644 216.98 914.71 216.824L944.22 229.199ZM946.997 216.177C947.219 212.565 947.32 208.413 947.32 203.773H915.32C915.32 207.988 915.227 211.454 915.057 214.221L946.997 216.177ZM931.32 219.773H965.5V187.773H931.32V219.773ZM949.5 203.773V261H981.5V203.773H949.5ZM965.5 245H827.902V277H965.5V245ZM843.902 261V228.773H811.902V261H843.902ZM840.057 239.179L908.026 159.784L883.717 138.974L815.748 218.368L840.057 239.179ZM895.871 133.379H876.34V165.379H895.871V133.379ZM876.34 133.379C871.892 133.379 866.589 134.168 861.663 137.124L878.126 164.564C877.276 165.074 876.59 165.275 876.273 165.347C875.969 165.416 875.957 165.379 876.34 165.379V133.379ZM862.077 136.884C856.693 139.898 853.259 144.558 851.36 149.462L881.202 161.014C881.063 161.373 880.75 162.033 880.129 162.788C879.489 163.567 878.664 164.271 877.712 164.804L862.077 136.884ZM851.426 149.296C849.758 153.464 849.093 157.96 848.845 162.093L880.788 164.009C880.854 162.904 880.958 162.12 881.055 161.605C881.154 161.076 881.217 160.979 881.137 161.181L851.426 149.296ZM848.846 162.073C848.625 165.681 848.523 169.799 848.523 174.379H880.523C880.523 170.235 880.617 166.8 880.787 164.029L848.846 162.073ZM864.523 158.379H830.344V190.379H864.523V158.379ZM846.344 174.379V117.152H814.344V174.379H846.344ZM830.344 133.152H965.5V101.152H830.344V133.152ZM949.5 117.152V149.379H981.5V117.152H949.5ZM953.346 138.974L885.377 218.368L909.686 239.179L977.654 159.784L953.346 138.974ZM897.531 244.773H919.504V212.773H897.531V244.773ZM1031.44 210.805L1046.65 205.851L1043.05 194.805H1031.44V210.805ZM1000.58 210.805V194.805H988.961L985.364 205.851L1000.58 210.805ZM999.211 215.004L1014.21 220.584L1014.32 220.273L1014.42 219.957L999.211 215.004ZM999.406 222.035L985.812 230.473L985.879 230.581L985.947 230.687L999.406 222.035ZM1012.39 224.77H1028.39V208.77H1012.39V224.77ZM1012.39 261V277H1028.39V261H1012.39ZM951.555 261H935.555V277H951.555V261ZM951.555 224.77V208.77H935.555V224.77H951.555ZM964.934 222.035L952.815 211.588L952.8 211.605L952.785 211.622L964.934 222.035ZM969.621 213.832L984.382 220.005L984.417 219.923L984.45 219.84L969.621 213.832ZM989.641 164.418L1004.47 170.426L1004.54 170.26L1004.6 170.092L989.641 164.418ZM990.324 156.117L976.013 163.273L976.169 163.584L976.338 163.887L990.324 156.117ZM979.777 153.383H963.777V169.383H979.777V153.383ZM979.777 117.152V101.152H963.777V117.152H979.777ZM1080.17 117.152H1096.17V101.152H1080.17V117.152ZM1080.17 153.383V169.383H1096.17V153.383H1080.17ZM1069.52 156.215L1055.31 148.864L1055.21 149.06L1055.11 149.259L1069.52 156.215ZM1070.4 164.418L1085.23 158.41L1085.2 158.327L1085.16 158.245L1070.4 164.418ZM1090.42 213.832L1075.59 219.84L1075.65 219.988L1075.72 220.135L1090.42 213.832ZM1092.47 218.617L1077.77 224.92L1077.95 225.352L1078.16 225.773L1092.47 218.617ZM1094.82 222.035L1083.12 232.952L1083.31 233.154L1083.5 233.349L1094.82 222.035ZM1098.43 224.086L1093.77 239.393L1093.86 239.42L1093.95 239.446L1098.43 224.086ZM1108.39 224.77H1124.39V208.77H1108.39V224.77ZM1108.39 261V277H1124.39V261H1108.39ZM1019.62 261H1003.62V277H1019.62V261ZM1019.62 224.77V208.77H1003.62V224.77H1019.62ZM1032.41 222.035L1019.24 212.951L1019.21 213.001L1019.17 213.051L1032.41 222.035ZM1032.8 215.004L1017.59 219.957L1017.69 220.273L1017.81 220.584L1032.8 215.004ZM1005.56 195.57L990.42 190.392L983.176 211.57H1005.56V195.57ZM1026.36 195.57V211.57H1048.4L1041.57 190.615L1026.36 195.57ZM1016.59 165.59L1031.81 160.634L1028.21 149.59H1016.59V165.59ZM1015.81 165.59V149.59H1004.37L1000.67 160.412L1015.81 165.59ZM1031.44 194.805H1000.58V226.805H1031.44V194.805ZM985.364 205.851L983.997 210.051L1014.42 219.957L1015.79 215.758L985.364 205.851ZM984.215 209.424C982.087 215.145 981.197 223.037 985.812 230.473L1013 213.597C1013.99 215.193 1014.43 216.921 1014.47 218.417C1014.51 219.777 1014.21 220.564 1014.21 220.584L984.215 209.424ZM985.947 230.687C991.726 239.677 1001.64 240.77 1006.83 240.77V208.77C1006.08 208.77 1006.55 208.659 1007.67 209.072C1008.97 209.552 1011.19 210.78 1012.87 213.383L985.947 230.687ZM1006.83 240.77H1012.39V208.77H1006.83V240.77ZM996.395 224.77V261H1028.39V224.77H996.395ZM1012.39 245H951.555V277H1012.39V245ZM967.555 261V224.77H935.555V261H967.555ZM951.555 240.77H955.559V208.77H951.555V240.77ZM955.559 240.77C960.918 240.77 970.597 240.014 977.082 232.448L952.785 211.622C954.627 209.474 956.55 208.839 956.938 208.726C957.316 208.616 956.991 208.77 955.559 208.77V240.77ZM977.052 232.482C980.215 228.813 982.555 224.376 984.382 220.005L954.86 207.659C954.309 208.977 953.825 209.946 953.434 210.63C953.036 211.327 952.811 211.593 952.815 211.588L977.052 232.482ZM984.45 219.84L1004.47 170.426L974.811 158.41L954.792 207.824L984.45 219.84ZM1004.6 170.092C1006.21 165.857 1009.04 156.86 1004.31 148.347L976.338 163.887C974.806 161.13 974.89 158.806 974.94 158.198C974.991 157.579 975.084 157.681 974.681 158.744L1004.6 170.092ZM1004.64 148.962C1001.52 142.734 996.042 140.002 992.418 138.836C988.762 137.659 985 137.383 981.828 137.383V169.383C983.409 169.383 983.439 169.562 982.615 169.297C981.823 169.042 978.216 167.678 976.013 163.273L1004.64 148.962ZM981.828 137.383H979.777V169.383H981.828V137.383ZM995.777 153.383V117.152H963.777V153.383H995.777ZM979.777 133.152H1080.17V101.152H979.777V133.152ZM1064.17 117.152V153.383H1096.17V117.152H1064.17ZM1080.17 137.383H1078.21V169.383H1080.17V137.383ZM1078.21 137.383C1074.98 137.383 1071.17 137.672 1067.47 138.878C1063.76 140.086 1058.44 142.825 1055.31 148.864L1083.73 163.566C1081.59 167.716 1078.2 169.04 1077.39 169.304C1076.58 169.565 1076.63 169.383 1078.21 169.383V137.383ZM1055.11 149.259C1051.06 157.66 1053.76 166.087 1055.64 170.591L1085.16 158.245C1084.79 157.345 1084.9 157.32 1084.97 157.977C1085.04 158.674 1085.12 160.707 1083.93 163.171L1055.11 149.259ZM1055.57 170.426L1075.59 219.84L1105.25 207.824L1085.23 158.41L1055.57 170.426ZM1075.72 220.135C1076.37 221.66 1075.64 219.962 1076.28 221.459C1076.4 221.741 1076.3 221.497 1076.42 221.777C1076.55 222.092 1076.35 221.619 1076.49 221.934C1076.6 222.193 1076.41 221.753 1076.52 222.012C1076.58 222.141 1076.48 221.921 1076.54 222.051C1076.58 222.162 1076.51 221.978 1076.55 222.089C1076.59 222.175 1076.55 222.081 1076.59 222.167C1076.75 222.559 1076.45 221.851 1076.62 222.244C1076.62 222.247 1076.62 222.25 1076.62 222.253C1076.62 222.256 1076.63 222.26 1076.63 222.263C1076.67 222.352 1076.6 222.192 1076.64 222.282C1076.67 222.358 1076.62 222.244 1076.65 222.32C1076.73 222.507 1076.6 222.21 1076.68 222.396C1076.79 222.632 1076.65 222.313 1076.75 222.548C1076.92 222.933 1076.62 222.238 1076.78 222.623C1076.82 222.706 1076.78 222.615 1076.81 222.698C1076.86 222.806 1076.78 222.628 1076.83 222.736C1076.88 222.86 1076.79 222.649 1076.85 222.773C1076.88 222.847 1076.82 222.717 1076.85 222.791C1076.87 222.833 1076.84 222.769 1076.86 222.81C1076.88 222.851 1076.86 222.806 1076.88 222.847C1076.93 222.962 1076.86 222.806 1076.91 222.921C1076.96 223.036 1076.88 222.843 1076.93 222.958C1076.97 223.072 1076.89 222.88 1076.94 222.995C1076.94 222.998 1076.94 223.001 1076.95 223.004C1076.95 223.007 1076.95 223.01 1076.95 223.013C1076.95 223.016 1076.95 223.019 1076.95 223.022C1076.95 223.025 1076.96 223.028 1076.96 223.031C1076.96 223.034 1076.96 223.037 1076.96 223.04C1076.96 223.043 1076.96 223.047 1076.96 223.05C1076.97 223.066 1076.97 223.052 1076.97 223.068C1076.98 223.084 1077 223.125 1077 223.141C1077.07 223.286 1076.96 223.032 1077.02 223.177C1077.05 223.258 1077 223.133 1077.03 223.213C1077.06 223.27 1077.02 223.175 1077.04 223.232C1077.06 223.264 1077.04 223.217 1077.05 223.25C1077.05 223.253 1077.05 223.256 1077.05 223.259C1077.06 223.262 1077.06 223.265 1077.06 223.268C1077.08 223.316 1077.05 223.238 1077.07 223.286C1077.23 223.662 1077.15 223.483 1077.31 223.852C1077.47 224.222 1077.27 223.758 1077.43 224.127C1077.57 224.473 1077.31 223.848 1077.46 224.195C1077.51 224.315 1077.42 224.108 1077.47 224.229C1077.49 224.274 1077.47 224.217 1077.48 224.262C1077.57 224.472 1077.42 224.12 1077.51 224.33C1077.6 224.537 1077.45 224.189 1077.54 224.397C1077.63 224.604 1077.51 224.322 1077.6 224.529C1077.62 224.581 1077.59 224.511 1077.61 224.562C1077.65 224.658 1077.58 224.484 1077.62 224.579C1077.67 224.688 1077.58 224.486 1077.63 224.595C1077.63 224.598 1077.63 224.601 1077.63 224.604C1077.63 224.606 1077.63 224.609 1077.63 224.612C1077.65 224.648 1077.63 224.592 1077.64 224.628C1077.7 224.774 1077.59 224.515 1077.66 224.661C1078.1 225.708 1077.32 223.875 1077.77 224.92L1107.18 212.314C1107.11 212.165 1107.23 212.432 1107.17 212.282C1107.16 212.261 1107.16 212.272 1107.15 212.25C1107.13 212.207 1107.14 212.229 1107.12 212.186C1107.09 212.099 1107.11 212.142 1107.07 212.055C1106.92 211.704 1107.11 212.144 1106.95 211.791C1106.8 211.433 1106.88 211.612 1106.72 211.246C1106.6 210.969 1106.78 211.385 1106.66 211.107C1106.64 211.052 1106.67 211.126 1106.65 211.072C1106.64 211.048 1106.64 211.06 1106.63 211.037C1106.61 210.99 1106.62 211.013 1106.6 210.966C1106.6 210.966 1106.48 210.682 1106.48 210.68C1106.31 210.29 1106.52 210.781 1106.35 210.389C1106.18 209.995 1106.4 210.489 1106.23 210.093C1105.52 208.436 1105.89 209.3 1105.13 207.529L1075.72 220.135ZM1078.16 225.773C1079.44 228.325 1081.07 230.758 1083.12 232.952L1106.51 211.118C1106.74 211.359 1106.81 211.513 1106.78 211.462L1078.16 225.773ZM1083.5 233.349C1086.63 236.475 1090.29 238.335 1093.77 239.393L1103.09 208.779C1103.57 208.926 1104.83 209.418 1106.13 210.721L1083.5 233.349ZM1093.95 239.446C1097.48 240.477 1101.12 240.77 1104.39 240.77V208.77C1103.67 208.77 1103.19 208.735 1102.91 208.703C1102.63 208.67 1102.65 208.651 1102.91 208.726L1093.95 239.446ZM1104.39 240.77H1108.39V208.77H1104.39V240.77ZM1092.39 224.77V261H1124.39V224.77H1092.39ZM1108.39 245H1019.62V277H1108.39V245ZM1035.62 261V224.77H1003.62V261H1035.62ZM1019.62 240.77H1024.99V208.77H1019.62V240.77ZM1024.99 240.77C1030.36 240.77 1039.85 239.566 1045.65 231.019L1019.17 213.051C1020.78 210.688 1022.83 209.539 1024.1 209.072C1025.2 208.669 1025.67 208.77 1024.99 208.77V240.77ZM1045.59 231.119C1050.72 223.671 1050.05 215.478 1047.8 209.424L1017.81 220.584C1017.76 220.46 1017.43 219.514 1017.51 217.974C1017.61 216.28 1018.18 214.489 1019.24 212.951L1045.59 231.119ZM1048.02 210.051L1046.65 205.851L1016.22 215.758L1017.59 219.957L1048.02 210.051ZM1005.56 211.57H1026.36V179.57H1005.56V211.57ZM1041.57 190.615L1031.81 160.634L1001.38 170.545L1011.15 200.526L1041.57 190.615ZM1016.59 149.59H1015.81V181.59H1016.59V149.59ZM1000.67 160.412L990.42 190.392L1020.7 200.748L1030.95 170.768L1000.67 160.412Z" fill="black" mask="url(#path-1-outside-1_223_3)"/>
</g>
<g filter="url(#filter1_d_223_3)">
<mask id="path-3-outside-2_223_3" maskUnits="userSpaceOnUse" x="-12" y="11" width="398" height="109" fill="black">
<rect fill="white" x="-12" y="11" width="398" height="109"/>
<path d="M40.8184 74.4863V77.416C40.8184 79.1413 41.2415 80.4922 42.0879 81.4688C42.9668 82.4128 44.5456 82.8848 46.8242 82.8848H51.8047V101H4.00195V82.8848C6.86654 82.8848 8.91732 82.5104 10.1543 81.7617C11.3913 80.9805 12.0098 79.5319 12.0098 77.416V52.709C12.0098 50.5605 11.3913 49.112 10.1543 48.3633C8.91732 47.582 6.86654 47.1914 4.00195 47.1914V29.0762H56.6875C61.5052 29.0762 65.5417 29.6458 68.7969 30.7852C72.0521 31.9245 74.6562 33.5195 76.6094 35.5703C78.5951 37.5885 79.9948 40.0462 80.8086 42.9434C81.6549 45.8405 82.0781 49.0306 82.0781 52.5137C82.0781 56.0293 81.6549 59.138 80.8086 61.8398C79.9948 64.5417 78.5951 66.8529 76.6094 68.7734C74.6562 70.6615 72.0521 72.0938 68.7969 73.0703C65.5417 74.0143 61.5052 74.4863 56.6875 74.4863H40.8184ZM40.8184 62.9141H46.0918C48.8262 62.9141 50.7142 62.1979 51.7559 60.7656C52.7975 59.3333 53.3184 57.4453 53.3184 55.1016C53.3184 52.888 52.7975 51.0163 51.7559 49.4863C50.7142 47.9564 48.8262 47.1914 46.0918 47.1914H40.8184V62.9141ZM75.6426 65.1113C75.6426 58.8288 76.668 53.3275 78.7188 48.6074C80.8021 43.8548 83.7318 39.8835 87.5078 36.6934C91.2839 33.5033 95.7598 31.1107 100.936 29.5156C106.144 27.9206 111.889 27.123 118.172 27.123C124.422 27.123 130.151 27.9206 135.359 29.5156C140.568 31.1107 145.044 33.5033 148.787 36.6934C152.563 39.8835 155.477 43.8548 157.527 48.6074C159.611 53.3275 160.652 58.8288 160.652 65.1113C160.652 71.3613 159.611 76.8626 157.527 81.6152C155.477 86.3353 152.563 90.3066 148.787 93.5293C145.044 96.7194 140.568 99.112 135.359 100.707C130.151 102.302 124.422 103.1 118.172 103.1C111.889 103.1 106.144 102.302 100.936 100.707C95.7598 99.112 91.2839 96.7194 87.5078 93.5293C83.7318 90.3066 80.8021 86.3353 78.7188 81.6152C76.668 76.8626 75.6426 71.3613 75.6426 65.1113ZM108.455 65.1113C108.455 69.0501 108.602 72.3542 108.895 75.0234C109.188 77.6602 109.692 79.8086 110.408 81.4688C111.157 83.0964 112.15 84.2845 113.387 85.0332C114.624 85.7493 116.219 86.1074 118.172 86.1074C120.027 86.1074 121.59 85.7493 122.859 85.0332C124.129 84.2845 125.122 83.0964 125.838 81.4688C126.587 79.8086 127.107 77.6602 127.4 75.0234C127.693 72.3542 127.84 69.0501 127.84 65.1113C127.84 61.2376 127.693 57.9499 127.4 55.248C127.107 52.5462 126.587 50.3815 125.838 48.7539C125.122 47.1263 124.129 45.9544 122.859 45.2383C121.59 44.4896 120.027 44.1152 118.172 44.1152C116.219 44.1152 114.624 44.4896 113.387 45.2383C112.15 45.9544 111.157 47.1263 110.408 48.7539C109.692 50.3815 109.188 52.5462 108.895 55.248C108.602 57.9499 108.455 61.2376 108.455 65.1113ZM199.969 47.1914C197.104 47.1914 195.053 47.582 193.816 48.3633C192.612 49.112 192.01 50.5605 192.01 52.709V82.8848H201.775C203.11 82.8848 204.233 82.7546 205.145 82.4941C206.056 82.2337 206.772 81.6966 207.293 80.8828C207.814 80.0365 208.172 78.8646 208.367 77.3672C208.595 75.8698 208.709 73.8841 208.709 71.4102H225.799V101H155.193V82.8848C158.058 82.8848 160.109 82.5104 161.346 81.7617C162.583 80.9805 163.201 79.5319 163.201 77.416V52.709C163.201 50.5605 162.583 49.112 161.346 48.3633C160.109 47.582 158.058 47.1914 155.193 47.1914V29.0762H199.969V47.1914ZM264.578 47.1914C261.714 47.1914 259.663 47.582 258.426 48.3633C257.221 49.112 256.619 50.5605 256.619 52.709V82.8848H266.385C267.719 82.8848 268.842 82.7546 269.754 82.4941C270.665 82.2337 271.382 81.6966 271.902 80.8828C272.423 80.0365 272.781 78.8646 272.977 77.3672C273.204 75.8698 273.318 73.8841 273.318 71.4102H290.408V101H219.803V82.8848C222.667 82.8848 224.718 82.5104 225.955 81.7617C227.192 80.9805 227.811 79.5319 227.811 77.416V52.709C227.811 50.5605 227.192 49.112 225.955 48.3633C224.718 47.582 222.667 47.1914 219.803 47.1914V29.0762H264.578V47.1914ZM284.9 65.1113C284.9 58.8288 285.926 53.3275 287.977 48.6074C290.06 43.8548 292.99 39.8835 296.766 36.6934C300.542 33.5033 305.018 31.1107 310.193 29.5156C315.402 27.9206 321.147 27.123 327.43 27.123C333.68 27.123 339.409 27.9206 344.617 29.5156C349.826 31.1107 354.301 33.5033 358.045 36.6934C361.821 39.8835 364.734 43.8548 366.785 48.6074C368.868 53.3275 369.91 58.8288 369.91 65.1113C369.91 71.3613 368.868 76.8626 366.785 81.6152C364.734 86.3353 361.821 90.3066 358.045 93.5293C354.301 96.7194 349.826 99.112 344.617 100.707C339.409 102.302 333.68 103.1 327.43 103.1C321.147 103.1 315.402 102.302 310.193 100.707C305.018 99.112 300.542 96.7194 296.766 93.5293C292.99 90.3066 290.06 86.3353 287.977 81.6152C285.926 76.8626 284.9 71.3613 284.9 65.1113ZM317.713 65.1113C317.713 69.0501 317.859 72.3542 318.152 75.0234C318.445 77.6602 318.95 79.8086 319.666 81.4688C320.415 83.0964 321.408 84.2845 322.645 85.0332C323.882 85.7493 325.477 86.1074 327.43 86.1074C329.285 86.1074 330.848 85.7493 332.117 85.0332C333.387 84.2845 334.38 83.0964 335.096 81.4688C335.844 79.8086 336.365 77.6602 336.658 75.0234C336.951 72.3542 337.098 69.0501 337.098 65.1113C337.098 61.2376 336.951 57.9499 336.658 55.248C336.365 52.5462 335.844 50.3815 335.096 48.7539C334.38 47.1263 333.387 45.9544 332.117 45.2383C330.848 44.4896 329.285 44.1152 327.43 44.1152C325.477 44.1152 323.882 44.4896 322.645 45.2383C321.408 45.9544 320.415 47.1263 319.666 48.7539C318.95 50.3815 318.445 52.5462 318.152 55.248C317.859 57.9499 317.713 61.2376 317.713 65.1113Z"/>
</mask>
<path d="M40.8184 74.4863V77.416C40.8184 79.1413 41.2415 80.4922 42.0879 81.4688C42.9668 82.4128 44.5456 82.8848 46.8242 82.8848H51.8047V101H4.00195V82.8848C6.86654 82.8848 8.91732 82.5104 10.1543 81.7617C11.3913 80.9805 12.0098 79.5319 12.0098 77.416V52.709C12.0098 50.5605 11.3913 49.112 10.1543 48.3633C8.91732 47.582 6.86654 47.1914 4.00195 47.1914V29.0762H56.6875C61.5052 29.0762 65.5417 29.6458 68.7969 30.7852C72.0521 31.9245 74.6562 33.5195 76.6094 35.5703C78.5951 37.5885 79.9948 40.0462 80.8086 42.9434C81.6549 45.8405 82.0781 49.0306 82.0781 52.5137C82.0781 56.0293 81.6549 59.138 80.8086 61.8398C79.9948 64.5417 78.5951 66.8529 76.6094 68.7734C74.6562 70.6615 72.0521 72.0938 68.7969 73.0703C65.5417 74.0143 61.5052 74.4863 56.6875 74.4863H40.8184ZM40.8184 62.9141H46.0918C48.8262 62.9141 50.7142 62.1979 51.7559 60.7656C52.7975 59.3333 53.3184 57.4453 53.3184 55.1016C53.3184 52.888 52.7975 51.0163 51.7559 49.4863C50.7142 47.9564 48.8262 47.1914 46.0918 47.1914H40.8184V62.9141ZM75.6426 65.1113C75.6426 58.8288 76.668 53.3275 78.7188 48.6074C80.8021 43.8548 83.7318 39.8835 87.5078 36.6934C91.2839 33.5033 95.7598 31.1107 100.936 29.5156C106.144 27.9206 111.889 27.123 118.172 27.123C124.422 27.123 130.151 27.9206 135.359 29.5156C140.568 31.1107 145.044 33.5033 148.787 36.6934C152.563 39.8835 155.477 43.8548 157.527 48.6074C159.611 53.3275 160.652 58.8288 160.652 65.1113C160.652 71.3613 159.611 76.8626 157.527 81.6152C155.477 86.3353 152.563 90.3066 148.787 93.5293C145.044 96.7194 140.568 99.112 135.359 100.707C130.151 102.302 124.422 103.1 118.172 103.1C111.889 103.1 106.144 102.302 100.936 100.707C95.7598 99.112 91.2839 96.7194 87.5078 93.5293C83.7318 90.3066 80.8021 86.3353 78.7188 81.6152C76.668 76.8626 75.6426 71.3613 75.6426 65.1113ZM108.455 65.1113C108.455 69.0501 108.602 72.3542 108.895 75.0234C109.188 77.6602 109.692 79.8086 110.408 81.4688C111.157 83.0964 112.15 84.2845 113.387 85.0332C114.624 85.7493 116.219 86.1074 118.172 86.1074C120.027 86.1074 121.59 85.7493 122.859 85.0332C124.129 84.2845 125.122 83.0964 125.838 81.4688C126.587 79.8086 127.107 77.6602 127.4 75.0234C127.693 72.3542 127.84 69.0501 127.84 65.1113C127.84 61.2376 127.693 57.9499 127.4 55.248C127.107 52.5462 126.587 50.3815 125.838 48.7539C125.122 47.1263 124.129 45.9544 122.859 45.2383C121.59 44.4896 120.027 44.1152 118.172 44.1152C116.219 44.1152 114.624 44.4896 113.387 45.2383C112.15 45.9544 111.157 47.1263 110.408 48.7539C109.692 50.3815 109.188 52.5462 108.895 55.248C108.602 57.9499 108.455 61.2376 108.455 65.1113ZM199.969 47.1914C197.104 47.1914 195.053 47.582 193.816 48.3633C192.612 49.112 192.01 50.5605 192.01 52.709V82.8848H201.775C203.11 82.8848 204.233 82.7546 205.145 82.4941C206.056 82.2337 206.772 81.6966 207.293 80.8828C207.814 80.0365 208.172 78.8646 208.367 77.3672C208.595 75.8698 208.709 73.8841 208.709 71.4102H225.799V101H155.193V82.8848C158.058 82.8848 160.109 82.5104 161.346 81.7617C162.583 80.9805 163.201 79.5319 163.201 77.416V52.709C163.201 50.5605 162.583 49.112 161.346 48.3633C160.109 47.582 158.058 47.1914 155.193 47.1914V29.0762H199.969V47.1914ZM264.578 47.1914C261.714 47.1914 259.663 47.582 258.426 48.3633C257.221 49.112 256.619 50.5605 256.619 52.709V82.8848H266.385C267.719 82.8848 268.842 82.7546 269.754 82.4941C270.665 82.2337 271.382 81.6966 271.902 80.8828C272.423 80.0365 272.781 78.8646 272.977 77.3672C273.204 75.8698 273.318 73.8841 273.318 71.4102H290.408V101H219.803V82.8848C222.667 82.8848 224.718 82.5104 225.955 81.7617C227.192 80.9805 227.811 79.5319 227.811 77.416V52.709C227.811 50.5605 227.192 49.112 225.955 48.3633C224.718 47.582 222.667 47.1914 219.803 47.1914V29.0762H264.578V47.1914ZM284.9 65.1113C284.9 58.8288 285.926 53.3275 287.977 48.6074C290.06 43.8548 292.99 39.8835 296.766 36.6934C300.542 33.5033 305.018 31.1107 310.193 29.5156C315.402 27.9206 321.147 27.123 327.43 27.123C333.68 27.123 339.409 27.9206 344.617 29.5156C349.826 31.1107 354.301 33.5033 358.045 36.6934C361.821 39.8835 364.734 43.8548 366.785 48.6074C368.868 53.3275 369.91 58.8288 369.91 65.1113C369.91 71.3613 368.868 76.8626 366.785 81.6152C364.734 86.3353 361.821 90.3066 358.045 93.5293C354.301 96.7194 349.826 99.112 344.617 100.707C339.409 102.302 333.68 103.1 327.43 103.1C321.147 103.1 315.402 102.302 310.193 100.707C305.018 99.112 300.542 96.7194 296.766 93.5293C292.99 90.3066 290.06 86.3353 287.977 81.6152C285.926 76.8626 284.9 71.3613 284.9 65.1113ZM317.713 65.1113C317.713 69.0501 317.859 72.3542 318.152 75.0234C318.445 77.6602 318.95 79.8086 319.666 81.4688C320.415 83.0964 321.408 84.2845 322.645 85.0332C323.882 85.7493 325.477 86.1074 327.43 86.1074C329.285 86.1074 330.848 85.7493 332.117 85.0332C333.387 84.2845 334.38 83.0964 335.096 81.4688C335.844 79.8086 336.365 77.6602 336.658 75.0234C336.951 72.3542 337.098 69.0501 337.098 65.1113C337.098 61.2376 336.951 57.9499 336.658 55.248C336.365 52.5462 335.844 50.3815 335.096 48.7539C334.38 47.1263 333.387 45.9544 332.117 45.2383C330.848 44.4896 329.285 44.1152 327.43 44.1152C325.477 44.1152 323.882 44.4896 322.645 45.2383C321.408 45.9544 320.415 47.1263 319.666 48.7539C318.95 50.3815 318.445 52.5462 318.152 55.248C317.859 57.9499 317.713 61.2376 317.713 65.1113Z" fill="#F7D416"/>
<path d="M40.8184 74.4863V58.4863H24.8184V74.4863H40.8184ZM42.0879 81.4688L29.9969 91.9476L30.1835 92.1629L30.3776 92.3714L42.0879 81.4688ZM51.8047 82.8848H67.8047V66.8848H51.8047V82.8848ZM51.8047 101V117H67.8047V101H51.8047ZM4.00195 101H-11.998V117H4.00195V101ZM4.00195 82.8848V66.8848H-11.998V82.8848H4.00195ZM10.1543 81.7617L18.4391 95.4497L18.5694 95.3709L18.6982 95.2895L10.1543 81.7617ZM10.1543 48.3633L1.61041 61.8911L1.73917 61.9724L1.86945 62.0513L10.1543 48.3633ZM4.00195 47.1914H-11.998V63.1914H4.00195V47.1914ZM4.00195 29.0762V13.0762H-11.998V29.0762H4.00195ZM68.7969 30.7852L63.5113 45.8869L68.7969 30.7852ZM76.6094 35.5703L65.0232 46.6048L65.1129 46.699L65.2041 46.7917L76.6094 35.5703ZM80.8086 42.9434L65.4048 47.2703L65.4272 47.3502L65.4505 47.43L80.8086 42.9434ZM80.8086 61.8398L65.5402 57.057L65.5139 57.141L65.4885 57.2253L80.8086 61.8398ZM76.6094 68.7734L87.7297 80.2773L87.733 80.2741L76.6094 68.7734ZM68.7969 73.0703L73.2533 88.4372L73.3239 88.4167L73.3944 88.3955L68.7969 73.0703ZM40.8184 62.9141H24.8184V78.9141H40.8184V62.9141ZM51.7559 60.7656L64.6956 70.1764L51.7559 60.7656ZM51.7559 49.4863L64.9814 40.4817L51.7559 49.4863ZM40.8184 47.1914V31.1914H24.8184V47.1914H40.8184ZM24.8184 74.4863V77.416H56.8184V74.4863H24.8184ZM24.8184 77.416C24.8184 81.6865 25.8895 87.2083 29.9969 91.9476L54.1789 70.9899C56.5936 73.776 56.8184 76.5961 56.8184 77.416H24.8184ZM30.3776 92.3714C35.9196 98.324 43.2746 98.8848 46.8242 98.8848V66.8848C46.6898 66.8848 47.3702 66.8592 48.5142 67.2012C49.7084 67.5582 51.8298 68.4519 53.7982 70.5661L30.3776 92.3714ZM46.8242 98.8848H51.8047V66.8848H46.8242V98.8848ZM35.8047 82.8848V101H67.8047V82.8848H35.8047ZM51.8047 85H4.00195V117H51.8047V85ZM20.002 101V82.8848H-11.998V101H20.002ZM4.00195 98.8848C7.42906 98.8848 13.2549 98.5875 18.4391 95.4497L1.86945 68.0737C2.71573 67.5615 3.436 67.2712 3.90204 67.112C4.37223 66.9514 4.6969 66.8857 4.81532 66.8641C5.01474 66.8277 4.80025 66.8848 4.00195 66.8848V98.8848ZM18.6982 95.2895C26.4496 90.3939 28.0098 82.3632 28.0098 77.416H-3.99023C-3.99023 77.0145 -3.94509 75.6244 -3.16896 73.8066C-2.30634 71.7863 -0.728357 69.711 1.61041 68.2339L18.6982 95.2895ZM28.0098 77.416V52.709H-3.99023V77.416H28.0098ZM28.0098 52.709C28.0098 47.9052 26.536 39.576 18.4391 34.6753L1.86945 62.0513C-0.635998 60.5348 -2.2866 58.3606 -3.16896 56.294C-3.95616 54.4503 -3.99023 53.056 -3.99023 52.709H28.0098ZM18.6982 34.8355C13.4353 31.5115 7.48405 31.1914 4.00195 31.1914V63.1914C4.77182 63.1914 4.94337 63.2492 4.69468 63.2018C4.55077 63.1744 4.19888 63.0989 3.70205 62.9218C3.20792 62.7457 2.46759 62.4325 1.61041 61.8911L18.6982 34.8355ZM20.002 47.1914V29.0762H-11.998V47.1914H20.002ZM4.00195 45.0762H56.6875V13.0762H4.00195V45.0762ZM56.6875 45.0762C60.3645 45.0762 62.4819 45.5266 63.5113 45.8869L74.0825 15.6834C68.6015 13.7651 62.6459 13.0762 56.6875 13.0762V45.0762ZM63.5113 45.8869C64.888 46.3687 65.159 46.7474 65.0232 46.6048L88.1956 24.5358C84.1535 20.2917 79.2162 17.4802 74.0825 15.6834L63.5113 45.8869ZM65.2041 46.7917C65.2257 46.8137 65.2321 46.8226 65.2452 46.8456C65.2608 46.873 65.3276 46.9957 65.4048 47.2703L96.2124 38.6164C94.7161 33.2894 92.0126 28.4124 88.0147 24.349L65.2041 46.7917ZM65.4505 47.43C65.8115 48.6656 66.0781 50.3207 66.0781 52.5137H98.0781C98.0781 47.7405 97.4984 43.0154 96.1667 38.4567L65.4505 47.43ZM66.0781 52.5137C66.0781 54.7822 65.801 56.2244 65.5402 57.057L96.077 66.6227C97.5089 62.0516 98.0781 57.2764 98.0781 52.5137H66.0781ZM65.4885 57.2253C65.469 57.2899 65.4551 57.3225 65.4518 57.33C65.4499 57.3343 65.4499 57.334 65.452 57.3299C65.4541 57.3258 65.4577 57.3193 65.4627 57.3111C65.4677 57.3028 65.4733 57.2941 65.4793 57.2856C65.4853 57.277 65.4906 57.2699 65.4949 57.2646C65.4991 57.2594 65.5012 57.2571 65.5005 57.2579C65.4997 57.2588 65.4951 57.2637 65.4858 57.2728L87.733 80.2741C91.726 76.412 94.5446 71.7136 96.1287 66.4543L65.4885 57.2253ZM65.489 57.2696C65.7777 56.9905 65.608 57.3225 64.1993 57.7451L73.3944 88.3955C78.4961 86.865 83.5348 84.3324 87.7297 80.2773L65.489 57.2696ZM64.3405 57.7034C63.0005 58.092 60.5763 58.4863 56.6875 58.4863V90.4863C62.4341 90.4863 68.0828 89.9366 73.2533 88.4372L64.3405 57.7034ZM56.6875 58.4863H40.8184V90.4863H56.6875V58.4863ZM40.8184 78.9141H46.0918V46.9141H40.8184V78.9141ZM46.0918 78.9141C51.0776 78.9141 59.2814 77.6209 64.6956 70.1764L38.8161 51.3549C40.373 49.2141 42.3378 48.0035 43.8841 47.417C44.6029 47.1444 45.1792 47.0234 45.5342 46.9684C45.889 46.9135 46.0887 46.9141 46.0918 46.9141V78.9141ZM64.6956 70.1764C68.2813 65.2461 69.3184 59.7419 69.3184 55.1016H37.3184C37.3184 55.0977 37.3184 54.999 37.3405 54.8194C37.3627 54.639 37.4086 54.366 37.5039 54.0205C37.7008 53.3064 38.0921 52.3503 38.8161 51.3549L64.6956 70.1764ZM69.3184 55.1016C69.3184 50.3168 68.1606 45.1511 64.9814 40.4817L38.5303 58.491C37.4344 56.8814 37.3184 55.4592 37.3184 55.1016H69.3184ZM64.9814 40.4817C59.7154 32.7472 51.4386 31.1914 46.0918 31.1914V63.1914C46.0635 63.1914 45.0466 63.2004 43.5503 62.5942C41.873 61.9146 39.965 60.5982 38.5303 58.491L64.9814 40.4817ZM46.0918 31.1914H40.8184V63.1914H46.0918V31.1914ZM24.8184 47.1914V62.9141H56.8184V47.1914H24.8184ZM78.7188 48.6074L64.0648 42.1838L64.0544 42.2076L64.044 42.2315L78.7188 48.6074ZM87.5078 36.6934L77.1822 24.4712L87.5078 36.6934ZM100.936 29.5156L96.2503 14.217L96.2369 14.2211L96.2234 14.2252L100.936 29.5156ZM135.359 29.5156L130.674 44.8143L135.359 29.5156ZM148.787 36.6934L138.409 48.8713L138.435 48.8935L138.461 48.9155L148.787 36.6934ZM157.527 48.6074L142.837 54.9465L142.863 55.0075L142.89 55.0682L157.527 48.6074ZM157.527 81.6152L142.873 75.1916L142.863 75.2154L142.853 75.2393L157.527 81.6152ZM148.787 93.5293L159.165 105.707L159.174 105.7L148.787 93.5293ZM135.359 100.707L130.674 85.4084L135.359 100.707ZM100.936 100.707L96.2234 115.997L96.2369 116.002L96.2503 116.006L100.936 100.707ZM87.5078 93.5293L77.1211 105.7L77.1516 105.726L77.1822 105.751L87.5078 93.5293ZM78.7188 81.6152L64.0281 87.9544L64.0544 88.0153L64.0812 88.076L78.7188 81.6152ZM108.895 75.0234L92.99 76.7691L92.9912 76.7797L92.9924 76.7903L108.895 75.0234ZM110.408 81.4688L95.7168 87.8062L95.7925 87.9817L95.8724 88.1552L110.408 81.4688ZM113.387 85.0332L105.102 98.7212L105.235 98.8019L105.37 98.88L113.387 85.0332ZM122.859 85.0332L130.721 98.9689L130.855 98.8932L130.987 98.8151L122.859 85.0332ZM125.838 81.4688L111.253 74.891L111.222 74.9578L111.193 75.0249L125.838 81.4688ZM127.4 75.0234L143.303 76.7903L143.304 76.7797L143.305 76.7691L127.4 75.0234ZM125.838 48.7539L111.193 55.1977L111.246 55.3195L111.302 55.4404L125.838 48.7539ZM122.859 45.2383L114.732 59.0201L114.864 59.0983L114.998 59.1739L122.859 45.2383ZM113.387 45.2383L121.403 59.0851L121.538 59.007L121.672 58.9263L113.387 45.2383ZM110.408 48.7539L95.8724 42.0674L95.8168 42.1883L95.7632 42.3101L110.408 48.7539ZM91.6426 65.1113C91.6426 60.5499 92.3873 57.299 93.3935 54.9833L64.044 42.2315C60.9486 49.3559 59.6426 57.1076 59.6426 65.1113H91.6426ZM93.3727 55.0311C94.5251 52.4021 96.0171 50.45 97.8334 48.9155L77.1822 24.4712C71.4464 29.3169 67.0791 35.3076 64.0648 42.1838L93.3727 55.0311ZM97.8334 48.9155C99.8126 47.2435 102.332 45.8277 105.648 44.806L96.2234 14.2252C89.1872 16.3936 82.7551 19.763 77.1822 24.4712L97.8334 48.9155ZM105.621 44.8143C109.099 43.7491 113.239 43.123 118.172 43.123V11.123C110.54 11.123 103.189 12.092 96.2503 14.217L105.621 44.8143ZM118.172 43.123C123.063 43.123 127.189 43.7469 130.674 44.8143L140.045 14.217C133.113 12.0943 125.781 11.123 118.172 11.123V43.123ZM130.674 44.8143C134.017 45.8381 136.501 47.245 138.409 48.8713L159.165 24.5154C153.586 19.7615 147.118 16.3832 140.045 14.217L130.674 44.8143ZM138.461 48.9155C140.258 50.4329 141.719 52.3559 142.837 54.9465L172.218 42.2683C169.234 35.3537 164.869 29.334 159.113 24.4712L138.461 48.9155ZM142.89 55.0682C143.901 57.3602 144.652 60.5803 144.652 65.1113H176.652C176.652 57.0773 175.32 49.2947 172.165 42.1467L142.89 55.0682ZM144.652 65.1113C144.652 69.5932 143.907 72.8341 142.873 75.1916L172.181 88.0389C175.314 80.8912 176.652 73.1294 176.652 65.1113H144.652ZM142.853 75.2393C141.735 77.8112 140.256 79.7751 138.4 81.359L159.174 105.7C164.87 100.838 169.218 94.8593 172.202 87.9912L142.853 75.2393ZM138.409 81.3513C136.501 82.9776 134.017 84.3845 130.674 85.4084L140.045 116.006C147.118 113.839 153.586 110.461 159.165 105.707L138.409 81.3513ZM130.674 85.4084C127.189 86.4758 123.063 87.0996 118.172 87.0996V119.1C125.781 119.1 133.113 118.128 140.045 116.006L130.674 85.4084ZM118.172 87.0996C113.239 87.0996 109.099 86.4735 105.621 85.4084L96.2503 116.006C103.189 118.131 110.54 119.1 118.172 119.1V87.0996ZM105.648 85.4166C102.332 84.3949 99.8126 82.9792 97.8334 81.3071L77.1822 105.751C82.7551 110.46 89.1872 113.829 96.2234 115.997L105.648 85.4166ZM97.8945 81.359C96.0187 79.7581 94.5086 77.7652 93.3563 75.1545L64.0812 88.076C67.0955 94.9054 71.4449 100.855 77.1211 105.7L97.8945 81.359ZM93.4094 75.2761C92.382 72.8952 91.6426 69.6238 91.6426 65.1113H59.6426C59.6426 73.0989 60.9539 80.8301 64.0281 87.9544L93.4094 75.2761ZM92.4551 65.1113C92.4551 69.3912 92.6116 73.321 92.99 76.7691L124.799 73.2778C124.592 71.3873 124.455 68.7091 124.455 65.1113H92.4551ZM92.9924 76.7903C93.3866 80.3384 94.1542 84.1837 95.7168 87.8062L125.1 75.1313C125.186 75.3309 125.151 75.3035 125.069 74.9543C124.989 74.6128 124.886 74.0611 124.797 73.2565L92.9924 76.7903ZM95.8724 88.1552C97.6364 91.99 100.537 95.958 105.102 98.7212L121.672 71.3452C123.763 72.611 124.677 74.2027 124.944 74.7823L95.8724 88.1552ZM105.37 98.88C109.776 101.431 114.393 102.107 118.172 102.107V70.1074C118.172 70.1074 118.19 70.1074 118.224 70.1091C118.258 70.1107 118.311 70.1141 118.381 70.1211C118.519 70.1351 118.735 70.1644 119.015 70.2274C119.579 70.354 120.431 70.6233 121.403 71.1864L105.37 98.88ZM118.172 102.107C122.045 102.107 126.483 101.359 130.721 98.9689L114.998 71.0975C116.697 70.1393 118.01 70.1074 118.172 70.1074V102.107ZM130.987 98.8151C135.699 96.0364 138.702 91.9612 140.483 87.9126L111.193 75.0249C111.542 74.2315 112.559 72.5327 114.732 71.2513L130.987 98.8151ZM140.423 88.0465C142.096 84.3378 142.901 80.4017 143.303 76.7903L111.498 73.2565C111.412 74.0291 111.313 74.5427 111.24 74.8427C111.166 75.1495 111.144 75.1324 111.253 74.891L140.423 88.0465ZM143.305 76.7691C143.683 73.321 143.84 69.3912 143.84 65.1113H111.84C111.84 68.7091 111.703 71.3873 111.496 73.2778L143.305 76.7691ZM143.84 65.1113C143.84 60.8817 143.682 56.9816 143.307 53.5232L111.494 56.9729C111.705 58.9181 111.84 61.5935 111.84 65.1113H143.84ZM143.307 53.5232C142.914 49.8971 142.115 45.8536 140.374 42.0674L111.302 55.4404C111.152 55.1135 111.161 55.0381 111.234 55.341C111.304 55.633 111.405 56.1593 111.494 56.9729L143.307 53.5232ZM140.483 42.3101C138.688 38.2298 135.615 34.0636 130.721 31.3026L114.998 59.1739C112.643 57.8453 111.556 56.0228 111.193 55.1977L140.483 42.3101ZM130.987 31.4564C126.694 28.9244 122.155 28.1152 118.172 28.1152V60.1152C117.9 60.1152 116.486 60.0547 114.732 59.0201L130.987 31.4564ZM118.172 28.1152C114.288 28.1152 109.567 28.8476 105.102 31.5503L121.672 58.9263C120.679 59.5271 119.787 59.827 119.167 59.9728C118.563 60.1144 118.199 60.1152 118.172 60.1152V28.1152ZM105.37 31.3915C100.62 34.1414 97.6498 38.2033 95.8724 42.0674L124.944 55.4404C124.664 56.0493 123.679 57.7675 121.403 59.0851L105.37 31.3915ZM95.7632 42.3101C94.1362 46.0077 93.3744 49.9577 92.9878 53.5232L124.801 56.9729C124.893 56.1283 124.997 55.5639 125.075 55.2301C125.156 54.8844 125.178 54.9138 125.053 55.1977L95.7632 42.3101ZM92.9878 53.5232C92.6128 56.9816 92.4551 60.8817 92.4551 65.1113H124.455C124.455 61.5935 124.59 58.9181 124.801 56.9729L92.9878 53.5232ZM199.969 47.1914V63.1914H215.969V47.1914H199.969ZM193.816 48.3633L202.263 61.9518L202.312 61.9216L202.36 61.8911L193.816 48.3633ZM192.01 82.8848H176.01V98.8848H192.01V82.8848ZM207.293 80.8828L220.769 89.5077L220.845 89.3887L220.92 89.2684L207.293 80.8828ZM208.367 77.3672L192.549 74.9601L192.524 75.1287L192.502 75.2978L208.367 77.3672ZM208.709 71.4102V55.4102H192.709V71.4102H208.709ZM225.799 71.4102H241.799V55.4102H225.799V71.4102ZM225.799 101V117H241.799V101H225.799ZM155.193 101H139.193V117H155.193V101ZM155.193 82.8848V66.8848H139.193V82.8848H155.193ZM161.346 81.7617L169.631 95.4497L169.761 95.3709L169.89 95.2895L161.346 81.7617ZM161.346 48.3633L152.802 61.8911L152.931 61.9724L153.061 62.0513L161.346 48.3633ZM155.193 47.1914H139.193V63.1914H155.193V47.1914ZM155.193 29.0762V13.0762H139.193V29.0762H155.193ZM199.969 29.0762H215.969V13.0762H199.969V29.0762ZM199.969 31.1914C196.487 31.1914 190.535 31.5115 185.273 34.8355L202.36 61.8911C201.503 62.4325 200.763 62.7457 200.269 62.9218C199.772 63.0989 199.42 63.1744 199.276 63.2018C199.027 63.2492 199.199 63.1914 199.969 63.1914V31.1914ZM185.369 34.7747C177.363 39.7515 176.01 48.0717 176.01 52.709H208.01C208.01 53.0134 207.983 54.3548 207.236 56.1533C206.398 58.1674 204.795 60.3782 202.263 61.9518L185.369 34.7747ZM176.01 52.709V82.8848H208.01V52.709H176.01ZM192.01 98.8848H201.775V66.8848H192.01V98.8848ZM201.775 98.8848C204.042 98.8848 206.749 98.6758 209.54 97.8785L200.749 67.1098C201.27 66.9609 201.633 66.9101 201.776 66.8936C201.923 66.8765 201.933 66.8848 201.775 66.8848V98.8848ZM209.54 97.8785C214.28 96.5243 218.191 93.5363 220.769 89.5077L193.817 72.258C194.506 71.1809 195.474 70.0641 196.765 69.096C198.06 68.1248 199.439 67.4842 200.749 67.1098L209.54 97.8785ZM220.92 89.2684C223.077 85.763 223.883 82.121 224.233 79.4366L192.502 75.2978C192.494 75.3579 192.518 75.1281 192.651 74.6936C192.781 74.2663 193.07 73.4668 193.666 72.4973L220.92 89.2684ZM224.185 79.7743C224.586 77.1417 224.709 74.2539 224.709 71.4102H192.709C192.709 73.5143 192.604 74.5979 192.549 74.9601L224.185 79.7743ZM208.709 87.4102H225.799V55.4102H208.709V87.4102ZM209.799 71.4102V101H241.799V71.4102H209.799ZM225.799 85H155.193V117H225.799V85ZM171.193 101V82.8848H139.193V101H171.193ZM155.193 98.8848C158.62 98.8848 164.446 98.5875 169.631 95.4497L153.061 68.0737C153.907 67.5615 154.627 67.2712 155.093 67.112C155.564 66.9514 155.888 66.8857 156.007 66.8641C156.206 66.8277 155.992 66.8848 155.193 66.8848V98.8848ZM169.89 95.2895C177.641 90.3939 179.201 82.3632 179.201 77.416H147.201C147.201 77.0145 147.246 75.6244 148.022 73.8066C148.885 71.7863 150.463 69.711 152.802 68.2339L169.89 95.2895ZM179.201 77.416V52.709H147.201V77.416H179.201ZM179.201 52.709C179.201 47.9052 177.727 39.576 169.631 34.6753L153.061 62.0513C150.555 60.5348 148.905 58.3606 148.022 56.294C147.235 54.4503 147.201 53.056 147.201 52.709H179.201ZM169.89 34.8355C164.627 31.5115 158.675 31.1914 155.193 31.1914V63.1914C155.963 63.1914 156.135 63.2492 155.886 63.2018C155.742 63.1744 155.39 63.0989 154.893 62.9218C154.399 62.7457 153.659 62.4325 152.802 61.8911L169.89 34.8355ZM171.193 47.1914V29.0762H139.193V47.1914H171.193ZM155.193 45.0762H199.969V13.0762H155.193V45.0762ZM183.969 29.0762V47.1914H215.969V29.0762H183.969ZM264.578 47.1914V63.1914H280.578V47.1914H264.578ZM258.426 48.3633L266.873 61.9518L266.921 61.9216L266.97 61.8911L258.426 48.3633ZM256.619 82.8848H240.619V98.8848H256.619V82.8848ZM271.902 80.8828L285.379 89.5077L285.455 89.3887L285.529 89.2684L271.902 80.8828ZM272.977 77.3672L257.159 74.9601L257.133 75.1287L257.111 75.2978L272.977 77.3672ZM273.318 71.4102V55.4102H257.318V71.4102H273.318ZM290.408 71.4102H306.408V55.4102H290.408V71.4102ZM290.408 101V117H306.408V101H290.408ZM219.803 101H203.803V117H219.803V101ZM219.803 82.8848V66.8848H203.803V82.8848H219.803ZM225.955 81.7617L234.24 95.4497L234.37 95.3709L234.499 95.2895L225.955 81.7617ZM225.955 48.3633L217.411 61.8911L217.54 61.9724L217.67 62.0513L225.955 48.3633ZM219.803 47.1914H203.803V63.1914H219.803V47.1914ZM219.803 29.0762V13.0762H203.803V29.0762H219.803ZM264.578 29.0762H280.578V13.0762H264.578V29.0762ZM264.578 31.1914C261.096 31.1914 255.145 31.5115 249.882 34.8355L266.97 61.8911C266.112 62.4325 265.372 62.7457 264.878 62.9218C264.381 63.0989 264.029 63.1744 263.885 63.2018C263.637 63.2492 263.808 63.1914 264.578 63.1914V31.1914ZM249.979 34.7747C241.973 39.7515 240.619 48.0717 240.619 52.709H272.619C272.619 53.0134 272.593 54.3548 271.845 56.1533C271.008 58.1674 269.404 60.3782 266.873 61.9518L249.979 34.7747ZM240.619 52.709V82.8848H272.619V52.709H240.619ZM256.619 98.8848H266.385V66.8848H256.619V98.8848ZM266.385 98.8848C268.652 98.8848 271.359 98.6758 274.149 97.8785L265.358 67.1098C265.879 66.9609 266.243 66.9101 266.385 66.8936C266.533 66.8765 266.543 66.8848 266.385 66.8848V98.8848ZM274.149 97.8785C278.889 96.5243 282.8 93.5363 285.379 89.5077L258.426 72.258C259.115 71.1809 260.084 70.0641 261.375 69.096C262.669 68.1248 264.048 67.4842 265.358 67.1098L274.149 97.8785ZM285.529 89.2684C287.686 85.763 288.492 82.121 288.842 79.4366L257.111 75.2978C257.103 75.3579 257.127 75.1281 257.26 74.6936C257.39 74.2663 257.679 73.4668 258.276 72.4973L285.529 89.2684ZM288.794 79.7743C289.195 77.1417 289.318 74.2539 289.318 71.4102H257.318C257.318 73.5143 257.214 74.5979 257.159 74.9601L288.794 79.7743ZM273.318 87.4102H290.408V55.4102H273.318V87.4102ZM274.408 71.4102V101H306.408V71.4102H274.408ZM290.408 85H219.803V117H290.408V85ZM235.803 101V82.8848H203.803V101H235.803ZM219.803 98.8848C223.23 98.8848 229.056 98.5875 234.24 95.4497L217.67 68.0737C218.517 67.5615 219.237 67.2712 219.703 67.112C220.173 66.9514 220.498 66.8857 220.616 66.8641C220.816 66.8277 220.601 66.8848 219.803 66.8848V98.8848ZM234.499 95.2895C242.25 90.3939 243.811 82.3632 243.811 77.416H211.811C211.811 77.0145 211.856 75.6244 212.632 73.8066C213.494 71.7863 215.072 69.711 217.411 68.2339L234.499 95.2895ZM243.811 77.416V52.709H211.811V77.416H243.811ZM243.811 52.709C243.811 47.9052 242.337 39.576 234.24 34.6753L217.67 62.0513C215.165 60.5348 213.514 58.3606 212.632 56.294C211.845 54.4503 211.811 53.056 211.811 52.709H243.811ZM234.499 34.8355C229.236 31.5115 223.285 31.1914 219.803 31.1914V63.1914C220.573 63.1914 220.744 63.2492 220.495 63.2018C220.352 63.1744 220 63.0989 219.503 62.9218C219.009 62.7457 218.268 62.4325 217.411 61.8911L234.499 34.8355ZM235.803 47.1914V29.0762H203.803V47.1914H235.803ZM219.803 45.0762H264.578V13.0762H219.803V45.0762ZM248.578 29.0762V47.1914H280.578V29.0762H248.578ZM287.977 48.6074L273.323 42.1838L273.312 42.2076L273.302 42.2315L287.977 48.6074ZM296.766 36.6934L286.44 24.4712L296.766 36.6934ZM310.193 29.5156L305.508 14.217L305.495 14.2211L305.481 14.2252L310.193 29.5156ZM344.617 29.5156L339.932 44.8143L344.617 29.5156ZM358.045 36.6934L347.667 48.8713L347.693 48.8935L347.719 48.9155L358.045 36.6934ZM366.785 48.6074L352.094 54.9465L352.121 55.0075L352.148 55.0682L366.785 48.6074ZM366.785 81.6152L352.131 75.1916L352.121 75.2154L352.11 75.2393L366.785 81.6152ZM358.045 93.5293L368.423 105.707L368.432 105.7L358.045 93.5293ZM344.617 100.707L339.932 85.4084L344.617 100.707ZM310.193 100.707L305.481 115.997L305.495 116.002L305.508 116.006L310.193 100.707ZM296.766 93.5293L286.379 105.7L286.409 105.726L286.44 105.751L296.766 93.5293ZM287.977 81.6152L273.286 87.9544L273.312 88.0153L273.339 88.076L287.977 81.6152ZM318.152 75.0234L302.248 76.7691L302.249 76.7797L302.25 76.7903L318.152 75.0234ZM319.666 81.4688L304.975 87.8062L305.05 87.9817L305.13 88.1552L319.666 81.4688ZM322.645 85.0332L314.36 98.7212L314.493 98.8019L314.628 98.88L322.645 85.0332ZM332.117 85.0332L339.978 98.9689L340.112 98.8932L340.245 98.8151L332.117 85.0332ZM335.096 81.4688L320.51 74.891L320.48 74.9578L320.451 75.0249L335.096 81.4688ZM336.658 75.0234L352.56 76.7903L352.562 76.7797L352.563 76.7691L336.658 75.0234ZM335.096 48.7539L320.451 55.1977L320.504 55.3195L320.56 55.4404L335.096 48.7539ZM332.117 45.2383L323.989 59.0201L324.122 59.0983L324.256 59.1739L332.117 45.2383ZM322.645 45.2383L330.661 59.0851L330.796 59.007L330.929 58.9263L322.645 45.2383ZM319.666 48.7539L305.13 42.0674L305.075 42.1883L305.021 42.3101L319.666 48.7539ZM300.9 65.1113C300.9 60.5499 301.645 57.299 302.651 54.9833L273.302 42.2315C270.206 49.3559 268.9 57.1076 268.9 65.1113H300.9ZM302.63 55.0311C303.783 52.4021 305.275 50.45 307.091 48.9155L286.44 24.4712C280.704 29.3169 276.337 35.3076 273.323 42.1838L302.63 55.0311ZM307.091 48.9155C309.07 47.2435 311.59 45.8277 314.905 44.806L305.481 14.2252C298.445 16.3936 292.013 19.763 286.44 24.4712L307.091 48.9155ZM314.879 44.8143C318.357 43.7491 322.497 43.123 327.43 43.123V11.123C319.797 11.123 312.447 12.092 305.508 14.217L314.879 44.8143ZM327.43 43.123C332.321 43.123 336.447 43.7469 339.932 44.8143L349.302 14.217C342.371 12.0943 335.038 11.123 327.43 11.123V43.123ZM339.932 44.8143C343.275 45.8381 345.759 47.245 347.667 48.8713L368.423 24.5154C362.844 19.7615 356.376 16.3832 349.302 14.217L339.932 44.8143ZM347.719 48.9155C349.515 50.4329 350.977 52.3559 352.094 54.9465L381.476 42.2683C378.492 35.3537 374.127 29.334 368.371 24.4712L347.719 48.9155ZM352.148 55.0682C353.159 57.3602 353.91 60.5803 353.91 65.1113H385.91C385.91 57.0773 384.578 49.2947 381.423 42.1467L352.148 55.0682ZM353.91 65.1113C353.91 69.5932 353.165 72.8341 352.131 75.1916L381.439 88.0389C384.572 80.8912 385.91 73.1294 385.91 65.1113H353.91ZM352.11 75.2393C350.993 77.8112 349.514 79.7751 347.658 81.359L368.432 105.7C374.128 100.838 378.476 94.8593 381.46 87.9912L352.11 75.2393ZM347.667 81.3513C345.759 82.9776 343.275 84.3845 339.932 85.4084L349.302 116.006C356.376 113.839 362.844 110.461 368.423 105.707L347.667 81.3513ZM339.932 85.4084C336.447 86.4758 332.321 87.0996 327.43 87.0996V119.1C335.038 119.1 342.371 118.128 349.302 116.006L339.932 85.4084ZM327.43 87.0996C322.497 87.0996 318.357 86.4735 314.879 85.4084L305.508 116.006C312.447 118.131 319.797 119.1 327.43 119.1V87.0996ZM314.905 85.4166C311.59 84.3949 309.07 82.9792 307.091 81.3071L286.44 105.751C292.013 110.46 298.445 113.829 305.481 115.997L314.905 85.4166ZM307.152 81.359C305.276 79.7581 303.766 77.7652 302.614 75.1545L273.339 88.076C276.353 94.9054 280.703 100.855 286.379 105.7L307.152 81.359ZM302.667 75.2761C301.64 72.8952 300.9 69.6238 300.9 65.1113H268.9C268.9 73.0989 270.212 80.8301 273.286 87.9544L302.667 75.2761ZM301.713 65.1113C301.713 69.3912 301.869 73.321 302.248 76.7691L334.057 73.2778C333.849 71.3873 333.713 68.7091 333.713 65.1113H301.713ZM302.25 76.7903C302.644 80.3384 303.412 84.1837 304.975 87.8062L334.357 75.1313C334.443 75.3309 334.409 75.3035 334.327 74.9543C334.247 74.6128 334.144 74.0611 334.054 73.2565L302.25 76.7903ZM305.13 88.1552C306.894 91.99 309.794 95.958 314.36 98.7212L330.929 71.3452C333.021 72.611 333.935 74.2027 334.202 74.7823L305.13 88.1552ZM314.628 98.88C319.034 101.431 323.651 102.107 327.43 102.107V70.1074C327.43 70.1074 327.447 70.1074 327.482 70.1091C327.516 70.1107 327.569 70.1141 327.639 70.1211C327.777 70.1351 327.993 70.1644 328.273 70.2274C328.837 70.354 329.689 70.6233 330.661 71.1864L314.628 98.88ZM327.43 102.107C331.303 102.107 335.741 101.359 339.978 98.9689L324.256 71.0975C325.955 70.1393 327.268 70.1074 327.43 70.1074V102.107ZM340.245 98.8151C344.957 96.0364 347.959 91.9612 349.741 87.9126L320.451 75.0249C320.8 74.2315 321.817 72.5327 323.989 71.2513L340.245 98.8151ZM349.681 88.0465C351.354 84.3378 352.159 80.4017 352.56 76.7903L320.756 73.2565C320.67 74.0291 320.571 74.5427 320.498 74.8427C320.424 75.1495 320.401 75.1324 320.51 74.891L349.681 88.0465ZM352.563 76.7691C352.941 73.321 353.098 69.3912 353.098 65.1113H321.098C321.098 68.7091 320.961 71.3873 320.754 73.2778L352.563 76.7691ZM353.098 65.1113C353.098 60.8817 352.94 56.9816 352.565 53.5232L320.751 56.9729C320.962 58.9181 321.098 61.5935 321.098 65.1113H353.098ZM352.565 53.5232C352.172 49.8971 351.373 45.8536 349.632 42.0674L320.56 55.4404C320.409 55.1135 320.419 55.0381 320.492 55.341C320.562 55.633 320.663 56.1593 320.751 56.9729L352.565 53.5232ZM349.741 42.3101C347.945 38.2298 344.873 34.0636 339.978 31.3026L324.256 59.1739C321.901 57.8453 320.814 56.0228 320.451 55.1977L349.741 42.3101ZM340.245 31.4564C335.952 28.9244 331.413 28.1152 327.43 28.1152V60.1152C327.157 60.1152 325.744 60.0547 323.989 59.0201L340.245 31.4564ZM327.43 28.1152C323.546 28.1152 318.825 28.8476 314.36 31.5503L330.929 58.9263C329.937 59.5271 329.045 59.827 328.424 59.9728C327.821 60.1144 327.457 60.1152 327.43 60.1152V28.1152ZM314.628 31.3915C309.878 34.1414 306.908 38.2033 305.13 42.0674L334.202 55.4404C333.922 56.0493 332.937 57.7675 330.661 59.0851L314.628 31.3915ZM305.021 42.3101C303.394 46.0077 302.632 49.9577 302.246 53.5232L334.059 56.9729C334.151 56.1283 334.255 55.5639 334.333 55.2301C334.413 54.8844 334.436 54.9138 334.311 55.1977L305.021 42.3101ZM302.246 53.5232C301.871 56.9816 301.713 60.8817 301.713 65.1113H333.713C333.713 61.5935 333.848 58.9181 334.059 56.9729L302.246 53.5232Z" fill="black" mask="url(#path-3-outside-2_223_3)"/>
</g>
<defs>
<filter id="filter0_d_223_3" x="53.0039" y="113.246" width="1059.39" height="159.953" filterUnits="userSpaceOnUse" color-interpolation-filters="sRGB">
<feFlood flood-opacity="0" result="BackgroundImageFix"/>
<feColorMatrix in="SourceAlpha" type="matrix" values="0 0 0 0 0 0 0 0 0 0 0 0 0 0 0 0 0 0 127 0" result="hardAlpha"/>
<feOffset dy="4"/>
<feGaussianBlur stdDeviation="2"/>
<feComposite in2="hardAlpha" operator="out"/>
<feColorMatrix type="matrix" values="0 0 0 0 0 0 0 0 0 0 0 0 0 0 0 0 0 0 0.25 0"/>
<feBlend mode="normal" in2="BackgroundImageFix" result="effect1_dropShadow_223_3"/>
<feBlend mode="normal" in="SourceGraphic" in2="effect1_dropShadow_223_3" result="shape"/>
</filter>
<filter id="filter1_d_223_3" x="0.00195312" y="27.123" width="373.908" height="83.9766" filterUnits="userSpaceOnUse" color-interpolation-filters="sRGB">
<feFlood flood-opacity="0" result="BackgroundImageFix"/>
<feColorMatrix in="SourceAlpha" type="matrix" values="0 0 0 0 0 0 0 0 0 0 0 0 0 0 0 0 0 0 127 0" result="hardAlpha"/>
<feOffset dy="4"/>
<feGaussianBlur stdDeviation="2"/>
<feComposite in2="hardAlpha" operator="out"/>
<feColorMatrix type="matrix" values="0 0 0 0 0 0 0 0 0 0 0 0 0 0 0 0 0 0 0.25 0"/>
<feBlend mode="normal" in2="BackgroundImageFix" result="effect1_dropShadow_223_3"/>
<feBlend mode="normal" in="SourceGraphic" in2="effect1_dropShadow_223_3" result="shape"/>
</filter>
<linearGradient id="paint0_linear_223_3" x1="613" y1="59" x2="613" y2="281" gradientUnits="userSpaceOnUse">
<stop offset="0.24" stop-color="white"/>
<stop offset="0.365" stop-color="#F7D416"/>
<stop offset="0.735" stop-color="#FA0205"/>
</linearGradient>
</defs>
</svg>
